<?xml version="1.0" encoding="utf-8"?>
<!-- Generator: Adobe Illustrator 23.0.2, SVG Export Plug-In . SVG Version: 6.00 Build 0)  -->
<svg version="1.1" id="Capa_1" xmlns="http://www.w3.org/2000/svg" xmlns:xlink="http://www.w3.org/1999/xlink" x="0px" y="0px"
	 viewBox="0 0 66.84 48.94" style="enable-background:new 0 0 66.84 48.94;" xml:space="preserve">
<style type="text/css">
	.st0{fill:#FFFFFF;}
</style>
<g>
	<path class="st0" d="M11.14,14.44c1.85,0,3.34-1.5,3.34-3.34s-1.5-3.34-3.34-3.34S7.8,9.26,7.8,11.1S9.29,14.44,11.14,14.44z
		 M11.14,9.99c0.62,0,1.11,0.5,1.11,1.11s-0.5,1.11-1.11,1.11c-0.62,0-1.11-0.5-1.11-1.11S10.52,9.99,11.14,9.99z"/>
	<path class="st0" d="M11.14,34.5c-1.85,0-3.34,1.5-3.34,3.34c0,1.85,1.5,3.34,3.34,3.34s3.34-1.5,3.34-3.34
		C14.48,35.99,12.99,34.5,11.14,34.5z M11.14,38.95c-0.62,0-1.11-0.5-1.11-1.11c0-0.62,0.5-1.11,1.11-1.11
		c0.62,0,1.11,0.5,1.11,1.11C12.25,38.45,11.76,38.95,11.14,38.95z"/>
	<path class="st0" d="M24.83,19.23l-4.46,4.46c-0.43,0.44-0.43,1.14,0,1.58l4.46,4.46c0.44,0.43,1.14,0.43,1.58,0l4.46-4.46
		c0.43-0.44,0.43-1.14,0-1.58l-4.46-4.46C25.97,18.79,25.27,18.79,24.83,19.23z M28.5,24.47l-2.88,2.88l-2.88-2.88l2.88-2.88
		L28.5,24.47z"/>
	<path class="st0" d="M66.08,1.13c-4.57-1.51-9.5-1.51-14.07,0c-0.45,0.15-0.76,0.58-0.76,1.06V3.3H1.11C0.5,3.3,0,3.8,0,4.42
		s0.5,1.11,1.11,1.11h2.23v4.46H1.11C0.5,9.99,0,10.49,0,11.1s0.5,1.11,1.11,1.11h2.23v4.46H1.11C0.5,16.67,0,17.17,0,17.79
		s0.5,1.11,1.11,1.11h2.23v4.46H1.11C0.5,23.36,0,23.86,0,24.47s0.5,1.11,1.11,1.11h2.23v4.46H1.11C0.5,30.04,0,30.54,0,31.16
		s0.5,1.11,1.11,1.11h2.23v4.46H1.11C0.5,36.73,0,37.22,0,37.84c0,0.62,0.5,1.11,1.11,1.11h2.23v4.46H1.11
		C0.5,43.41,0,43.91,0,44.52c0,0.62,0.5,1.11,1.11,1.11h50.13v1.11c0,0.48,0.31,0.9,0.76,1.06c4.57,1.51,9.5,1.51,14.07,0
		c0.45-0.15,0.76-0.58,0.76-1.06V2.19C66.84,1.71,66.53,1.29,66.08,1.13z M18.88,38.95c-0.53-4.65-4.2-8.32-8.85-8.85V18.84
		c4.65-0.53,8.32-4.2,8.85-8.85h32.37v5.11l-2.55-2.55c-0.44-0.43-1.14-0.43-1.58,0L36.76,22.9L26.41,12.54
		c-0.44-0.43-1.14-0.43-1.58,0L13.69,23.68c-0.43,0.44-0.43,1.14,0,1.58L24.83,36.4c0.44,0.43,1.14,0.43,1.58,0l10.35-10.35
		L47.11,36.4c0.44,0.43,1.14,0.43,1.58,0l2.55-2.55v5.11H18.88z M48.69,19.23c-0.44-0.43-1.14-0.43-1.58,0l-4.46,4.46
		c-0.43,0.44-0.43,1.14,0,1.58l4.46,4.46c0.44,0.43,1.14,0.43,1.58,0l2.55-2.55v3.53l-3.34,3.34l-9.56-9.56l9.56-9.56l3.34,3.34
		v3.53L48.69,19.23z M50.78,24.47l-2.88,2.88l-2.88-2.88l2.88-2.88L50.78,24.47z M35.19,24.47l-9.56,9.56l-9.56-9.56l9.56-9.56
		L35.19,24.47z M5.57,43.41V5.53h45.67v2.23H17.82c-0.62,0-1.11,0.5-1.11,1.11c0,4.3-3.49,7.79-7.8,7.8c-0.62,0-1.11,0.5-1.11,1.11
		v13.37c0,0.62,0.5,1.11,1.11,1.11c4.3,0,7.79,3.49,7.8,7.8c0,0.62,0.5,1.11,1.11,1.11h33.42v2.23H5.57z M64.61,45.93
		c-3.64,1.04-7.5,1.04-11.14,0V3.01c3.64-1.04,7.5-1.04,11.14,0V45.93z"/>
	<path class="st0" d="M36.76,18.9c1.85,0,3.34-1.5,3.34-3.34s-1.5-3.34-3.34-3.34c-1.85,0-3.34,1.5-3.34,3.34S34.92,18.9,36.76,18.9
		z M36.76,14.44c0.62,0,1.11,0.5,1.11,1.11c0,0.62-0.5,1.11-1.11,1.11c-0.62,0-1.11-0.5-1.11-1.11
		C35.65,14.94,36.15,14.44,36.76,14.44z"/>
	<path class="st0" d="M36.76,30.04c-1.85,0-3.34,1.5-3.34,3.34c0,1.85,1.5,3.34,3.34,3.34c1.85,0,3.34-1.5,3.34-3.34
		C40.1,31.54,38.61,30.04,36.76,30.04z M36.76,34.5c-0.62,0-1.11-0.5-1.11-1.11c0-0.62,0.5-1.11,1.11-1.11
		c0.62,0,1.11,0.5,1.11,1.11C37.88,34,37.38,34.5,36.76,34.5z"/>
</g>
</svg>
