<?xml version="1.0" encoding="utf-8"?>
<!-- Generator: Adobe Illustrator 23.0.2, SVG Export Plug-In . SVG Version: 6.00 Build 0)  -->
<svg version="1.1" id="Capa_1" xmlns="http://www.w3.org/2000/svg" xmlns:xlink="http://www.w3.org/1999/xlink" x="0px" y="0px"
	 viewBox="0 0 53.16 53.16" style="enable-background:new 0 0 53.16 53.16;" xml:space="preserve">
<style type="text/css">
	.st0{fill:#FFFFFF;}
</style>
<g>
	<path class="st0" d="M12.46,38.21H0.83C0.37,38.21,0,37.84,0,37.38v-3.32c0-1.38,1.12-2.49,2.49-2.49h8.31
		c1.38,0,2.49,1.12,2.49,2.49v3.32C13.29,37.84,12.92,38.21,12.46,38.21z M1.66,36.55h9.97v-2.49c0-0.46-0.37-0.83-0.83-0.83H2.49
		c-0.46,0-0.83,0.37-0.83,0.83V36.55z"/>
	<rect x="4.15" y="37.38" class="st0" width="1.66" height="11.63"/>
	<rect x="7.48" y="37.38" class="st0" width="1.66" height="11.63"/>
	<path class="st0" d="M11.63,53.16H1.66c-0.46,0-0.83-0.37-0.83-0.83v-1.66c0-0.22,0.09-0.43,0.24-0.59l1.66-1.66
		c0.16-0.16,0.37-0.24,0.59-0.24h6.64c0.22,0,0.43,0.09,0.59,0.24l1.66,1.66c0.16,0.16,0.24,0.37,0.24,0.59v1.66
		C12.46,52.79,12.09,53.16,11.63,53.16z M2.49,51.5h8.31v-0.49l-1.17-1.17H3.67l-1.17,1.17V51.5z"/>
	<path class="st0" d="M27.41,38.21H15.78c-0.46,0-0.83-0.37-0.83-0.83v-3.32c0-1.38,1.12-2.49,2.49-2.49h8.31
		c1.38,0,2.49,1.12,2.49,2.49v3.32C28.24,37.84,27.87,38.21,27.41,38.21z M16.61,36.55h9.97v-2.49c0-0.46-0.37-0.83-0.83-0.83h-8.31
		c-0.46,0-0.83,0.37-0.83,0.83V36.55z"/>
	<rect x="19.1" y="37.38" class="st0" width="1.66" height="11.63"/>
	<rect x="22.43" y="37.38" class="st0" width="1.66" height="11.63"/>
	<path class="st0" d="M26.58,53.16h-9.97c-0.46,0-0.83-0.37-0.83-0.83v-1.66c0-0.22,0.09-0.43,0.24-0.59l1.66-1.66
		c0.16-0.16,0.37-0.24,0.59-0.24h6.64c0.22,0,0.43,0.09,0.59,0.24l1.66,1.66c0.16,0.16,0.24,0.37,0.24,0.59v1.66
		C27.41,52.79,27.04,53.16,26.58,53.16z M17.44,51.5h8.31v-0.49l-1.17-1.17h-5.96l-1.17,1.17V51.5z"/>
	<path class="st0" d="M42.36,38.21H30.73c-0.46,0-0.83-0.37-0.83-0.83v-3.32c0-1.38,1.12-2.49,2.49-2.49h8.31
		c1.38,0,2.49,1.12,2.49,2.49v3.32C43.19,37.84,42.82,38.21,42.36,38.21z M31.56,36.55h9.97v-2.49c0-0.46-0.37-0.83-0.83-0.83h-8.31
		c-0.46,0-0.83,0.37-0.83,0.83V36.55z"/>
	<rect x="34.06" y="37.38" class="st0" width="1.66" height="11.63"/>
	<rect x="37.38" y="37.38" class="st0" width="1.66" height="11.63"/>
	<path class="st0" d="M41.53,53.16h-9.97c-0.46,0-0.83-0.37-0.83-0.83v-1.66c0-0.22,0.09-0.43,0.24-0.59l1.66-1.66
		c0.16-0.16,0.37-0.24,0.59-0.24h6.64c0.22,0,0.43,0.09,0.59,0.24l1.66,1.66c0.16,0.16,0.24,0.37,0.24,0.59v1.66
		C42.36,52.79,41.99,53.16,41.53,53.16z M32.39,51.5h8.31v-0.49l-1.17-1.17h-5.96l-1.17,1.17V51.5z"/>
	<path class="st0" d="M52.33,29.9H0.83C0.37,29.9,0,29.53,0,29.07v-3.32c0-0.46,0.37-0.83,0.83-0.83h51.5
		c0.46,0,0.83,0.37,0.83,0.83v3.32C53.16,29.53,52.79,29.9,52.33,29.9z M1.66,28.24H51.5v-1.66H1.66V28.24z"/>
	<rect x="1.66" y="29.07" class="st0" width="1.66" height="3.32"/>
	<path class="st0" d="M50.67,53.16h-6.64V51.5h5.81V29.07h1.66v23.26C51.5,52.79,51.13,53.16,50.67,53.16z"/>
	<path class="st0" d="M14.95,21.6c-1.83,0-3.32-1.49-3.32-3.32v-4.15c0-0.46,0.37-0.83,0.83-0.83h4.98c0.46,0,0.83,0.37,0.83,0.83
		v4.15C18.27,20.11,16.79,21.6,14.95,21.6z M13.29,14.95v3.32c0,0.92,0.74,1.66,1.66,1.66c0.92,0,1.66-0.74,1.66-1.66v-3.32H13.29z"
		/>
	<rect x="14.12" y="20.77" class="st0" width="1.66" height="4.98"/>
	<path class="st0" d="M6.64,21.6c-1.83,0-3.32-1.49-3.32-3.32v-4.15c0-0.46,0.37-0.83,0.83-0.83h4.98c0.46,0,0.83,0.37,0.83,0.83
		v4.15C9.97,20.11,8.48,21.6,6.64,21.6z M4.98,14.95v3.32c0,0.92,0.74,1.66,1.66,1.66s1.66-0.74,1.66-1.66v-3.32H4.98z"/>
	<rect x="5.81" y="20.77" class="st0" width="1.66" height="4.98"/>
	<path class="st0" d="M23.26,21.6c-1.83,0-3.32-1.49-3.32-3.32v-4.15c0-0.46,0.37-0.83,0.83-0.83h4.98c0.46,0,0.83,0.37,0.83,0.83
		v4.15C26.58,20.11,25.09,21.6,23.26,21.6z M21.6,14.95v3.32c0,0.92,0.74,1.66,1.66,1.66s1.66-0.74,1.66-1.66v-3.32H21.6z"/>
	<rect x="22.43" y="20.77" class="st0" width="1.66" height="4.98"/>
	<path class="st0" d="M52.33,18.27h-21.6c-0.46,0-0.83-0.37-0.83-0.83V0.83C29.9,0.37,30.27,0,30.73,0h21.6
		c0.46,0,0.83,0.37,0.83,0.83v16.61C53.16,17.9,52.79,18.27,52.33,18.27z M31.56,16.61H51.5V1.66H31.56V16.61z"/>
	<path class="st0" d="M34.06,4.98h-3.32V3.32h2.49V0.83h1.66v3.32C34.89,4.61,34.51,4.98,34.06,4.98z"/>
	<path class="st0" d="M52.33,4.98h-3.32c-0.46,0-0.83-0.37-0.83-0.83V0.83h1.66v2.49h2.49V4.98z"/>
	<path class="st0" d="M49.84,17.44h-1.66v-3.32c0-0.46,0.37-0.83,0.83-0.83h3.32v1.66h-2.49V17.44z"/>
	<path class="st0" d="M34.89,17.44h-1.66v-2.49h-2.49v-1.66h3.32c0.46,0,0.83,0.37,0.83,0.83V17.44z"/>
	<rect x="32.39" y="4.15" class="st0" width="1.66" height="9.97"/>
	<rect x="34.06" y="14.12" class="st0" width="14.95" height="1.66"/>
	<rect x="49.01" y="4.15" class="st0" width="1.66" height="9.97"/>
	<rect x="34.06" y="2.49" class="st0" width="14.95" height="1.66"/>
	<path class="st0" d="M42.61,12.22l-4.4-4.4l-4.4,4.4l-1.17-1.17l4.98-4.98c0.32-0.32,0.85-0.32,1.17,0l4.98,4.98L42.61,12.22z"/>
	<path class="st0" d="M49.25,12.22l-4.4-4.4l-2.74,2.74l-1.17-1.17l3.32-3.32c0.32-0.32,0.85-0.32,1.17,0l4.98,4.98L49.25,12.22z"/>
</g>
</svg>
