<?xml version="1.0" encoding="utf-8"?>
<!-- Generator: Adobe Illustrator 23.0.2, SVG Export Plug-In . SVG Version: 6.00 Build 0)  -->
<svg version="1.1" id="Capa_1" xmlns="http://www.w3.org/2000/svg" xmlns:xlink="http://www.w3.org/1999/xlink" x="0px" y="0px"
	 viewBox="0 0 403.08 29.47" style="enable-background:new 0 0 403.08 29.47;" xml:space="preserve">
<style type="text/css">
	.st0{fill:none;stroke:#606060;stroke-miterlimit:10;}
	.st1{fill:#606060;stroke:#616160;stroke-miterlimit:10;}
	.st2{fill:#FFFFFF;}
</style>
<g>
	<path class="st0" d="M5.32,0.5C2.67,0.5,0.5,2.67,0.5,5.32v18.82c0,2.65,2.17,4.82,4.82,4.82h364.43V0.5H5.32z"/>
	<path class="st1" d="M402.58,24.15V5.32c0-2.65-2.17-4.82-4.82-4.82h-28v28.47h28C400.41,28.97,402.58,26.8,402.58,24.15z"/>
	<path class="st2" d="M395.13,21.85l-5.69-5.69c0.74-1.1,1.14-2.4,1.14-3.75c0-1.8-0.7-3.5-1.98-4.77
		c-1.28-1.28-2.97-1.98-4.77-1.98s-3.5,0.7-4.77,1.98c-1.28,1.28-1.98,2.97-1.98,4.77s0.7,3.5,1.98,4.77
		c1.28,1.28,2.97,1.98,4.77,1.98c1.37,0,2.68-0.41,3.79-1.16l5.68,5.68c0.19,0.19,0.54,0.15,0.79-0.09l0.95-0.95
		C395.28,22.39,395.32,22.04,395.13,21.85z M383.83,17.34c-2.71,0-4.92-2.21-4.92-4.92s2.21-4.92,4.92-4.92s4.92,2.21,4.92,4.92
		S386.54,17.34,383.83,17.34z"/>
</g>
</svg>
