<?xml version="1.0" encoding="utf-8"?>
<!-- Generator: Adobe Illustrator 23.0.2, SVG Export Plug-In . SVG Version: 6.00 Build 0)  -->
<svg version="1.1" id="Capa_1" xmlns="http://www.w3.org/2000/svg" xmlns:xlink="http://www.w3.org/1999/xlink" x="0px" y="0px"
	 viewBox="0 0 54.41 68.4" style="enable-background:new 0 0 54.41 68.4;" xml:space="preserve">
<style type="text/css">
	.st0{fill:#606060;}
	.st1{fill:#EEBE2F;}
</style>
<g>
	<g>
		<path class="st0" d="M27.2,44.25c-4.56,0-8.84-1.78-12.06-5c-3.22-3.22-5-7.5-5-12.06s1.78-8.84,5-12.06s7.5-5,12.06-5
			s8.84,1.78,12.06,5c3.22,3.22,5,7.5,5,12.06s-1.78,8.84-5,12.06C36.04,42.48,31.76,44.25,27.2,44.25z M27.2,12.38
			c-8.17,0-14.82,6.65-14.82,14.82s6.65,14.82,14.82,14.82s14.82-6.65,14.82-14.82S35.38,12.38,27.2,12.38z"/>
		<polygon class="st1" points="24.67,33.89 18.71,27.93 20.29,26.36 24.67,30.74 34.12,21.29 35.7,22.87 		"/>
		<path class="st0" d="M27.2,54.41c-1.06,0-2.13-0.26-3.1-0.78c-0.2-0.1-0.39-0.22-0.58-0.35c-0.35-0.23-0.68-0.51-0.97-0.8
			l-2.84-2.84c-0.82-0.82-1.91-1.27-3.07-1.27h-4.02c-3.63,0-6.58-2.95-6.58-6.58v-4.02c0-1.15-0.46-2.27-1.27-3.07l-2.84-2.84
			c-2.57-2.57-2.57-6.74,0-9.3l2.84-2.84c0.81-0.81,1.27-1.93,1.27-3.07v-4.02c0-3.63,2.95-6.58,6.58-6.58h4.02
			c1.16,0,2.25-0.45,3.07-1.27l2.84-2.84C23.79,0.68,25.44,0,27.2,0c1.76,0,3.41,0.68,4.66,1.93l2.84,2.84
			c0.82,0.83,1.91,1.27,3.07,1.27h4.02c3.63,0,6.58,2.95,6.58,6.58v4.02c0,1.16,0.45,2.25,1.27,3.07l2.84,2.84
			c2.57,2.57,2.57,6.74,0,9.3l-2.84,2.84c-0.82,0.82-1.27,1.91-1.27,3.07v4.02c0,3.63-2.95,6.58-6.58,6.58h-4.02
			c-1.16,0-2.25,0.45-3.07,1.27l-2.84,2.84c-0.3,0.3-0.62,0.57-0.97,0.8c-0.18,0.13-0.38,0.24-0.58,0.35
			C29.33,54.15,28.27,54.41,27.2,54.41z M12.61,8.26c-2.39,0-4.35,1.95-4.35,4.35v4.02c0,1.76-0.68,3.41-1.93,4.65l-2.84,2.84
			c-1.7,1.7-1.7,4.45,0,6.15l2.84,2.84c1.24,1.24,1.93,2.89,1.93,4.66v4.02c0,2.39,1.95,4.35,4.35,4.35h4.02
			c1.76,0,3.41,0.68,4.66,1.93l2.84,2.84c0.2,0.2,0.42,0.38,0.65,0.54c0.12,0.08,0.25,0.16,0.38,0.23c1.29,0.68,2.82,0.68,4.1,0
			c0.13-0.07,0.26-0.15,0.38-0.22c0.23-0.16,0.45-0.33,0.65-0.54l2.84-2.84c1.24-1.24,2.89-1.93,4.66-1.93h4.02
			c2.39,0,4.35-1.95,4.35-4.35v-4.02c0-1.76,0.68-3.41,1.93-4.66l2.84-2.84c1.7-1.7,1.7-4.45,0-6.15l-2.84-2.84
			c-1.24-1.24-1.93-2.89-1.93-4.66v-4.02c0-2.39-1.95-4.35-4.35-4.35h-4.02c-1.76,0-3.41-0.68-4.66-1.93L30.27,3.5
			c-1.7-1.7-4.45-1.7-6.15,0l-2.84,2.84c-1.24,1.24-2.89,1.93-4.66,1.93L12.61,8.26L12.61,8.26z"/>
		<path class="st0" d="M19.15,68.4l-5.13-6.31l-8.04,1.22l6.63-17.17h4.02c1.76,0,3.41,0.68,4.66,1.93l2.84,2.84
			c0.2,0.2,0.42,0.38,0.65,0.54l0.74,0.5L19.15,68.4z M14.95,59.69L18.46,64l4.36-11.27c-0.09-0.08-0.18-0.16-0.26-0.25l-2.84-2.84
			c-0.82-0.82-1.91-1.27-3.07-1.27h-2.49l-4.7,12.16L14.95,59.69z"/>
		<path class="st0" d="M35.26,68.4L28.9,51.93l0.74-0.5c0.23-0.16,0.45-0.33,0.65-0.54l2.84-2.84c1.24-1.24,2.89-1.93,4.66-1.93
			h4.02l6.63,17.17l-8.04-1.22L35.26,68.4z M31.59,52.73l4.36,11.28l3.51-4.31l5.5,0.83l-4.7-12.16h-2.49
			c-1.16,0-2.25,0.45-3.07,1.27l-2.84,2.84C31.77,52.57,31.68,52.65,31.59,52.73z"/>
	</g>
</g>
</svg>
