<?xml version="1.0" encoding="utf-8"?>
<!-- Generator: Adobe Illustrator 23.0.2, SVG Export Plug-In . SVG Version: 6.00 Build 0)  -->
<svg version="1.1" id="Capa_1" xmlns="http://www.w3.org/2000/svg" xmlns:xlink="http://www.w3.org/1999/xlink" x="0px" y="0px"
	 viewBox="0 0 56.91 49.08" style="enable-background:new 0 0 56.91 49.08;" xml:space="preserve">
<style type="text/css">
	.st0{fill:#FFFFFF;}
</style>
<path class="st0" d="M56.91,11.19l-0.01-0.04c-0.01-0.07-0.03-0.13-0.03-0.15c-0.01-0.04-0.02-0.13-0.07-0.23
	c-0.05-0.11-0.11-0.18-0.13-0.21c-0.03-0.04-0.08-0.12-0.17-0.21c-0.08-0.07-0.15-0.12-0.17-0.13c-0.03-0.02-0.08-0.06-0.15-0.09
	l-0.15-0.07c-0.09-0.03-0.17-0.05-0.22-0.05c-0.05-0.01-0.14-0.03-0.24-0.03H11.82l-1.36-8.81c-0.01-0.09-0.04-0.16-0.06-0.21
	c-0.02-0.06-0.04-0.13-0.08-0.21c-0.04-0.07-0.08-0.14-0.14-0.22c-0.05-0.06-0.1-0.12-0.17-0.18C9.92,0.26,9.83,0.21,9.8,0.19
	C9.73,0.15,9.65,0.11,9.56,0.08C9.47,0.05,9.39,0.03,9.34,0.03C9.29,0.01,9.22,0,9.13,0H1.34C0.6,0,0,0.6,0,1.34s0.6,1.34,1.34,1.34
	h6.63l1.35,8.76l0,0.02l4.34,20.23l-3.68,4.47c-0.29-0.04-0.57-0.06-0.85-0.06c-3.57,0-6.48,2.91-6.48,6.48
	c0,3.57,2.91,6.48,6.48,6.48c3.09,0,5.69-2.16,6.31-5.14h18.32c0.62,2.97,3.22,5.14,6.31,5.14c3.57,0,6.48-2.91,6.48-6.48
	c0-3.57-2.91-6.48-6.48-6.48c-3.09,0-5.69,2.16-6.31,5.14H15.44c-0.36-1.68-1.37-3.15-2.79-4.08l3.1-3.77h32.19
	c0.24,0,0.47-0.07,0.69-0.2c0.04-0.02,0.07-0.04,0.1-0.07l0.03-0.02c0.14-0.11,0.25-0.23,0.34-0.39l0.04-0.04l7.68-20.92
	c0.04-0.1,0.05-0.19,0.05-0.24c0.01-0.05,0.03-0.13,0.03-0.23L56.91,11.19z M12.92,42.6c0,2.09-1.7,3.79-3.79,3.79
	c-2.09,0-3.79-1.7-3.79-3.79c0-2.09,1.7-3.79,3.79-3.79C11.22,38.81,12.92,40.51,12.92,42.6z M16.2,30.71l-3.87-18.07h41.31
	L47,30.71H16.2z M36.27,42.6c0-2.09,1.7-3.79,3.79-3.79c2.09,0,3.79,1.7,3.79,3.79c0,2.09-1.7,3.79-3.79,3.79
	C37.97,46.4,36.27,44.7,36.27,42.6z"/>
</svg>
