<?xml version="1.0" encoding="utf-8"?>
<!-- Generator: Adobe Illustrator 22.0.0, SVG Export Plug-In . SVG Version: 6.00 Build 0)  -->
<svg version="1.1" id="Layer_1" xmlns="http://www.w3.org/2000/svg" xmlns:xlink="http://www.w3.org/1999/xlink" x="0px" y="0px"
	 viewBox="0 0 51.3 51.3" style="enable-background:new 0 0 51.3 51.3;" xml:space="preserve">
<style type="text/css">
	.st0{fill:#FFFFFF;}
</style>
<path d="M48.8,51.3H2.5c-1.4,0-2.5-1.1-2.5-2.5L0,2.5C0,1.1,1.1,0,2.5,0l46.3,0c1.4,0,2.5,1.1,2.5,2.5v46.3
	C51.3,50.2,50.2,51.3,48.8,51.3z"/>
<path class="st0" d="M37.4,20.1L37.4,20.1C37.4,20.1,37.4,20.1,37.4,20.1c0-0.1,0-0.1,0-0.2c0,0,0-0.1-0.1-0.1c0,0,0-0.1-0.1-0.1
	c0,0-0.1,0-0.1-0.1c0,0,0,0-0.1,0l-0.1,0c0,0-0.1,0-0.1,0c0,0-0.1,0-0.1,0h-18L18.2,16c0,0,0-0.1,0-0.1c0,0,0-0.1,0-0.1
	c0,0,0-0.1-0.1-0.1c0,0,0-0.1-0.1-0.1c0,0-0.1-0.1-0.1-0.1c0,0-0.1,0-0.1,0c0,0-0.1,0-0.1,0c0,0,0,0-0.1,0h-3.2
	c-0.3,0-0.6,0.2-0.6,0.6c0,0.3,0.2,0.6,0.6,0.6h2.7l0.6,3.6l0,0l1.8,8.3L18,30.5c-0.1,0-0.2,0-0.4,0c-1.5,0-2.7,1.2-2.7,2.7
	c0,1.5,1.2,2.7,2.7,2.7c1.3,0,2.3-0.9,2.6-2.1h7.6c0.3,1.2,1.3,2.1,2.6,2.1c1.5,0,2.7-1.2,2.7-2.7c0-1.5-1.2-2.7-2.7-2.7
	c-1.3,0-2.3,0.9-2.6,2.1h-7.6c-0.1-0.7-0.6-1.3-1.2-1.7l1.3-1.6h13.3c0.1,0,0.2,0,0.3-0.1c0,0,0,0,0,0l0,0c0.1,0,0.1-0.1,0.1-0.2
	l0,0l3.2-8.6c0,0,0-0.1,0-0.1C37.4,20.3,37.4,20.2,37.4,20.1L37.4,20.1z M19.2,33.1c0,0.9-0.7,1.6-1.6,1.6c-0.9,0-1.6-0.7-1.6-1.6
	c0-0.9,0.7-1.6,1.6-1.6C18.5,31.5,19.2,32.2,19.2,33.1z M20.6,28.2L19,20.7h17l-2.7,7.5H20.6z M28.9,33.1c0-0.9,0.7-1.6,1.6-1.6
	c0.9,0,1.6,0.7,1.6,1.6c0,0.9-0.7,1.6-1.6,1.6C29.6,34.7,28.9,34,28.9,33.1z"/>
</svg>
