<?xml version="1.0" encoding="utf-8"?>
<!-- Generator: Adobe Illustrator 23.0.2, SVG Export Plug-In . SVG Version: 6.00 Build 0)  -->
<svg version="1.1" id="Capa_1" xmlns="http://www.w3.org/2000/svg" xmlns:xlink="http://www.w3.org/1999/xlink" x="0px" y="0px"
	 viewBox="0 0 188.07 37.2" style="enable-background:new 0 0 188.07 37.2;" xml:space="preserve">
<style type="text/css">
	.st0{fill:#606060;}
	.st1{fill:#FFFFFF;}
</style>
<g>
	<path class="st0" d="M182.07,37.2H6c-3.3,0-6-2.7-6-6V6c0-3.3,2.7-6,6-6h176.07c3.3,0,6,2.7,6,6v25.2
		C188.07,34.5,185.37,37.2,182.07,37.2z"/>
	<g>
		<g>
			<path class="st1" d="M49.83,18.28c0-3.66,0-7.15,4.78-7.15c2.95,0,4.14,1.63,4.03,4.6h-2.84c0-1.84-0.33-2.53-1.19-2.53
				c-1.63,0-1.84,1.53-1.84,5.08c0,3.55,0.21,5.08,1.84,5.08c1.34,0,1.29-1.73,1.32-2.82h2.86c0,3.7-1.48,4.89-4.18,4.89
				C49.83,25.44,49.83,21.91,49.83,18.28z"/>
			<path class="st1" d="M60.64,25.21V11.36h2.9V22.9h4.33v2.3H60.64z"/>
			<path class="st1" d="M69.14,25.21V11.36h2.9v13.85H69.14z"/>
			<path class="st1" d="M74.33,18.28c0-3.66,0-7.15,4.78-7.15c2.95,0,4.14,1.63,4.03,4.6H80.3c0-1.84-0.33-2.53-1.19-2.53
				c-1.63,0-1.84,1.53-1.84,5.08c0,3.55,0.21,5.08,1.84,5.08c1.34,0,1.29-1.73,1.32-2.82h2.86c0,3.7-1.48,4.89-4.18,4.89
				C74.33,25.44,74.33,21.91,74.33,18.28z"/>
			<path class="st1" d="M91.28,11.36h3.18l-3.87,6.21l3.87,7.63h-3.26l-3.32-7.1h-0.04v7.1h-2.9V11.36h2.9v5.93h0.04L91.28,11.36z"
				/>
			<path class="st1" d="M98.99,25.21l3.84-13.85h3.82l3.76,13.85h-3.05l-0.77-3.07h-3.95l-0.79,3.07H98.99z M104.57,14.02h-0.04
				l-1.32,5.98h2.76L104.57,14.02z"/>
			<path class="st1" d="M122.2,25.21h-4.08c-0.25,0-0.54,0.04-0.83,0.06c-0.29,0.04-0.58,0.08-0.84,0.08
				c-4.28,0-4.81-2.24-4.81-7.06c0-3.66,0-7.15,4.78-7.15s4.78,3.49,4.78,7.15c0,2.97-0.54,4.28-1.69,5.24l0.04,0.04
				c0.42-0.12,1.17-0.48,1.46-0.48h1.21V25.21z M118.25,18.28c0-3.55-0.21-5.08-1.84-5.08s-1.84,1.53-1.84,5.08
				c0,3.45,0.21,4.99,1.84,4.99S118.25,21.73,118.25,18.28z"/>
			<path class="st1" d="M132.84,11.36v9.82c0,2.07-1.17,4.26-4.7,4.26c-3.18,0-4.72-1.65-4.72-4.26v-9.82h2.9v9.63
				c0,1.71,0.73,2.38,1.78,2.38c1.27,0,1.84-0.84,1.84-2.38v-9.63H132.84z"/>
			<path class="st1" d="M139.32,7.2l-3.07,2.74H135l1.73-2.74H139.32z M135.2,25.21V11.36h2.9v13.85H135.2z"/>
		</g>
	</g>
</g>
</svg>
