<?xml version="1.0" encoding="utf-8"?>
<!-- Generator: Adobe Illustrator 23.0.2, SVG Export Plug-In . SVG Version: 6.00 Build 0)  -->
<svg version="1.1" id="Capa_1" xmlns="http://www.w3.org/2000/svg" xmlns:xlink="http://www.w3.org/1999/xlink" x="0px" y="0px"
	 viewBox="0 0 189.07 38.2" style="enable-background:new 0 0 189.07 38.2;" xml:space="preserve">
<style type="text/css">
	.st0{fill:#DBA728;stroke:#FFFFFF;stroke-miterlimit:10;}
	.st1{fill:#FFFFFF;}
</style>
<g>
	<path class="st0" d="M182.57,37.7H6.5c-3.3,0-6-2.7-6-6V6.5c0-3.3,2.7-6,6-6h176.07c3.3,0,6,2.7,6,6v25.2
		C188.57,35,185.87,37.7,182.57,37.7z"/>
	<g>
		<g>
			<path class="st1" d="M50.33,18.78c0-3.66,0-7.15,4.78-7.15c2.95,0,4.14,1.63,4.03,4.6h-2.84c0-1.84-0.33-2.53-1.19-2.53
				c-1.63,0-1.84,1.53-1.84,5.08c0,3.55,0.21,5.08,1.84,5.08c1.34,0,1.29-1.73,1.32-2.82h2.86c0,3.7-1.48,4.89-4.18,4.89
				C50.33,25.94,50.33,22.41,50.33,18.78z"/>
			<path class="st1" d="M61.14,25.71V11.86h2.9V23.4h4.33v2.3H61.14z"/>
			<path class="st1" d="M69.63,25.71V11.86h2.9v13.85H69.63z"/>
			<path class="st1" d="M74.83,18.78c0-3.66,0-7.15,4.78-7.15c2.95,0,4.14,1.63,4.03,4.6H80.8c0-1.84-0.33-2.53-1.19-2.53
				c-1.63,0-1.84,1.53-1.84,5.08c0,3.55,0.21,5.08,1.84,5.08c1.34,0,1.29-1.73,1.32-2.82h2.86c0,3.7-1.48,4.89-4.18,4.89
				C74.83,25.94,74.83,22.41,74.83,18.78z"/>
			<path class="st1" d="M91.78,11.86h3.18l-3.88,6.21l3.88,7.63h-3.26l-3.32-7.1h-0.04v7.1h-2.9V11.86h2.9v5.93h0.04L91.78,11.86z"
				/>
			<path class="st1" d="M99.49,25.71l3.84-13.85h3.82l3.76,13.85h-3.05l-0.77-3.07h-3.95l-0.79,3.07H99.49z M105.07,14.52h-0.04
				l-1.32,5.98h2.76L105.07,14.52z"/>
			<path class="st1" d="M122.7,25.71h-4.08c-0.25,0-0.54,0.04-0.83,0.06c-0.29,0.04-0.58,0.08-0.84,0.08
				c-4.28,0-4.81-2.24-4.81-7.06c0-3.66,0-7.15,4.78-7.15c4.78,0,4.78,3.49,4.78,7.15c0,2.97-0.54,4.28-1.69,5.24l0.04,0.04
				c0.42-0.12,1.17-0.48,1.46-0.48h1.21V25.71z M118.75,18.78c0-3.55-0.21-5.08-1.84-5.08c-1.63,0-1.84,1.53-1.84,5.08
				c0,3.45,0.21,4.99,1.84,4.99C118.53,23.77,118.75,22.23,118.75,18.78z"/>
			<path class="st1" d="M133.34,11.86v9.82c0,2.07-1.17,4.26-4.7,4.26c-3.18,0-4.72-1.65-4.72-4.26v-9.82h2.9v9.63
				c0,1.71,0.73,2.38,1.78,2.38c1.27,0,1.84-0.84,1.84-2.38v-9.63H133.34z"/>
			<path class="st1" d="M139.82,7.7l-3.07,2.74h-1.25l1.73-2.74H139.82z M135.7,25.71V11.86h2.9v13.85H135.7z"/>
		</g>
	</g>
</g>
</svg>
