<?xml version="1.0" encoding="utf-8"?>
<!-- Generator: Adobe Illustrator 23.0.2, SVG Export Plug-In . SVG Version: 6.00 Build 0)  -->
<svg version="1.1" id="Capa_1" xmlns="http://www.w3.org/2000/svg" xmlns:xlink="http://www.w3.org/1999/xlink" x="0px" y="0px"
	 viewBox="0 0 78.47 38.44" style="enable-background:new 0 0 78.47 38.44;" xml:space="preserve">
<style type="text/css">
	.st0{fill:#FFFFFF;}
</style>
<g>
	<path class="st0" d="M60.16,5.75c0-0.72-0.58-1.31-1.31-1.31H19.62c-0.72,0-1.31,0.58-1.31,1.31v5.23c0,0.72,0.58,1.31,1.31,1.31
		v3.92c0,0.72,0.58,1.31,1.31,1.31v19.62c0,0.72,0.58,1.31,1.31,1.31h5.23c0.72,0,1.31-0.58,1.31-1.31V17.52h20.92v19.62
		c0,0.72,0.58,1.31,1.31,1.31h5.23c0.72,0,1.31-0.58,1.31-1.31V17.52c0.72,0,1.31-0.58,1.31-1.31v-3.92c0.72,0,1.31-0.58,1.31-1.31
		V5.75z M20.92,7.06h36.62v2.62H20.92V7.06z M26.16,35.83h-2.62V17.52h2.62V35.83z M54.93,35.83h-2.62V17.52h2.62V35.83z
		 M56.23,14.9H51H27.46h-5.23v-2.62h34V14.9z"/>
	<g>
		<g>
			<path class="st0" d="M5.23,4.58c0-0.72-0.59-1.31-1.31-1.31H2.62v16.86h2.62V4.58z"/>
			<path class="st0" d="M14.39,22.75H6.54H2.62v2.62h13.08v-1.31C15.69,23.33,15.11,22.75,14.39,22.75z"/>
			<path class="st0" d="M14.39,20.13H7.85V4.58c0-2.16-1.76-3.92-3.92-3.92H1.31C0.58,0.65,0,1.24,0,1.96v19.48v5.23v10.46
				c0,0.72,0.58,1.31,1.31,1.31s1.31-0.58,1.31-1.31v-2.59v-1.33V30.6v-0.88v-1.73h13.08v1.73v0.88v2.62v1.33v2.59
				c0,0.72,0.58,1.31,1.31,1.31c0.72,0,1.31-0.58,1.31-1.31V26.67v-2.62C18.31,21.89,16.55,20.13,14.39,20.13z M2.62,3.27h1.31
				c0.72,0,1.31,0.59,1.31,1.31v15.56H2.62V3.27z M15.69,25.36H2.62v-2.62h3.92h7.85c0.72,0,1.31,0.59,1.31,1.31V25.36z"/>
		</g>
	</g>
	<g>
		<g>
			<path class="st0" d="M64.08,22.75c-0.72,0-1.31,0.59-1.31,1.31v1.31h13.08v-2.62h-3.92H64.08z"/>
			<path class="st0" d="M77.16,0h-2.62c-2.16,0-3.92,1.76-3.92,3.92v16.21h-6.54c-2.16,0-3.92,1.76-3.92,3.92v2.62v10.46
				c0,0.72,0.58,1.31,1.31,1.31s1.31-0.58,1.31-1.31v-2.53v-1.4V30.6v-1.72v-0.9h13.08v0.9v1.72v2.62v1.4v2.53
				c0,0.72,0.58,1.31,1.31,1.31c0.72,0,1.31-0.58,1.31-1.31V26.67v-5.23V1.31C78.47,0.58,77.88,0,77.16,0z M75.85,25.36H62.77v-1.31
				c0-0.72,0.59-1.31,1.31-1.31h7.85h3.92V25.36z M75.85,20.13h-2.62V3.92c0-0.72,0.59-1.31,1.31-1.31h1.31V20.13z"/>
		</g>
	</g>
</g>
</svg>
