<?xml version="1.0" encoding="utf-8"?>
<!-- Generator: Adobe Illustrator 21.0.0, SVG Export Plug-In . SVG Version: 6.00 Build 0)  -->
<svg version="1.1" id="Capa_1" xmlns="http://www.w3.org/2000/svg" xmlns:xlink="http://www.w3.org/1999/xlink" x="0px" y="0px"
	 viewBox="0 0 454.1 46.2" style="enable-background:new 0 0 454.1 46.2;" xml:space="preserve">
<style type="text/css">
	.st0{fill:#FFBF09;}
	.st1{fill:#606060;}
</style>
<g>
	<g>
		<rect class="st0" width="234.5" height="46.2"/>
	</g>
	<g>
		<g>
			<path class="st1" d="M15.2,23.1c0-6.3,0-12.3,8.2-12.3c5.1,0,7.1,2.8,6.9,7.9h-4.9c0-3.2-0.6-4.4-2-4.4c-2.8,0-3.2,2.6-3.2,8.8
				s0.4,8.8,3.2,8.8c2.3,0,2.2-3,2.3-4.9h4.9c0,6.4-2.5,8.4-7.2,8.4C15.2,35.4,15.2,29.3,15.2,23.1z"/>
		</g>
		<g>
			<path class="st1" d="M33.6,23.1c0-6.3,0-12.3,8.2-12.3s8.2,6,8.2,12.3c0,6.2,0,12.3-8.2,12.3S33.6,29.3,33.6,23.1z M45,23.1
				c0-6.1-0.4-8.8-3.2-8.8c-2.8,0-3.2,2.6-3.2,8.8s0.4,8.8,3.2,8.8S45,29.2,45,23.1z"/>
		</g>
		<g>
			<path class="st1" d="M53.9,35V11.2h8l3.7,16.2h0.1l4-16.2h7.8V35h-4.8V16.6h-0.1L67.9,35h-4.8l-4.4-18.4h-0.1V35H53.9z"/>
		</g>
		<g>
			<path class="st1" d="M81.3,23.1c0-6.3,0-12.3,8.2-12.3s8.2,6,8.2,12.3c0,6.2,0,12.3-8.2,12.3S81.3,29.3,81.3,23.1z M92.7,23.1
				c0-6.1-0.4-8.8-3.2-8.8s-3.2,2.6-3.2,8.8s0.4,8.8,3.2,8.8C92.3,31.9,92.7,29.2,92.7,23.1z"/>
		</g>
		<g>
			<path class="st1" d="M108.8,23.1c0-6.3,0-12.3,8.2-12.3c5.1,0,7.1,2.8,6.9,7.9H119c0-3.2-0.6-4.4-2.1-4.4c-2.8,0-3.2,2.6-3.2,8.8
				s0.4,8.8,3.2,8.8c2.3,0,2.2-3,2.3-4.9h4.9c0,6.4-2.5,8.4-7.2,8.4C108.8,35.4,108.8,29.3,108.8,23.1z"/>
		</g>
		<g>
			<path class="st1" d="M143.5,11.2v16.9c0,3.6-2,7.3-8.1,7.3c-5.5,0-8.1-2.8-8.1-7.3V11.2h5v16.6c0,2.9,1.2,4.1,3.1,4.1
				c2.2,0,3.2-1.5,3.2-4.1V11.2H143.5z"/>
		</g>
		<g>
			<path class="st1" d="M147.5,35V11.2h5V35H147.5z"/>
		</g>
		<g>
			<path class="st1" d="M156.8,11.2h8.3c6.5,0,7.8,4.4,7.8,11.8c0,3.7,0.6,12-8,12h-8.1V11.2z M161.8,31.4h2.4c3,0,3.6-2.3,3.6-8.3
				c0-4.4,0-8.3-3.5-8.3h-2.6L161.8,31.4L161.8,31.4z"/>
		</g>
		<g>
			<path class="st1" d="M175.1,35l6.6-23.8h6.6l6.5,23.8h-5.2l-1.3-5.3h-6.8L180,35H175.1z M184.7,15.8L184.7,15.8l-2.4,10.3h4.8
				L184.7,15.8z"/>
		</g>
		<g>
			<path class="st1" d="M202,35h-5V11.2h9.2c3.4,0,5.6,2.2,5.6,6.2c0,3-1.2,5.3-4.4,5.8v0.1c1.1,0.1,4.3,0.4,4.3,4.7
				c0,1.5,0.1,6,0.6,7h-4.9c-0.7-1.5-0.5-3.1-0.5-4.6c0-2.8,0.3-5.2-3.6-5.2H202L202,35L202,35z M202,21.5h2.2c2,0,2.5-2,2.5-3.5
				c0-2.3-1-3.1-2.5-3.1H202V21.5z"/>
		</g>
	</g>
	<g>
		<g>
			<path class="st1" d="M260.6,11.2v4H255V35h-5V15.2h-5.6v-4H260.6z"/>
		</g>
		<g>
			<path class="st1" d="M279,11.2v16.9c0,3.6-2,7.3-8.1,7.3c-5.5,0-8.1-2.8-8.1-7.3V11.2h5v16.6c0,2.9,1.2,4.1,3.1,4.1
				c2.2,0,3.2-1.5,3.2-4.1V11.2H279z"/>
		</g>
		<g>
			<path class="st1" d="M289.5,35.4c-6.2,0-7.3-3.6-7.1-7.8h5c0,2.3,0.1,4.2,2.8,4.2c1.7,0,2.5-1.1,2.5-2.7c0-4.3-10-4.6-10-11.7
				c0-3.7,1.8-6.7,7.9-6.7c4.9,0,7.3,2.2,6.9,7.2h-4.9c0-1.8-0.3-3.6-2.3-3.6c-1.6,0-2.6,0.9-2.6,2.5c0,4.5,10,4.1,10,11.6
				C297.9,34.7,293.4,35.4,289.5,35.4z"/>
		</g>
		<g>
			<path class="st1" d="M308.7,35V11.2h8l3.7,16.2h0.1l4-16.2h7.8V35h-4.9V16.6h-0.1L322.7,35H318l-4.4-18.4h-0.1V35H308.7z"/>
		</g>
		<g>
			<path class="st1" d="M352.4,11.2v16.9c0,3.6-2,7.3-8.1,7.3c-5.5,0-8.1-2.8-8.1-7.3V11.2h5v16.6c0,2.9,1.2,4.1,3.1,4.1
				c2.2,0,3.2-1.5,3.2-4.1V11.2H352.4z"/>
		</g>
		<g>
			<path class="st1" d="M356.5,35V11.2h13v3.7h-8v5.9h7.4v3.7h-7.4v7h8.3V35H356.5z"/>
		</g>
		<g>
			<path class="st1" d="M373,35V11.2h8.9c3.8,0,6.9,1.1,6.9,6.2c0,2.7-1.4,4.7-4.1,5.2v0.1c3.5,0.5,4.5,2.8,4.5,6
				c0,6-5.2,6.3-7.4,6.3L373,35L373,35z M378,20.9h3.3c1.1,0,2.6-0.7,2.6-3c0-1.8-1.2-3-2.9-3H378L378,20.9L378,20.9z M378,31.4h2.8
				c1.1,0,3.4,0,3.4-3.4c0-2.1-0.8-3.4-3.3-3.4H378L378,31.4L378,31.4z"/>
		</g>
		<g>
			<path class="st1" d="M393.2,35V11.2h5v19.9h7.5v4H393.2z"/>
		</g>
		<g>
			<path class="st1" d="M407.8,35V11.2h13v3.7h-8v5.9h7.4v3.7h-7.4v7h8.3V35H407.8z"/>
		</g>
		<g>
			<path class="st1" d="M430.8,35.4c-6.2,0-7.3-3.6-7.1-7.8h5c0,2.3,0.1,4.2,2.8,4.2c1.7,0,2.5-1.1,2.5-2.7c0-4.3-10-4.6-10-11.7
				c0-3.7,1.8-6.7,7.9-6.7c4.9,0,7.3,2.2,6.9,7.2H434c0-1.8-0.3-3.6-2.3-3.6c-1.6,0-2.6,0.9-2.6,2.5c0,4.5,10,4.1,10,11.6
				C439.1,34.7,434.6,35.4,430.8,35.4z"/>
		</g>
	</g>
	<g>
		<path class="st1" d="M454.1,46.2H234V0h220.1V46.2z M235,45.2h218.1V1H235V45.2z"/>
	</g>
</g>
</svg>
