<?xml version="1.0" encoding="utf-8"?>
<!-- Generator: Adobe Illustrator 23.0.2, SVG Export Plug-In . SVG Version: 6.00 Build 0)  -->
<svg version="1.1" id="Capa_1" xmlns="http://www.w3.org/2000/svg" xmlns:xlink="http://www.w3.org/1999/xlink" x="0px" y="0px"
	 viewBox="0 0 59.39 62.2" style="enable-background:new 0 0 59.39 62.2;" xml:space="preserve">
<style type="text/css">
	.st0{fill:#606060;}
	.st1{fill:#EEBE2F;}
</style>
<g>
	<path class="st0" d="M57.92,33.86h-2.65c-1.12,0-2.23,0.56-2.93,1.47l-0.07,0.07c-0.63,0.84-1.67,2.23-3.14,3.56l-9.98-11.17h0.42
		c0.77,0.07,1.4-0.56,1.47-1.33c0-0.28-0.07-0.56-0.21-0.84C40.61,25.28,40.2,25,39.78,25l-3.56-0.14c-0.63,0-1.26,0.14-1.74,0.49
		c-0.91,0.63-3.14,2.3-5.37,4.47c-0.42,0.42-0.77,0.77-1.26,1.05c-1.12,0.84-2.58,0.98-3.84,0.56c-1.12-0.42-1.95-1.19-2.37-2.23
		c2.09-1.95,8.44-8.1,9.56-9.21c0.7-0.77,2.37-1.05,2.93-1.12h7.12l12.07-1.19l2.72-0.28c0.77-0.07,1.33-0.77,1.26-1.54
		c-0.07-0.77-0.77-1.33-1.54-1.26l-14.59,1.47h-7.19h-0.14c-0.35,0-3.07,0.28-4.75,1.95c-0.14,0.14-0.28,0.28-0.49,0.49
		c-0.63-0.14-1.26-0.21-1.95-0.21c-1.54,0-3.63,0-5.16,0c-1.12,0-2.3-0.07-3.42-0.21L4.26,16.7c-0.77-0.07-1.47,0.49-1.54,1.26
		c-0.07,0.77,0.49,1.47,1.26,1.54l13.82,1.4c1.26,0.14,2.44,0.21,3.7,0.21c1.33,0,3.07,0,4.47,0c-3,2.86-6.91,6.63-6.98,6.7
		l-0.49,0.49l0.14,0.77c0,0,0,0.07,0.07,0.28c0.63,2.16,2.16,3.91,4.33,4.68c0.77,0.28,1.54,0.42,2.37,0.42
		c1.4,0,2.86-0.42,4.05-1.26c0.56-0.35,1.05-0.84,1.61-1.33c1.74-1.74,3.49-3.07,4.47-3.84l12.7,14.17
		c0.49,1.19,0.42,2.16-0.14,2.79c-0.42,0.49-1.19,0.84-1.88,0.84c-0.42,0-0.77-0.07-0.98-0.28l-1.4-1.4c-0.56-0.56-1.4-0.56-1.95,0
		c-0.56,0.56-0.56,1.4,0,1.95l1.4,1.4c0.35,0.35,0.35,0.77,0.35,1.05c-0.07,0.56-0.35,1.05-0.77,1.54
		c-0.84,0.84-2.02,1.05-2.58,0.49l-1.47-1.4c-0.56-0.56-1.4-0.56-1.95,0c-0.56,0.56-0.56,1.4,0,1.95l1.4,1.4
		c0.35,0.35,0.42,0.77,0.35,1.05c0,0.49-0.28,0.98-0.7,1.4c-0.84,0.84-2.02,1.05-2.58,0.49l0,0l-1.47-1.47
		c-0.56-0.56-1.4-0.56-1.95,0c-0.56,0.56-0.56,1.47,0,1.95l1.33,1.33c0.56,0.84,0.35,1.12,0,1.54c-0.28,0.35-0.84,0.56-1.33,0.56
		c-0.28,0-0.56,0-0.77-0.14c0.21-0.49,0.28-1.05,0.28-1.54c0-1.95-1.26-3.56-3-4.19c-0.28-2.44-2.23-4.47-4.75-4.68
		c-0.28-2.44-2.23-4.4-4.75-4.68c-0.28-2.65-2.58-4.68-5.3-4.68c-0.14,0-0.35,0-0.49,0l-0.42-0.49c-0.63-0.7-1.54-1.12-2.51-1.12
		H1.4c-0.77,0-1.4,0.63-1.4,1.4c0,0.77,0.63,1.4,1.4,1.4h8.86c-1.19,0.98-1.95,2.44-1.95,4.05c0,2.72,2.09,4.95,4.82,5.23
		c0.28,2.44,2.23,4.4,4.75,4.68c0.28,2.44,2.3,4.4,4.82,4.68c0.63,1.74,2.3,2.93,4.26,2.93c0.91,0,1.81-0.28,2.51-0.77
		c0.7,0.49,1.47,0.77,2.44,0.77c0.07,0,0.14,0,0.28,0c1.33-0.07,2.58-0.7,3.35-1.61c0.56-0.7,0.84-1.4,0.91-2.09
		c1.26-0.07,2.51-0.56,3.56-1.61c0.91-0.91,1.47-2.02,1.54-3.21v-0.14c1.19-0.07,2.37-0.63,3.35-1.54c0.98-0.98,1.54-2.23,1.61-3.49
		c1.47-0.07,2.86-0.77,3.84-1.81c1.26-1.47,1.47-3.42,0.63-5.58c1.74-1.54,2.93-3.14,3.63-4.12l0.07-0.07
		c0.14-0.21,0.42-0.35,0.7-0.35h2.65c0.77,0,1.4-0.63,1.4-1.4C59.32,34.49,58.69,33.86,57.92,33.86z M27.01,59.47
		c-0.98,0-1.74-0.7-1.74-1.61c0-0.42-0.21-0.77-0.49-1.05c-0.28-0.21-0.56-0.35-0.91-0.35c-0.07,0-0.14,0-0.21,0
		c-0.14,0-0.28,0.07-0.35,0.07c-1.4,0-2.58-1.12-2.58-2.51c0-0.14,0-0.35,0.07-0.56c0.14-0.49,0-0.98-0.35-1.33
		c-0.35-0.35-0.84-0.49-1.33-0.35c-0.21,0.07-0.42,0.07-0.56,0.07c-1.4,0-2.58-1.12-2.58-2.44c0-0.14,0-0.35,0.07-0.56
		c0.14-0.49,0-0.98-0.35-1.33c-0.35-0.35-0.91-0.49-1.4-0.35c-0.21,0.07-0.42,0.07-0.56,0.07c-1.4,0-2.58-1.12-2.58-2.51
		s1.19-2.44,2.58-2.44s2.58,1.12,2.58,2.44c0,0.14,0,0.35-0.07,0.56c-0.14,0.49,0,0.98,0.35,1.33c0.35,0.35,0.84,0.49,1.33,0.35
		c0.21-0.07,0.42-0.07,0.63-0.07c1.4,0,2.58,1.12,2.58,2.51c0,0.14,0,0.35-0.07,0.56c-0.14,0.49,0,0.98,0.35,1.33
		c0.35,0.35,0.84,0.49,1.33,0.35c0.21-0.07,0.42-0.07,0.63-0.07c1.4,0,2.58,1.12,2.58,2.44c0,0.14,0,0.28-0.07,0.35l0,0
		c-0.07,0.42,0.07,0.77,0.28,1.12c0.21,0.35,0.63,0.49,1.05,0.49c0.98,0.07,1.67,0.77,1.67,1.67
		C28.75,58.71,27.98,59.47,27.01,59.47z"/>
	<path class="st1" d="M22.75,5.67l1.4,3.77c0.21,0.56,0.77,0.91,1.33,0.91c0.14,0,0.35,0,0.49-0.07c0.7-0.28,1.12-1.05,0.84-1.81
		l-1.4-3.77c-0.28-0.7-1.05-1.12-1.81-0.84C22.89,4.13,22.47,4.97,22.75,5.67z"/>
	<path class="st1" d="M13.4,12.79c0.28,0.49,0.7,0.7,1.19,0.7c0.21,0,0.49-0.07,0.7-0.21c0.7-0.35,0.91-1.26,0.56-1.88l-2.51-4.47
		c-0.35-0.7-1.26-0.91-1.88-0.56c-0.63,0.35-0.91,1.26-0.56,1.88L13.4,12.79z"/>
	<path class="st1" d="M33.29,10.28c0.14,0.07,0.35,0.07,0.49,0.07c0.56,0,1.12-0.35,1.33-0.91l2.72-7.54
		c0.28-0.7-0.14-1.54-0.84-1.81c-0.7-0.28-1.54,0.14-1.81,0.84l-2.72,7.54C32.17,9.16,32.52,10,33.29,10.28z"/>
	<path class="st1" d="M43.89,13.28c0.21,0.14,0.42,0.21,0.7,0.21c0.49,0,0.98-0.28,1.19-0.7l0.49-0.91c0.35-0.7,0.14-1.54-0.56-1.88
		c-0.7-0.35-1.54-0.14-1.88,0.56l-0.49,0.91C42.99,12.09,43.2,12.93,43.89,13.28z"/>
	<path class="st1" d="M22.68,2.81c0.77,0,1.4-0.63,1.4-1.4s-0.63-1.4-1.4-1.4l0,0c-0.77,0-1.4,0.63-1.4,1.4S21.91,2.81,22.68,2.81z"
		/>
	<path class="st1" d="M47.04,9.02c0.77,0,1.4-0.63,1.4-1.4c0-0.77-0.63-1.4-1.4-1.4l0,0c-0.77,0-1.4,0.63-1.4,1.4
		C45.64,8.39,46.27,9.02,47.04,9.02z"/>
</g>
</svg>
