<?xml version="1.0" encoding="utf-8"?>
<!-- Generator: Adobe Illustrator 23.0.2, SVG Export Plug-In . SVG Version: 6.00 Build 0)  -->
<svg version="1.1" id="Capa_1" xmlns="http://www.w3.org/2000/svg" xmlns:xlink="http://www.w3.org/1999/xlink" x="0px" y="0px"
	 viewBox="0 0 118.16 26.89" style="enable-background:new 0 0 118.16 26.89;" xml:space="preserve">
<style type="text/css">
	.st0{fill:#222221;}
	.st1{fill:#FFFFFF;}
</style>
<g>
	<rect class="st0" width="118.16" height="26.89"/>
	<g>
		<path class="st1" d="M26.44,12.52c0-2.49,0-4.87,3.25-4.87c2.01,0,2.82,1.11,2.74,3.13h-1.93c0-1.25-0.22-1.72-0.81-1.72
			c-1.11,0-1.25,1.04-1.25,3.46s0.14,3.46,1.25,3.46c0.91,0,0.88-1.18,0.9-1.92h1.95c0,2.52-1.01,3.33-2.85,3.33
			C26.44,17.39,26.44,14.99,26.44,12.52z"/>
		<path class="st1" d="M33.71,12.52c0-2.49,0-4.87,3.25-4.87c3.25,0,3.25,2.38,3.25,4.87c0,2.47,0,4.87-3.25,4.87
			C33.71,17.39,33.71,14.99,33.71,12.52z M38.21,12.52c0-2.42-0.14-3.46-1.25-3.46s-1.25,1.04-1.25,3.46s0.14,3.46,1.25,3.46
			S38.21,14.94,38.21,12.52z"/>
		<path class="st1" d="M41.8,17.24V7.8h2.66l2.51,6.53h0.03V7.8h1.84v9.43h-2.6l-2.57-6.9h-0.03v6.9H41.8z"/>
		<path class="st1" d="M56.11,7.8v1.57h-2.19v7.86h-1.97V9.37h-2.19V7.8H56.11z"/>
		<path class="st1" d="M55.53,17.24l2.61-9.43h2.6l2.56,9.43h-2.08l-0.52-2.09h-2.69l-0.54,2.09H55.53z M59.33,9.62H59.3l-0.9,4.08
			h1.88L59.33,9.62z"/>
		<path class="st1" d="M64.14,12.52c0-2.49,0-4.87,3.25-4.87c2.01,0,2.82,1.11,2.74,3.13H68.2c0-1.25-0.22-1.72-0.81-1.72
			c-1.11,0-1.25,1.04-1.25,3.46s0.14,3.46,1.25,3.46c0.91,0,0.88-1.18,0.9-1.92h1.95c0,2.52-1.01,3.33-2.85,3.33
			C64.14,17.39,64.14,14.99,64.14,12.52z"/>
		<path class="st1" d="M77.11,7.8v1.57h-2.19v7.86h-1.97V9.37h-2.19V7.8H77.11z"/>
		<path class="st1" d="M77.93,12.52c0-2.49,0-4.87,3.25-4.87c3.25,0,3.25,2.38,3.25,4.87c0,2.47,0,4.87-3.25,4.87
			C77.93,17.39,77.93,14.99,77.93,12.52z M82.44,12.52c0-2.42-0.14-3.46-1.25-3.46s-1.25,1.04-1.25,3.46s0.14,3.46,1.25,3.46
			S82.44,14.94,82.44,12.52z"/>
		<path class="st1" d="M88.57,17.39c-2.44,0-2.9-1.44-2.79-3.07h1.97c0,0.9,0.04,1.66,1.12,1.66c0.67,0,0.99-0.43,0.99-1.07
			c0-1.7-3.97-1.8-3.97-4.61c0-1.48,0.71-2.65,3.11-2.65c1.92,0,2.87,0.86,2.74,2.83h-1.92c0-0.71-0.12-1.42-0.91-1.42
			c-0.64,0-1.02,0.35-1.02,1.01c0,1.79,3.97,1.63,3.97,4.6C91.86,17.1,90.07,17.39,88.57,17.39z"/>
	</g>
</g>
</svg>
