<?xml version="1.0" encoding="utf-8"?>
<!-- Generator: Adobe Illustrator 21.0.0, SVG Export Plug-In . SVG Version: 6.00 Build 0)  -->
<svg version="1.1" id="Capa_1" xmlns="http://www.w3.org/2000/svg" xmlns:xlink="http://www.w3.org/1999/xlink" x="0px" y="0px"
	 viewBox="0 0 205.6 45.2" style="enable-background:new 0 0 205.6 45.2;" xml:space="preserve">
<style type="text/css">
	.st0{fill:#FFBF09;}
	.st1{fill:#606060;}
</style>
<rect class="st0" width="205.6" height="45.2"/>
<g>
	<path class="st1" d="M20.1,22.6c0-6.3,0-12.3,8.2-12.3c5.1,0,7.1,2.8,6.9,7.9h-4.9c0-3.2-0.6-4.4-2-4.4c-2.8,0-3.2,2.6-3.2,8.7
		s0.4,8.8,3.2,8.8c2.3,0,2.2-3,2.3-4.8h4.9c0,6.4-2.5,8.4-7.2,8.4C20.1,34.9,20.1,28.8,20.1,22.6z"/>
	<path class="st1" d="M38.5,22.6c0-6.3,0-12.3,8.2-12.3s8.2,6,8.2,12.3c0,6.2,0,12.3-8.2,12.3S38.5,28.8,38.5,22.6z M49.9,22.6
		c0-6.1-0.4-8.8-3.2-8.8c-2.8,0-3.2,2.6-3.2,8.8s0.4,8.8,3.2,8.8S49.9,28.7,49.9,22.6z"/>
	<path class="st1" d="M58.9,34.5V10.7h6.7L72,27.2h0.1V10.7h4.7v23.8h-6.6l-6.5-17.4h-0.1v17.4H58.9z"/>
	<path class="st1" d="M95.1,10.7v4h-5.6v19.9h-5V14.6H79v-4H95.1z"/>
	<path class="st1" d="M93.6,34.5l6.6-23.8h6.6l6.5,23.8H108l-1.3-5.3h-6.8l-1.3,5.3H93.6z M103.2,15.3L103.2,15.3l-2.3,10.3h4.8
		L103.2,15.3z"/>
	<path class="st1" d="M115.4,22.6c0-6.3,0-12.3,8.2-12.3c5.1,0,7.1,2.8,6.9,7.9h-4.9c0-3.2-0.6-4.4-2.1-4.4c-2.8,0-3.2,2.6-3.2,8.7
		s0.4,8.8,3.2,8.8c2.3,0,2.2-3,2.3-4.8h4.9c0,6.4-2.5,8.4-7.2,8.4C115.4,34.9,115.4,28.8,115.4,22.6z"/>
	<path class="st1" d="M148.2,10.7v4h-5.6v19.9h-5V14.6h-5.6v-4H148.2z"/>
	<path class="st1" d="M150.3,22.6c0-6.3,0-12.3,8.2-12.3s8.2,6,8.2,12.3c0,6.2,0,12.3-8.2,12.3S150.3,28.8,150.3,22.6z M161.7,22.6
		c0-6.1-0.4-8.8-3.2-8.8s-3.2,2.6-3.2,8.8s0.4,8.8,3.2,8.8C161.3,31.4,161.7,28.7,161.7,22.6z"/>
	<path class="st1" d="M177.1,34.9c-6.2,0-7.3-3.6-7.1-7.8h5c0,2.3,0.1,4.2,2.8,4.2c1.7,0,2.5-1.1,2.5-2.7c0-4.3-10-4.6-10-11.6
		c0-3.7,1.8-6.7,7.9-6.7c4.9,0,7.3,2.2,6.9,7.2h-4.9c0-1.8-0.3-3.6-2.3-3.6c-1.6,0-2.6,0.9-2.6,2.5c0,4.5,10,4.1,10,11.6
		C185.5,34.2,180.9,34.9,177.1,34.9z"/>
</g>
</svg>
