<?xml version="1.0" encoding="utf-8"?>
<!-- Generator: Adobe Illustrator 22.0.0, SVG Export Plug-In . SVG Version: 6.00 Build 0)  -->
<svg version="1.1" id="Layer_1" xmlns="http://www.w3.org/2000/svg" xmlns:xlink="http://www.w3.org/1999/xlink" x="0px" y="0px"
	 viewBox="0 0 51.3 51.3" style="enable-background:new 0 0 51.3 51.3;" xml:space="preserve">
<style type="text/css">
	.st0{fill:#FFFFFF;}
</style>
<g>
	<path d="M48.8,51.3H2.5c-1.4,0-2.5-1.1-2.5-2.5L0,2.5C0,1.1,1.1,0,2.5,0l46.3,0c1.4,0,2.5,1.1,2.5,2.5v46.3
		C51.3,50.2,50.2,51.3,48.8,51.3z"/>
	<g transform="translate(0,-952.36218)">
		<path class="st0" d="M20.4,967.9c-1.5,0-3,0.6-4.1,1.8c-2.2,2.4-2.2,6.2,0,8.7l8.9,9.6c0.2,0.3,0.6,0.3,0.9,0c0,0,0,0,0,0
			c3-3.2,6-6.4,8.9-9.6c2.2-2.4,2.2-6.2,0-8.7c-2.2-2.4-6-2.4-8.2,0l-1.2,1.3l-1.2-1.3C23.3,968.5,21.9,967.9,20.4,967.9L20.4,967.9
			z M20.4,969.1c1.1,0,2.3,0.5,3.2,1.4l1.7,1.8c0.2,0.3,0.6,0.3,0.9,0c0,0,0,0,0,0l1.7-1.8c1.8-1.9,4.6-1.9,6.3,0
			c1.8,1.9,1.8,5,0,6.9c-2.8,3-5.6,6-8.5,9.1l-8.5-9.1c-1.8-1.9-1.8-5,0-6.9C18.1,969.6,19.2,969.1,20.4,969.1z"/>
	</g>
</g>
</svg>
