<?xml version="1.0" encoding="utf-8"?>
<!-- Generator: Adobe Illustrator 23.0.2, SVG Export Plug-In . SVG Version: 6.00 Build 0)  -->
<svg version="1.1" id="Capa_1" xmlns="http://www.w3.org/2000/svg" xmlns:xlink="http://www.w3.org/1999/xlink" x="0px" y="0px"
	 viewBox="0 0 42.92 39.19" style="enable-background:new 0 0 42.92 39.19;" xml:space="preserve">
<style type="text/css">
	.st0{fill:#FFFFFF;}
</style>
<g transform="translate(0,-952.36218)">
	<path class="st0" d="M11.21,952.36c-2.88,0-5.77,1.17-7.95,3.5c-4.35,4.66-4.35,12.09,0,16.76l17.29,18.54
		c0.47,0.49,1.24,0.51,1.73,0.05c0.02-0.02,0.03-0.03,0.05-0.05c5.77-6.17,11.54-12.35,17.31-18.52c4.35-4.66,4.35-12.1,0-16.76
		c-4.35-4.66-11.54-4.66-15.9,0l-2.3,2.45l-2.3-2.47C16.98,953.54,14.1,952.36,11.21,952.36L11.21,952.36z M11.21,954.76
		c2.21,0,4.42,0.93,6.15,2.78l3.22,3.43c0.47,0.49,1.24,0.51,1.73,0.05c0.02-0.02,0.03-0.03,0.05-0.05l3.2-3.41
		c3.46-3.7,8.84-3.7,12.3,0c3.46,3.7,3.46,9.72,0,13.43c-5.47,5.85-10.92,11.71-16.39,17.56L5.06,970.96
		c-3.46-3.71-3.46-9.72,0-13.43C6.79,955.68,9,954.76,11.21,954.76z"/>
</g>
</svg>
