<?xml version="1.0" encoding="utf-8"?>
<!-- Generator: Adobe Illustrator 23.0.2, SVG Export Plug-In . SVG Version: 6.00 Build 0)  -->
<svg version="1.1" id="Capa_1" xmlns="http://www.w3.org/2000/svg" xmlns:xlink="http://www.w3.org/1999/xlink" x="0px" y="0px"
	 viewBox="0 0 58.7 55.15" style="enable-background:new 0 0 58.7 55.15;" xml:space="preserve">
<style type="text/css">
	.st0{fill:#FFFFFF;}
</style>
<g>
	<path class="st0" d="M54.67,17.85c0-0.52-0.42-0.94-0.94-0.94H4.97c-0.52,0-0.94,0.42-0.94,0.94v32.27c0,0.52,0.42,0.94,0.94,0.94
		h48.76c0.52,0,0.94-0.42,0.94-0.94V17.85z M5.91,18.79h46.77v30.4H5.91V18.79z"/>
	<path class="st0" d="M57.75,12.94H42.66L30.01,0.27c-0.37-0.36-0.96-0.36-1.32,0.01c0,0,0,0,0,0L16.04,12.94H0.95
		C0.44,12.94,0,13.32,0,13.83V54.2c0.01,0.52,0.43,0.95,0.95,0.95h56.8c0.52-0.01,0.95-0.43,0.95-0.95V13.83
		C58.7,13.32,58.27,12.94,57.75,12.94z M29.35,2.27l10.66,10.66H18.69L29.35,2.27z M56.83,53.28H1.87V14.81h54.96V53.28z"/>
	<path class="st0" d="M34.6,26.5v-1.99h0.82c0.52,0,0.94-0.42,0.94-0.94v-2.81c0-0.52-0.42-0.94-0.94-0.94H23.14
		c-0.52,0-0.94,0.42-0.94,0.94v2.81c0,0.52,0.42,0.94,0.94,0.94h0.82v1.99c-2.9,1.96-4.69,5.44-4.69,9.22c0,3.67,1.84,7.22,4.72,9.2
		l0,2.4c0,0.52,0.42,0.93,0.94,0.93h8.85c0.52,0,0.94-0.42,0.94-0.94V45c2.88-1.87,4.72-5.46,4.72-9.26
		C39.43,32.05,37.55,28.49,34.6,26.5z M21.14,35.9c0.33,0.17,0.69,0.26,1.06,0.25c1,0,1.53-0.56,1.88-0.92
		c0.29-0.3,0.35-0.34,0.52-0.34c0.18,0,0.23,0.04,0.52,0.34c0.35,0.37,0.88,0.92,1.88,0.92s1.53-0.56,1.88-0.92
		c0.29-0.3,0.35-0.34,0.52-0.34s0.23,0.04,0.52,0.34c0.35,0.37,0.88,0.92,1.88,0.92s1.53-0.56,1.88-0.92
		c0.29-0.3,0.35-0.34,0.52-0.34c0.18,0,0.23,0.04,0.52,0.34c0.35,0.37,0.88,0.92,1.88,0.92c0.33,0,0.66-0.07,0.96-0.2
		c-0.01,0.72-0.11,1.43-0.27,2.13H21.44C21.26,37.37,21.16,36.63,21.14,35.9z M37.12,33.94c-0.29,0.3-0.35,0.34-0.52,0.34
		c-0.18,0-0.23-0.04-0.52-0.34c-0.35-0.37-0.88-0.92-1.88-0.92c-1,0-1.53,0.56-1.88,0.92c-0.29,0.3-0.35,0.34-0.52,0.34
		c-0.18,0-0.23-0.04-0.52-0.34c-0.35-0.37-0.88-0.92-1.88-0.92s-1.53,0.56-1.88,0.92c-0.29,0.3-0.35,0.34-0.52,0.34
		c-0.18,0-0.23-0.04-0.52-0.34c-0.35-0.37-0.88-0.92-1.88-0.92s-1.53,0.56-1.88,0.92c-0.29,0.3-0.35,0.34-0.52,0.34
		c-0.18,0-0.23-0.04-0.52-0.34c-0.09-0.1-0.2-0.21-0.32-0.32c0.18-0.85,0.48-1.67,0.88-2.44h14.14c0.44,0.8,0.76,1.65,0.96,2.54
		C37.26,33.79,37.19,33.87,37.12,33.94z M24.08,21.71h10.41v0.94h-0.82c-0.52,0-0.94,0.42-0.94,0.94v0.7h-6.9v-0.7
		c0-0.52-0.42-0.94-0.94-0.94h-0.82V21.71z M25.37,27.82c0.28-0.17,0.46-0.47,0.46-0.8v-0.86h6.9v0.86c0,0.33,0.17,0.63,0.46,0.8
		c0.68,0.41,1.3,0.91,1.84,1.49H23.55C24.08,28.73,24.7,28.23,25.37,27.82z M33.63,43.47c-0.45,0.07-0.78,0.47-0.78,0.92v1.99h-6.98
		l0-1.97c0-0.33-0.17-0.63-0.45-0.8c-1.42-0.89-2.55-2.16-3.28-3.67h14.5C35.95,41.42,34.91,42.66,33.63,43.47z"/>
</g>
</svg>
