<?xml version="1.0" encoding="utf-8"?>
<!-- Generator: Adobe Illustrator 23.0.2, SVG Export Plug-In . SVG Version: 6.00 Build 0)  -->
<svg version="1.1" id="Capa_1" xmlns="http://www.w3.org/2000/svg" xmlns:xlink="http://www.w3.org/1999/xlink" x="0px" y="0px"
	 viewBox="0 0 58.78 58.59" style="enable-background:new 0 0 58.78 58.59;" xml:space="preserve">
<style type="text/css">
	.st0{fill:#606060;}
	.st1{fill:#EEBE2F;}
</style>
<g>
	<path class="st0" d="M57.13,48c-0.01-0.05-0.03-0.1-0.05-0.14c-0.01-0.02-0.01-0.04-0.02-0.06c-0.04-0.1-0.1-0.18-0.17-0.26
		c0-0.01-0.01-0.01-0.01-0.02L37.23,27.88l6.45-6.45c3.65,1.2,7.67,0.24,10.38-2.48c2.96-2.95,3.82-7.41,2.16-11.24l0-0.01
		l-0.01-0.02c-0.04-0.09-0.1-0.18-0.17-0.25c-0.01-0.01-0.01-0.02-0.02-0.03C56.02,7.4,56.01,7.39,56,7.39
		c-0.08-0.07-0.17-0.13-0.26-0.17c-0.02-0.01-0.03-0.01-0.05-0.02c-0.04-0.02-0.09-0.03-0.14-0.04c-0.04-0.01-0.09-0.01-0.13-0.01
		c-0.02,0-0.04,0-0.06,0c-0.1,0-0.2,0.02-0.29,0.06C55.05,7.21,55.03,7.22,55,7.23c-0.1,0.04-0.19,0.1-0.27,0.18l-5.3,5.3
		l-2.55-0.41l-0.95-3.2l5.25-5.25c0.08-0.08,0.14-0.17,0.18-0.27c0.01-0.02,0.02-0.04,0.03-0.06c0.04-0.1,0.06-0.2,0.06-0.3
		c0-0.02,0-0.04,0-0.05c0-0.05,0-0.09-0.01-0.14c-0.01-0.05-0.03-0.09-0.04-0.14c-0.01-0.02-0.01-0.03-0.02-0.05
		c-0.04-0.1-0.1-0.19-0.17-0.26c-0.01-0.01-0.01-0.02-0.02-0.03c-0.01-0.01-0.02-0.01-0.03-0.02c-0.07-0.07-0.16-0.13-0.25-0.17
		l-0.02-0.01l-0.01,0c-5.17-2.23-11.17,0.16-13.39,5.33c-0.98,2.28-1.1,4.85-0.32,7.21l-6.45,6.45L9.62,0.27
		c-0.36-0.36-0.93-0.36-1.29,0c0,0,0,0,0,0L0.92,7.68c-0.36,0.36-0.36,0.93,0,1.29c0,0,0,0,0,0L22,30.06l-8.63,8.63
		c-5.35-1.76-11.11,1.16-12.86,6.51c-0.78,2.36-0.66,4.93,0.32,7.21l0,0.01l0.01,0.02c0.04,0.09,0.1,0.18,0.17,0.25
		c0.01,0.01,0.01,0.02,0.02,0.03c0.01,0.01,0.02,0.01,0.03,0.02c0.08,0.07,0.17,0.13,0.26,0.17c0.02,0.01,0.03,0.01,0.05,0.02
		c0.04,0.02,0.09,0.03,0.14,0.04c0.04,0.01,0.09,0.01,0.13,0.01c0.02,0,0.04,0,0.06,0c0.1,0,0.2-0.02,0.29-0.06
		c0.02-0.01,0.04-0.02,0.06-0.03c0.1-0.04,0.19-0.1,0.27-0.18l5.3-5.3l2.55,0.41l0.95,3.2l-5.25,5.25
		c-0.08,0.08-0.14,0.17-0.18,0.27c-0.01,0.02-0.02,0.04-0.03,0.06c-0.04,0.09-0.05,0.19-0.06,0.3c0,0.02,0,0.04,0,0.06
		c0,0.04,0,0.09,0.01,0.13c0.01,0.05,0.03,0.09,0.04,0.14c0.01,0.02,0.01,0.03,0.02,0.05c0.04,0.1,0.1,0.19,0.17,0.26
		c0.01,0.01,0.01,0.02,0.02,0.03c0.01,0.01,0.02,0.01,0.03,0.02c0.07,0.07,0.16,0.13,0.25,0.17l0.01,0.01l0.01,0
		c1.28,0.55,2.66,0.84,4.05,0.84c5.63-0.01,10.19-4.59,10.18-10.22c0-1.07-0.17-2.14-0.51-3.16l8.63-8.63l19.64,19.64
		c0.01,0.01,0.01,0.01,0.02,0.01c0.08,0.07,0.17,0.13,0.26,0.17c0.02,0.01,0.05,0.02,0.07,0.02c0.04,0.02,0.08,0.03,0.13,0.04
		l9.05,1.64c0.05,0.01,0.11,0.01,0.16,0.01c0.5,0,0.91-0.41,0.91-0.91c0-0.05,0-0.11-0.01-0.16L57.13,48z M40.92,5.8
		C43,3.72,46.01,2.88,48.86,3.6l-4.6,4.6c-0.24,0.24-0.32,0.58-0.23,0.9l1.27,4.27c0.1,0.34,0.38,0.58,0.73,0.64l3.57,0.58
		c0.05,0.01,0.1,0.01,0.15,0.01c0.1-0.02,0.2-0.04,0.3-0.06c0.13-0.04,0.24-0.11,0.34-0.21l4.6-4.6c1.11,4.5-1.64,9.04-6.13,10.15
		c-4.5,1.11-9.04-1.64-10.15-6.13C38.01,10.89,38.85,7.88,40.92,5.8L40.92,5.8z M37.94,16.7c0.91,1.66,2.28,3.03,3.95,3.95
		l-5.95,5.95L32,22.64L37.94,16.7z M54.94,48.17l-2.42,2.42L12.6,10.66l2.42-2.42L54.94,48.17z M2.85,8.32L8.97,2.2l4.75,4.75
		l-3.06,3.06l0,0l0,0L7.6,13.08L2.85,8.32z M16.13,54.31c-2.07,2.08-5.08,2.92-7.93,2.21l4.6-4.6c0.24-0.24,0.32-0.58,0.23-0.9
		l-1.27-4.27c-0.1-0.34-0.38-0.58-0.73-0.64l-3.57-0.58c-0.29-0.05-0.58,0.05-0.79,0.26l-4.6,4.6c-1.11-4.5,1.64-9.04,6.14-10.14
		s9.04,1.64,10.14,6.14C19.05,49.23,18.21,52.24,16.13,54.31L16.13,54.31z M19.12,43.42c-0.92-1.66-2.29-3.03-3.95-3.94l8.13-8.13
		l3.95,3.95L19.12,43.42z M8.89,14.36l2.42-2.42l39.93,39.93l-2.42,2.42L8.89,14.36z M50.69,54.99l2.48-2.48l2.48-2.48l1.09,6.04
		L50.69,54.99z"/>
	<polygon class="st1" points="11.3,11.95 51.23,51.88 52.74,50.38 12.63,10.68 	"/>
</g>
</svg>
