<?xml version="1.0" encoding="utf-8"?>
<!-- Generator: Adobe Illustrator 23.0.2, SVG Export Plug-In . SVG Version: 6.00 Build 0)  -->
<svg version="1.1" id="Capa_1" xmlns="http://www.w3.org/2000/svg" xmlns:xlink="http://www.w3.org/1999/xlink" x="0px" y="0px"
	 viewBox="0 0 60.54 56.51" style="enable-background:new 0 0 60.54 56.51;" xml:space="preserve">
<style type="text/css">
	.st0{fill:#606060;}
</style>
<g>
	<path class="st0" d="M57.51,30.58V16.14c0-0.56-0.45-1.01-1.01-1.01c-3.34,0-6.05-2.71-6.05-6.05c0-0.56-0.45-1.01-1.01-1.01h-1.05
		c-3.09-0.05-5.95-1.62-7.65-4.19C39.04,1.45,36.26,0,33.3,0h-6.05c-2.97,0-5.74,1.45-7.45,3.88c-1.7,2.57-4.56,4.14-7.65,4.19H11.1
		c-0.56,0-1.01,0.45-1.01,1.01c0,3.34-2.71,6.05-6.05,6.05c-0.56,0-1.01,0.45-1.01,1.01v14.44C1.1,32.3,0,34.76,0,37.33v12.11
		c0,0.56,0.45,1.01,1.01,1.01h2.02v5.05c0,0.56,0.45,1.01,1.01,1.01h3.03c0.49,0,0.91-0.36,0.99-0.84l0.87-5.21h42.69l0.87,5.21
		c0.08,0.49,0.5,0.84,0.99,0.84h3.03c0.56,0,1.01-0.45,1.01-1.01v-5.05h2.02c0.56,0,1.01-0.45,1.01-1.01V37.33
		C60.54,34.76,59.44,32.3,57.51,30.58z M5.05,17.09c3.66-0.47,6.53-3.35,7-7h0.1c3.74-0.05,7.23-1.94,9.3-5.05
		c1.32-1.89,3.49-3.02,5.79-3.02h6.05c2.31,0,4.47,1.13,5.79,3.02c2.08,3.12,5.56,5.01,9.3,5.05h0.1c0.47,3.66,3.35,6.53,7,7v12.12
		c-0.64-0.32-1.32-0.56-2.02-0.72v-9.06c0-0.41-0.25-0.79-0.64-0.94c-2.69-1.06-4.8-3.21-5.8-5.92c-0.12-0.34-0.42-0.58-0.77-0.64
		c-3.58-0.67-6.76-2.73-8.83-5.73c-0.95-1.35-2.49-2.15-4.14-2.16h-6.05c-1.65,0-3.19,0.81-4.14,2.16c-2.07,3-5.25,5.06-8.83,5.73
		c-0.35,0.06-0.65,0.31-0.77,0.64c-1,2.71-3.11,4.86-5.8,5.92c-0.39,0.15-0.64,0.52-0.64,0.94v9.06c-0.7,0.16-1.38,0.4-2.02,0.72
		V17.09z M35.32,27.24v-4.04c0-0.56,0.45-1.01,1.01-1.01h8.07c0.56,0,1.01,0.45,1.01,1.01v4.04c0,0.56-0.45,1.01-1.01,1.01h-8.07
		C35.77,28.25,35.32,27.8,35.32,27.24z M44.4,20.18h-8.07c-1.67,0-3.03,1.36-3.03,3.03v4.04c0,0.34,0.07,0.69,0.19,1.01h-6.43
		c0.12-0.32,0.18-0.66,0.19-1.01v-4.04c0-1.67-1.36-3.03-3.03-3.03h-8.07c-1.67,0-3.03,1.36-3.03,3.03v4.04
		c0,0.34,0.07,0.69,0.19,1.01H9.08v-8.16c2.74-1.27,4.92-3.51,6.1-6.29c3.89-0.87,7.31-3.18,9.58-6.45c0.57-0.81,1.49-1.29,2.48-1.3
		h6.05c0.99,0,1.92,0.48,2.48,1.3c2.27,3.28,5.69,5.58,9.58,6.45c1.18,2.78,3.36,5.02,6.1,6.29v8.16h-4.22
		c0.12-0.32,0.18-0.66,0.19-1.01v-4.04C47.42,21.54,46.07,20.18,44.4,20.18z M15.14,27.24v-4.04c0-0.56,0.45-1.01,1.01-1.01h8.07
		c0.56,0,1.01,0.45,1.01,1.01v4.04c0,0.56-0.45,1.01-1.01,1.01h-8.07C15.59,28.25,15.14,27.8,15.14,27.24z M9.08,30.27h42.38
		c3.51,0,6.49,2.58,6.99,6.05H2.09C2.6,32.85,5.57,30.27,9.08,30.27z M6.21,54.49H5.05v-4.04h1.84L6.21,54.49z M55.5,54.49h-1.16
		l-0.67-4.04h1.84V54.49z M58.52,48.43H2.02V38.34h56.51V48.43z"/>
	<polygon class="st0" points="31.28,9.08 29.26,9.08 29.26,10.09 28.25,10.09 28.25,12.11 29.26,12.11 29.26,13.12 31.28,13.12 
		31.28,12.11 32.29,12.11 32.29,10.09 31.28,10.09 	"/>
	<polygon class="st0" points="31.28,17.15 29.26,17.15 29.26,18.16 28.25,18.16 28.25,20.18 29.26,20.18 29.26,21.19 31.28,21.19 
		31.28,20.18 32.29,20.18 32.29,18.16 31.28,18.16 	"/>
	<polygon class="st0" points="41.37,14.13 39.35,14.13 39.35,15.14 38.34,15.14 38.34,17.15 39.35,17.15 39.35,18.16 41.37,18.16 
		41.37,17.15 42.38,17.15 42.38,15.14 41.37,15.14 	"/>
	<polygon class="st0" points="21.19,14.13 19.17,14.13 19.17,15.14 18.16,15.14 18.16,17.15 19.17,17.15 19.17,18.16 21.19,18.16 
		21.19,17.15 22.2,17.15 22.2,15.14 21.19,15.14 	"/>
</g>
</svg>
