<?xml version="1.0" encoding="utf-8"?>
<!-- Generator: Adobe Illustrator 21.0.0, SVG Export Plug-In . SVG Version: 6.00 Build 0)  -->
<svg version="1.1" id="Capa_1" xmlns="http://www.w3.org/2000/svg" xmlns:xlink="http://www.w3.org/1999/xlink" x="0px" y="0px"
	 viewBox="0 0 277.1 36.1" style="enable-background:new 0 0 277.1 36.1;" xml:space="preserve">
<style type="text/css">
	.st0{fill:#FFBF09;}
	.st1{fill:#4B4B49;}
</style>
<path class="st0" d="M275.9,36.1H1.3c-0.7,0-1.3-0.6-1.3-1.3V1.3C0,0.6,0.6,0,1.3,0h274.6c0.7,0,1.3,0.6,1.3,1.3v33.6
	C277.1,35.6,276.6,36.1,275.9,36.1z"/>
<g>
	<path class="st1" d="M118.8,13.9h4.3v1.5h-2.6v1.9h2.2v1.5h-2.2v2h2.7v1.5h-4.4L118.8,13.9L118.8,13.9z"/>
	<path class="st1" d="M126.2,16.6v5.6h-1.7v-8.3h1.7l3.6,5.7v-5.7h1.6v8.3h-1.7L126.2,16.6z"/>
	<path class="st1" d="M135.4,22.2l-3.1-8.3h1.8l2.1,6.4l2.1-6.4h1.8l-3.1,8.3H135.4z"/>
	<path class="st1" d="M141.1,13.9h1.7v8.3h-1.7V13.9z"/>
	<path class="st1" d="M146.1,20.1l-0.7,2.1h-1.7l2.9-8.3h1.8l2.9,8.3h-1.7l-0.7-2.1H146.1z M147.5,15.7l-1,3h1.9L147.5,15.7z"/>
	<path class="st1" d="M152.3,13.9h2.5c1.8,0,2.8,1.1,2.8,2.5c0,1-0.5,1.8-1.3,2.2l2,3.6h-1.9l-1.6-3.3h-0.9v3.3h-1.7L152.3,13.9
		L152.3,13.9z M154.7,17.6c0.6,0,1.1-0.4,1.1-1.1c0-0.7-0.5-1.1-1.2-1.1h-0.7v2.2H154.7z"/>
</g>
</svg>
