<?xml version="1.0" encoding="utf-8"?>
<!-- Generator: Adobe Illustrator 23.0.2, SVG Export Plug-In . SVG Version: 6.00 Build 0)  -->
<svg version="1.1" id="Capa_1" xmlns="http://www.w3.org/2000/svg" xmlns:xlink="http://www.w3.org/1999/xlink" x="0px" y="0px"
	 viewBox="0 0 56.2 56.2" style="enable-background:new 0 0 56.2 56.2;" xml:space="preserve">
<style type="text/css">
	.st0{fill:#FFFFFF;}
</style>
<g>
	<path class="st0" d="M55.26,24.35h-2.98c0.11-0.3,0.17-0.62,0.17-0.94v-3.75c0-0.52-0.42-0.94-0.94-0.94H45.9
		c-0.52,0-0.94,0.42-0.94,0.94v3.75c0,0.32,0.06,0.64,0.17,0.94h-8.6v-0.94c0-1.55-1.26-2.81-2.81-2.81h-0.94v-1.87h6.56
		c1.55,0,2.81-1.26,2.81-2.81V2.81c0-1.55-1.26-2.81-2.81-2.81H16.86c-1.55,0-2.81,1.26-2.81,2.81v13.11c0,1.55,1.26,2.81,2.81,2.81
		h6.56v1.87h-0.94c-1.55,0-2.81,1.26-2.81,2.81v0.94h-7.49V12.18c0-0.52-0.42-0.94-0.94-0.94H7.49c-0.52,0-0.94,0.42-0.94,0.94v0.94
		H3.75c-0.52,0-0.94,0.42-0.94,0.94v10.3H0.94C0.42,24.35,0,24.77,0,25.29v3.75c0,0.52,0.42,0.94,0.94,0.94h2.81v25.29
		c0,0.52,0.42,0.94,0.94,0.94h3.75c0.52,0,0.94-0.42,0.94-0.94v-17.8h37.47v17.8c0,0.52,0.42,0.94,0.94,0.94h3.75
		c0.52,0,0.94-0.42,0.94-0.94V29.97h2.81c0.52,0,0.94-0.42,0.94-0.94v-3.75C56.2,24.77,55.78,24.35,55.26,24.35z M46.83,20.61h3.75
		v2.81c0,0.52-0.42,0.94-0.94,0.94h-1.87c-0.52,0-0.94-0.42-0.94-0.94V20.61z M15.92,2.81c0-0.52,0.42-0.94,0.94-0.94h22.48
		c0.52,0,0.94,0.42,0.94,0.94v10.3H15.92V2.81z M16.86,16.86c-0.52,0-0.94-0.42-0.94-0.94v-0.94h24.35v0.94
		c0,0.52-0.42,0.94-0.94,0.94H16.86z M30.91,18.73v1.87h-5.62v-1.87H30.91z M21.54,23.42c0-0.52,0.42-0.94,0.94-0.94h11.24
		c0.52,0,0.94,0.42,0.94,0.94v0.94H21.54V23.42z M8.43,13.11h1.87v7.49H8.43V13.11z M8.43,22.48h1.87v1.87H8.43V22.48z M4.68,14.99
		h1.87v5.62H4.68V14.99z M4.68,22.48h1.87v1.87H4.68V22.48z M7.49,54.33H5.62V29.97h1.87V54.33z M46.83,35.59H9.37v-5.62h13.11v0.94
		c0,1.55,1.26,2.81,2.81,2.81h5.62c1.55,0,2.81-1.26,2.81-2.81v-0.94h13.11V35.59z M24.35,30.91v-0.94h7.49v0.94
		c0,0.52-0.42,0.94-0.94,0.94h-5.62C24.77,31.85,24.35,31.43,24.35,30.91z M50.58,54.33h-1.87V29.97h1.87V54.33z M54.33,28.1H1.87
		v-1.87h52.45V28.1z"/>
	<path class="st0" d="M48.55,14.57c0.73-0.96,1.11-2.13,1.09-3.33h-1.87c0.02,0.83-0.26,1.64-0.78,2.29
		c-0.73,0.96-1.11,2.13-1.09,3.33h1.87C47.75,16.03,48.03,15.22,48.55,14.57z"/>
	<path class="st0" d="M51.52,16.86c-0.02-0.83,0.26-1.64,0.78-2.29c0.73-0.96,1.11-2.13,1.09-3.33h-1.87
		c0.02,0.83-0.26,1.64-0.78,2.29c-0.73,0.96-1.11,2.13-1.09,3.33H51.52z"/>
</g>
</svg>
