<?xml version="1.0" encoding="utf-8"?>
<!-- Generator: Adobe Illustrator 23.0.2, SVG Export Plug-In . SVG Version: 6.00 Build 0)  -->
<svg version="1.1" id="Capa_1" xmlns="http://www.w3.org/2000/svg" xmlns:xlink="http://www.w3.org/1999/xlink" x="0px" y="0px"
	 viewBox="0 0 33.96 70.1" style="enable-background:new 0 0 33.96 70.1;" xml:space="preserve">
<style type="text/css">
	.st0{fill:#FFFFFF;}
</style>
<g>
	<path class="st0" d="M32.42,49.11H1.46v-6.66h30.96L32.42,49.11L32.42,49.11z M3.42,47.15h27.04V44.4H3.42V47.15z"/>
	<path class="st0" d="M28.64,70.1H5.24L3.58,47.15h26.71L28.64,70.1z M7.08,68.14h19.74l1.37-19.04H5.71L7.08,68.14z"/>
	<rect x="15.96" y="12.09" class="st0" width="1.96" height="31.33"/>
	<path class="st0" d="M7.64,36.84c-1.68,0-3.25-0.64-4.45-1.82C0.9,32.76,0.17,24.97,0.08,24.1L0,22.96l1.15,0.08
		c0.87,0.06,8.65,0.73,10.95,3l0,0c1.2,1.18,1.88,2.77,1.88,4.45c0,1.68-0.64,3.28-1.82,4.48C10.97,36.17,9.38,36.84,7.64,36.84
		C7.67,36.84,7.67,36.84,7.64,36.84z M2.18,25.11c0.36,3.08,1.23,7.36,2.41,8.51c0.81,0.81,1.9,1.26,3.08,1.26c0,0,0,0,0.03,0
		c1.18,0,2.27-0.48,3.08-1.29c0.81-0.84,1.26-1.93,1.26-3.08c0-1.18-0.48-2.27-1.29-3.08l0,0C9.55,26.26,5.26,25.45,2.18,25.11z"/>
	
		<rect x="11.76" y="29.63" transform="matrix(0.7041 -0.7101 0.7101 0.7041 -21.4858 19.5671)" class="st0" width="1.96" height="11.87"/>
	<path class="st0" d="M26.4,28.98c-1.68,0-3.25-0.64-4.45-1.82c-1.2-1.18-1.88-2.77-1.88-4.45s0.64-3.28,1.82-4.48
		c2.27-2.3,10.05-3.02,10.92-3.11l1.15-0.11l-0.08,1.15c-0.06,0.87-0.73,8.65-3,10.95C29.7,28.3,28.11,28.98,26.4,28.98
		C26.43,28.98,26.4,28.98,26.4,28.98z M31.83,17.19c-3.08,0.36-7.36,1.23-8.51,2.41c-0.81,0.84-1.26,1.93-1.26,3.08
		s0.48,2.27,1.29,3.08c0.81,0.81,1.9,1.26,3.08,1.26c0,0,0,0,0.03,0c1.18,0,2.27-0.48,3.08-1.29l0,0
		C30.66,24.55,31.5,20.27,31.83,17.19z"/>
	<path class="st0" d="M16.94,17.08c-1.68,0-3.25-0.64-4.45-1.82c-1.2-1.18-1.88-2.77-1.88-4.45c0-3.22,4.96-9.24,5.52-9.91L16.88,0
		l0.76,0.87c0.56,0.67,5.6,6.64,5.6,9.85C23.27,14.19,20.44,17.05,16.94,17.08C16.97,17.08,16.94,17.08,16.94,17.08z M16.91,3.05
		c-1.93,2.44-4.34,6.08-4.34,7.73c0,1.18,0.48,2.27,1.29,3.08c0.84,0.81,1.9,1.26,3.08,1.26c2.41,0,4.34-1.99,4.34-4.37
		C21.28,9.07,18.84,5.46,16.91,3.05z"/>
	
		<rect x="15.44" y="26.77" transform="matrix(0.7041 -0.7101 0.7101 0.7041 -13.3808 23.3886)" class="st0" width="11.87" height="1.96"/>
</g>
</svg>
