<?xml version="1.0" encoding="utf-8"?>
<!-- Generator: Adobe Illustrator 22.0.0, SVG Export Plug-In . SVG Version: 6.00 Build 0)  -->
<svg version="1.1" id="Layer_1" xmlns="http://www.w3.org/2000/svg" xmlns:xlink="http://www.w3.org/1999/xlink" x="0px" y="0px"
	 viewBox="0 0 29.4 55.9" style="enable-background:new 0 0 29.4 55.9;" xml:space="preserve">
<style type="text/css">
	.st0{fill:#FFFFFF;}
</style>
<path class="st0" d="M22.1,0c1.5,0,3,0.1,4.5,0.1c1,0,1.9,0.2,2.9,0.3l-0.1,9c-0.3,0-0.5,0-0.7,0c-1,0-2,0-3,0c-0.7,0-1.5,0-2.2,0
	c-2.4,0.1-4.1,1-4.3,4c-0.1,2.1-0.1,6.9-0.1,7.1c0.1,0,2.5,0,4.9,0c1.2,0,2.3,0,3.2,0c0.6,0,1.2,0,1.9,0c-0.5,3.5-0.9,6.8-1.4,10.1
	H19l-0.2,25.3H8.4l0.2-25.3H0l0.1-10.1h8.6l0-0.8c0-2,0-4.1,0.1-6.1c0-1.3,0.1-2.6,0.3-3.9c0.6-3.1,2-5.7,4.6-7.5
	c2.3-1.6,4.8-2.3,7.6-2.3C21.5,0,21.8,0,22.1,0z"/>
</svg>
