<?xml version="1.0" encoding="utf-8"?>
<!-- Generator: Adobe Illustrator 23.0.2, SVG Export Plug-In . SVG Version: 6.00 Build 0)  -->
<svg version="1.1" id="Capa_1" xmlns="http://www.w3.org/2000/svg" xmlns:xlink="http://www.w3.org/1999/xlink" x="0px" y="0px"
	 viewBox="0 0 20.15 38.31" style="enable-background:new 0 0 20.15 38.31;" xml:space="preserve">
<style type="text/css">
	.st0{fill:#606060;}
</style>
<path class="st0" d="M15.11,0c1.02,0,2.06,0.06,3.08,0.1c0.67,0.03,1.33,0.12,1.96,0.19L20.1,6.46c-0.19,0-0.34,0-0.49,0
	c-0.68,0-1.35-0.01-2.03-0.01c-0.51,0-1.02,0-1.52,0.02c-1.63,0.05-2.84,0.67-2.92,2.71c-0.05,1.47-0.09,4.72-0.09,4.89
	c0.09,0,1.7,0.01,3.33,0.01c0.81,0,1.61,0,2.16-0.01c0.42,0,0.84,0,1.32,0c-0.33,2.37-0.63,4.64-0.97,6.93h-5.84l-0.13,17.31H5.74
	l0.13-17.34H0l0.05-6.89h5.9l0-0.52C5.96,12.18,5.95,10.79,6,9.4c0.02-0.87,0.07-1.77,0.22-2.64c0.4-2.11,1.38-3.88,3.14-5.15
	c1.55-1.1,3.31-1.57,5.17-1.61C14.73,0,14.92,0,15.11,0z"/>
</svg>
