<?xml version="1.0" encoding="utf-8"?>
<!-- Generator: Adobe Illustrator 22.0.0, SVG Export Plug-In . SVG Version: 6.00 Build 0)  -->
<svg version="1.1" id="Layer_1" xmlns="http://www.w3.org/2000/svg" xmlns:xlink="http://www.w3.org/1999/xlink" x="0px" y="0px"
	 viewBox="0 0 201 216.1" style="enable-background:new 0 0 201 216.1;" xml:space="preserve">
<style type="text/css">
	.st0{fill:#FFBF09;}
	.st1{fill:#606060;stroke:#606060;stroke-width:2;stroke-miterlimit:10;}
	.st2{fill:none;stroke:#606060;stroke-width:6;stroke-linecap:round;stroke-miterlimit:10;}
</style>
<path class="st0" d="M158.2,106.2c0-33.7-26-61-58-61s-58,27.3-58,61c0,23.6,12.8,44.1,31.5,54.2l4.1,19.2l-5.2,6.2l14,19.6
	l13.6,4.6l19.2-7.6l4-12.4l5.6-13.8v-17l0-0.1C146.4,148.6,158.2,128.9,158.2,106.2z"/>
<path class="st1" d="M120.8,184.2H79.6c-4.4,0-8.2-3.6-8.2-8.2v-6.8c0-4.4-2.2-8.6-5.8-11c-18.2-12-29-32.2-28.6-54
	c0.4-16.4,7-31.8,18.6-43.4c11.8-11.6,27.2-18.2,43.6-18.4c17-0.2,33.2,6.2,45.2,18.2c12.2,12,18.8,28,18.8,45
	c0,21.2-10.6,41-28.4,52.8c-3.8,2.4-6,6.6-6,11v7C129,180.6,125.4,184.2,120.8,184.2z M100.2,46.8c-0.2,0-0.6,0-0.8,0
	C68.2,47.2,42.2,73,41.6,104.2c-0.4,20.2,9.6,39,26.6,50.2c5,3.2,8,8.8,8,14.8v7c0,2,1.6,3.6,3.6,3.6H121c2,0,3.6-1.6,3.6-3.6v-7
	c0-6,3-11.6,8-14.8c16.6-10.8,26.4-29.2,26.4-49c0-15.8-6.2-30.6-17.4-41.8C130.4,52.8,115.8,46.8,100.2,46.8z"/>
<path class="st1" d="M100.2,210c-14,0-25.8-10.4-27.8-24.2c-0.2-1.6,0.2-3,1.2-4.2s2.4-1.8,4-1.8h44.8c1.6,0,3,0.6,4,1.8
	s1.4,2.8,1.2,4.2C126.2,199.6,114.2,210,100.2,210z M77.8,184.2c-0.4,0-0.4,0.2-0.6,0.2c0,0.2-0.2,0.4-0.2,0.6
	c1.6,11.6,11.6,20.2,23.2,20.2s21.6-8.6,23.2-20.2c0-0.4-0.2-0.6-0.2-0.6s-0.2-0.2-0.6-0.2H77.8z"/>
<path class="st1" d="M100.8,31.6c-1.2,0-2.2-1-2.2-2.2V8c0-1.2,1-2.2,2.2-2.2s2.2,1,2.2,2.2v21.4C103.2,30.6,102.2,31.6,100.8,31.6z
	"/>
<path class="st1" d="M122.8,35.6c-0.2,0-0.4,0-0.8-0.2c-1.2-0.4-1.8-1.6-1.4-2.8l6.8-20.4c0.4-1.2,1.6-1.8,2.8-1.4
	c1.2,0.4,1.8,1.6,1.4,2.8L124.8,34C124.6,35,123.8,35.6,122.8,35.6z"/>
<path class="st1" d="M142.4,45c-0.4,0-0.8-0.2-1.2-0.4c-1-0.6-1.4-2-0.6-3.2l11.6-18c0.6-1,2-1.4,3.2-0.6c1,0.6,1.4,2,0.6,3.2
	l-11.6,18C144,44.8,143.2,45,142.4,45z"/>
<path class="st1" d="M157.2,59.8c-0.6,0-1.2-0.2-1.6-0.8c-0.8-1-0.8-2.4,0.2-3.2l15.8-14.4c1-0.8,2.4-0.8,3.2,0.2s0.8,2.4-0.2,3.2
	l-15.8,14.4C158.4,59.6,157.8,59.8,157.2,59.8z"/>
<path class="st1" d="M29.8,111.6c-0.6,0-1-0.4-1.2-1c-0.6-4.8-0.6-9.6,0-14.6c0-0.6,0.6-1,1.2-1c0.6,0,1,0.6,1,1.2
	c-0.6,4.6-0.6,9.4,0,14C31,111,30.6,111.6,29.8,111.6C30,111.6,29.8,111.6,29.8,111.6z"/>
<path class="st1" d="M32,86.6c-0.2,0-0.2,0-0.4,0c-0.6-0.2-1-0.8-0.8-1.4c1.6-5.2,3.8-10.4,6.6-15.4c0.4-0.4,1-0.6,1.6-0.4
	c0.6,0.4,0.8,1,0.4,1.6c-2.8,4.8-4.8,9.8-6.4,14.8C33,86.4,32.6,86.6,32,86.6z"/>
<path class="st1" d="M43.8,63.8c-0.2,0-0.4,0-0.6-0.2c-0.6-0.4-0.6-1-0.2-1.6c3.2-4.6,5.8-7.2,6-7.2c0.4-0.4,1.2-0.4,1.6,0
	c0.4,0.4,0.4,1.2,0,1.6c0,0-2.6,2.6-5.6,7C44.6,63.6,44.2,63.8,43.8,63.8z"/>
<path class="st2" d="M118.6,59.8c0,0,33,13.6,29.6,52"/>
</svg>
