<?xml version="1.0" encoding="utf-8"?>
<!-- Generator: Adobe Illustrator 21.0.0, SVG Export Plug-In . SVG Version: 6.00 Build 0)  -->
<svg version="1.1" id="Capa_1" xmlns="http://www.w3.org/2000/svg" xmlns:xlink="http://www.w3.org/1999/xlink" x="0px" y="0px"
	 viewBox="0 0 355.3 46.2" style="enable-background:new 0 0 355.3 46.2;" xml:space="preserve">
<style type="text/css">
	.st0{fill:#FFBF09;}
	.st1{fill:#606060;}
</style>
<g>
	<g>
		<rect class="st0" width="189" height="46.2"/>
	</g>
	<g>
		<path class="st1" d="M20.9,20.7v-9.5h5V35h-5V24.4h-5.7V35h-5V11.2h5v9.5L20.9,20.7L20.9,20.7z"/>
		<path class="st1" d="M30,23.1c0-6.3,0-12.3,8.2-12.3s8.2,6,8.2,12.3c0,6.2,0,12.3-8.2,12.3S30,29.3,30,23.1z M41.4,23.1
			c0-6.1-0.4-8.8-3.2-8.8c-2.8,0-3.2,2.6-3.2,8.8s0.4,8.8,3.2,8.8C41,31.9,41.4,29.2,41.4,23.1z"/>
		<path class="st1" d="M55.3,35h-5V11.2h9.2c3.4,0,5.6,2.2,5.6,6.2c0,3-1.2,5.3-4.4,5.8v0.1c1.1,0.1,4.3,0.4,4.3,4.7
			c0,1.5,0.1,6,0.6,7h-4.9c-0.7-1.5-0.5-3.1-0.5-4.6c0-2.8,0.3-5.2-3.6-5.2h-1.3L55.3,35L55.3,35z M55.3,21.5h2.2c2,0,2.5-2,2.5-3.5
			c0-2.3-1-3.1-2.5-3.1h-2.2V21.5z"/>
		<path class="st1" d="M67,35l6.6-23.8h6.6L86.6,35h-5.2l-1.3-5.3h-6.8L71.9,35H67z M76.6,15.8L76.6,15.8l-2.3,10.3H79L76.6,15.8z"
			/>
		<path class="st1" d="M93.9,35h-5V11.2h9.2c3.4,0,5.6,2.2,5.6,6.2c0,3-1.2,5.3-4.4,5.8v0.1c1.1,0.1,4.3,0.4,4.3,4.7
			c0,1.5,0.1,6,0.6,7h-4.9c-0.7-1.5-0.5-3.1-0.5-4.6c0-2.8,0.3-5.2-3.6-5.2h-1.3L93.9,35L93.9,35z M93.9,21.5h2.2c2,0,2.5-2,2.5-3.5
			c0-2.3-1-3.1-2.5-3.1h-2.2V21.5z"/>
		<path class="st1" d="M107.3,35V11.2h5V35H107.3z"/>
		<path class="st1" d="M116.3,23.1c0-6.3,0-12.3,8.2-12.3s8.2,6,8.2,12.3c0,6.2,0,12.3-8.2,12.3S116.3,29.3,116.3,23.1z M127.7,23.1
			c0-6.1-0.4-8.8-3.2-8.8s-3.2,2.6-3.2,8.8s0.4,8.8,3.2,8.8S127.7,29.2,127.7,23.1z"/>
		<path class="st1" d="M144.1,11.2h8.3c6.5,0,7.8,4.4,7.8,11.8c0,3.7,0.6,12-8,12h-8.1V11.2z M149.1,31.4h2.4c3,0,3.6-2.3,3.6-8.3
			c0-4.4,0-8.3-3.5-8.3h-2.6L149.1,31.4L149.1,31.4z"/>
		<path class="st1" d="M164.2,35V11.2h13v3.7h-8v5.9h7.4v3.7h-7.4v7h8.3V35H164.2z"/>
	</g>
	<g>
		<path class="st1" d="M197.1,34.6l6.6-23.8h6.6l6.5,23.8h-5.2l-1.3-5.3h-6.8l-1.4,5.3H197.1z M206.7,15.4L206.7,15.4l-2.4,10.3h4.8
			L206.7,15.4z"/>
		<path class="st1" d="M231.3,10.8v4h-5.6v19.9h-5V14.8h-5.6v-4H231.3z"/>
		<path class="st1" d="M233.6,34.6V10.8h13v3.7h-8v5.9h7.4V24h-7.4v7h8.3v3.7H233.6z"/>
		<path class="st1" d="M250.2,34.6V10.8h6.7l6.3,16.5h0.1V10.8h4.7v23.8h-6.6l-6.5-17.4h-0.1v17.4H250.2z"/>
		<path class="st1" d="M272,22.7c0-6.3,0-12.3,8.2-12.3c5.1,0,7.1,2.8,6.9,7.9h-4.9c0-3.2-0.6-4.4-2-4.4c-2.8,0-3.2,2.6-3.2,8.8
			s0.4,8.8,3.2,8.8c2.3,0,2.2-3,2.3-4.9h4.9c0,6.4-2.5,8.4-7.2,8.4C272,35,272,28.9,272,22.7z"/>
		<path class="st1" d="M290.5,34.6V10.8h5v23.8H290.5z"/>
		<path class="st1" d="M299.5,22.7c0-6.3,0-12.3,8.2-12.3s8.2,6,8.2,12.3c0,6.2,0,12.3-8.2,12.3S299.5,28.9,299.5,22.7z M310.9,22.7
			c0-6.1-0.4-8.8-3.2-8.8s-3.2,2.6-3.2,8.8s0.4,8.8,3.2,8.8S310.9,28.8,310.9,22.7z M312.3,3.6L307,8.3h-2.1l3-4.7
			C307.9,3.6,312.3,3.6,312.3,3.6z"/>
		<path class="st1" d="M319.9,34.6V10.8h6.7l6.3,16.5h0.1V10.8h4.7v23.8h-6.6l-6.5-17.4h-0.1v17.4H319.9z"/>
	</g>
	<g>
		<path class="st1" d="M355.3,46.2H188.5V0h166.8V46.2z M189.5,45.2h164.8V1H189.5V45.2z"/>
	</g>
</g>
</svg>
