<?xml version="1.0" encoding="utf-8"?>
<!-- Generator: Adobe Illustrator 23.0.2, SVG Export Plug-In . SVG Version: 6.00 Build 0)  -->
<svg version="1.1" id="Capa_1" xmlns="http://www.w3.org/2000/svg" xmlns:xlink="http://www.w3.org/1999/xlink" x="0px" y="0px"
	 viewBox="0 0 15.2 28.8" style="enable-background:new 0 0 15.2 28.8;" xml:space="preserve">
<style type="text/css">
	.st0{fill:#606060;}
</style>
<path class="st0" d="M11.4,0c0.8,0,1.6,0,2.3,0.1c0.5,0,1,0.1,1.5,0.1l0,4.6c-0.1,0-0.3,0-0.4,0c-0.5,0-1,0-1.5,0
	c-0.4,0-0.8,0-1.1,0c-1.2,0-2.1,0.5-2.2,2c0,1.1-0.1,3.6-0.1,3.7c0.1,0,1.3,0,2.5,0c0.6,0,1.2,0,1.6,0c0.3,0,0.6,0,1,0
	c-0.2,1.8-0.5,3.5-0.7,5.2H9.8l-0.1,13H4.3l0.1-13H0l0-5.2h4.4v-0.4c0-1,0-2.1,0-3.1c0-0.7,0.1-1.3,0.2-2C5,3.5,5.7,2.2,7,1.2
	C8.2,0.4,9.5,0,10.9,0C11.1,0,11.2,0,11.4,0z"/>
</svg>
