<?xml version="1.0" encoding="utf-8"?>
<!-- Generator: Adobe Illustrator 23.0.2, SVG Export Plug-In . SVG Version: 6.00 Build 0)  -->
<svg version="1.1" id="Capa_1" xmlns="http://www.w3.org/2000/svg" xmlns:xlink="http://www.w3.org/1999/xlink" x="0px" y="0px"
	 viewBox="0 0 98.09 101.7" style="enable-background:new 0 0 98.09 101.7;" xml:space="preserve">
<style type="text/css">
	.st0{fill:#EEBE2F;}
	.st1{fill:none;}
	.st2{fill:#606060;}
</style>
<g>
	<circle class="st0" cx="27.13" cy="53.11" r="1.81"/>
	<circle class="st0" cx="70.97" cy="53.11" r="1.81"/>
	<g>
		<rect x="7.36" y="60.69" class="st1" width="83.38" height="25.74"/>
		<rect x="7.36" y="49.14" class="st1" width="39.88" height="7.94"/>
		<rect x="50.86" y="49.14" class="st1" width="39.88" height="7.94"/>
		<rect x="70.9" y="42.11" class="st1" width="15.85" height="3.42"/>
		<path class="st2" d="M72.83,6.37l1.81,1.45C74.09,7.29,73.48,6.8,72.83,6.37z"/>
		<path class="st2" d="M90.37,45.53v-7.04H81.6L93.23,9.45l-0.17-0.07L93.22,9L70.76,0l-0.67,1.68l-0.16-0.07l-1.18,2.95l3.99,1.74
			c-0.21-0.14-0.41-0.27-0.63-0.4l0.51-1.27l16.08,6.44L77.71,38.49H67.28v7.04H3.74H0v3.62h3.74v11.55v41.01h3.62V90.05h83.38
			v11.65h3.62V60.69V49.14h3.74v-3.62h-3.74H90.37z M70.9,42.11h15.85v3.42H70.9V42.11z M7.36,49.14h39.88v7.94H7.36V49.14z
			 M90.74,86.44H7.36V60.69h83.38V86.44L90.74,86.44L90.74,86.44z M90.74,57.08H50.86v-7.94h39.88V57.08z"/>
		<path class="st2" d="M72.78,6.33l-0.05-0.02c0.03,0.02,0.07,0.04,0.1,0.07L72.78,6.33z"/>
		<path class="st0" d="M65.61,4.17c-4.66,0-9.01,2.51-11.35,6.54l-1.05,1.81l24.63,9.86l0.49-2.03c1.12-4.62-0.42-9.38-3.69-12.53
			l-1.81-1.45c-0.03-0.02-0.07-0.04-0.1-0.07l-3.99-1.74C67.72,4.31,66.67,4.17,65.61,4.17z M75.08,17.38L58.67,10.8
			c2.58-2.76,6.84-3.79,10.46-2.34C72.8,9.94,75.12,13.55,75.08,17.38z"/>
	</g>
</g>
</svg>
