<?xml version="1.0" encoding="utf-8"?>
<!-- Generator: Adobe Illustrator 23.0.2, SVG Export Plug-In . SVG Version: 6.00 Build 0)  -->
<svg version="1.1" id="Capa_1" xmlns="http://www.w3.org/2000/svg" xmlns:xlink="http://www.w3.org/1999/xlink" x="0px" y="0px"
	 viewBox="0 0 58.13 57.33" style="enable-background:new 0 0 58.13 57.33;" xml:space="preserve">
<style type="text/css">
	.st0{fill:#606060;}
</style>
<path class="st0" d="M48.82,9.5C48.31,4.18,43.81,0,38.35,0c-4.16,0-7.75,2.43-9.46,5.95C27.18,2.44,23.58,0,19.42,0
	C13.97,0,9.47,4.18,8.95,9.5c-4.68,0.48-8.41,4.19-8.91,8.86H0v1.06v1.06v2.99h4c0.51,2.84,2.99,5.01,5.97,5.01s5.46-2.16,5.97-5.01
	h4v-2.99v-1.06v-1.06h-0.05c-0.49-4.64-4.17-8.32-8.78-8.85c0.5-4.16,4.04-7.39,8.33-7.39c4.64,0,8.4,3.77,8.4,8.4v44.68h-3.41v2.12
	h8.94v-2.12h-3.41V10.51c0-4.64,3.77-8.4,8.4-8.4c4.3,0,7.84,3.25,8.34,7.4c-4.63,0.52-8.3,4.21-8.78,8.85h-0.05v1.06v1.06v2.99
	h4.16c0.51,2.84,2.99,5.01,5.97,5.01s5.47-2.16,5.97-5.01h4.16v-5.11h-0.38C57.23,13.7,53.5,9.97,48.82,9.5z M9.97,26.36
	c-1.8,0-3.32-1.23-3.79-2.89h7.57C13.29,25.13,11.79,26.36,9.97,26.36z M17.83,21.35H2.12v-0.87h15.7v0.87H17.83z M17.76,18.35H2.2
	c0.52-3.83,3.81-6.79,7.78-6.79C13.95,11.56,17.24,14.52,17.76,18.35z M47.97,26.36c-1.8,0-3.32-1.23-3.79-2.89h7.57
	C51.29,25.13,49.78,26.36,47.97,26.36z M55.99,21.35H39.96v-0.87h16.03V21.35z M40.04,18.36c0.52-3.83,3.81-6.79,7.78-6.79
	s7.26,2.96,7.78,6.79H40.04z"/>
</svg>
