<?xml version="1.0" encoding="utf-8"?>
<!-- Generator: Adobe Illustrator 21.0.0, SVG Export Plug-In . SVG Version: 6.00 Build 0)  -->
<svg version="1.1" id="Capa_1" xmlns="http://www.w3.org/2000/svg" xmlns:xlink="http://www.w3.org/1999/xlink" x="0px" y="0px"
	 viewBox="0 0 33.9 33.9" style="enable-background:new 0 0 33.9 33.9;" xml:space="preserve">
<style type="text/css">
	.st0{fill:#606060;}
</style>
<g>
	<path class="st0" d="M25.6,6.2C25.7,6.2,25.7,6.2,25.6,6.2c1.1,0,2,0.9,2,2c0,1.1-0.9,2-2,2c-1.1,0-2-0.9-2-2
		C23.6,7.1,24.5,6.2,25.6,6.2z"/>
	<path class="st0" d="M33.7,8.5c0.2,2.7,0.4,15.3-0.4,18.2c-1,3.9-3.6,6.2-7.5,6.8c-1.5,0.2-5.4,0.4-9.4,0.4c-4,0-8.1-0.2-9.4-0.5
		c-3.8-1-6.1-3.5-6.8-7.4C-0.1,23.2-0.2,9.9,0.6,7C1.7,3.2,4.2,1,8,0.4C9.8,0.1,13.1,0,16.5,0c3.2,0,6.4,0.1,8.3,0.2
		c2.3,0.1,4.5,0.9,6.2,2.5C32.7,4.3,33.5,6.3,33.7,8.5z M30.4,25.5c0.5-3,0.5-13.9,0.2-16.7c-0.3-3-2.1-4.9-5.1-5.4
		c-1.5-0.2-5-0.3-8.5-0.3c-3.4,0-6.7,0.1-8.2,0.2c-3,0.3-4.9,2.2-5.4,5.1C3,11.6,3,23.2,3.3,25.6c0.4,2.4,1.8,4.1,4.2,4.8
		c1.3,0.4,5.3,0.5,9.1,0.5c3.6,0,7-0.1,8.4-0.3C28,30.3,30,28.4,30.4,25.5"/>
	<path class="st0" d="M17,8.3c4.8,0,8.7,3.9,8.6,8.7c0,4.8-4,8.7-8.8,8.7S8.2,21.8,8.3,17C8.3,12.2,12.2,8.3,17,8.3z M16.9,22.6
		c3.1,0,5.6-2.5,5.7-5.6c0-3.1-2.4-5.6-5.5-5.7c0,0,0,0,0,0c-3.1,0-5.6,2.5-5.7,5.6C11.3,20,13.7,22.6,16.9,22.6
		C16.9,22.6,16.9,22.6,16.9,22.6"/>
</g>
</svg>
