<?xml version="1.0" encoding="utf-8"?>
<!-- Generator: Adobe Illustrator 22.0.0, SVG Export Plug-In . SVG Version: 6.00 Build 0)  -->
<svg version="1.1" id="Layer_1" xmlns="http://www.w3.org/2000/svg" xmlns:xlink="http://www.w3.org/1999/xlink" x="0px" y="0px"
	 viewBox="0 0 49.5 49.5" style="enable-background:new 0 0 49.5 49.5;" xml:space="preserve">
<style type="text/css">
	.st0{fill:#FFFFFF;}
</style>
<g>
	<path class="st0" d="M24.8,21.8C24.8,21.8,24.8,21.8,24.8,21.8c1.7,0,3,1.3,3,3c0,1.6-1.4,3-3,3c-1.6,0-3-1.4-2.9-3
		C21.8,23.1,23.1,21.8,24.8,21.8z"/>
	<path class="st0" d="M49.2,12.4c0.4,3.9,0.6,22.3-0.5,26.6c-1.5,5.6-5.2,9-10.9,9.9c-2.1,0.3-7.9,0.6-13.7,0.6
		c-5.9,0-11.8-0.2-13.8-0.7c-5.6-1.5-9-5.1-9.9-10.8c-0.7-4.2-0.7-23.6,0.5-27.8c1.6-5.5,5.2-8.7,10.8-9.6C14.2,0.1,19.2,0,24.1,0
		c4.6,0,9.3,0.1,12.1,0.3c3.4,0.2,6.5,1.3,9,3.7C47.7,6.3,48.9,9.2,49.2,12.4z M44.5,37.2c0.7-4.4,0.7-20.2,0.3-24.3
		c-0.4-4.4-3.1-7.2-7.4-7.9C35.2,4.6,30.1,4.5,25,4.5c-4.9,0-9.8,0.1-12,0.4C8.7,5.3,5.8,8,5.1,12.3c-0.7,4.6-0.7,21.6-0.2,25
		c0.5,3.6,2.6,6,6.1,7c1.9,0.5,7.7,0.7,13.3,0.7c5.2,0,10.3-0.2,12.2-0.4C40.9,44.2,43.8,41.5,44.5,37.2"/>
	<path class="st0" d="M24.9,12.1c7,0,12.6,5.7,12.6,12.7c-0.1,7-5.8,12.7-12.8,12.7c-7,0-12.6-5.7-12.6-12.7
		C12.1,17.7,17.8,12,24.9,12.1z M24.7,33c4.5,0,8.2-3.6,8.3-8.1c0.1-4.6-3.5-8.2-8.1-8.3c0,0,0,0-0.1,0c-4.5,0-8.2,3.6-8.3,8.1
		C16.5,29.2,20.1,32.9,24.7,33C24.6,33,24.7,33,24.7,33"/>
</g>
</svg>
