<?xml version="1.0" encoding="utf-8"?>
<!-- Generator: Adobe Illustrator 21.0.0, SVG Export Plug-In . SVG Version: 6.00 Build 0)  -->
<svg version="1.1" id="Capa_1" xmlns="http://www.w3.org/2000/svg" xmlns:xlink="http://www.w3.org/1999/xlink" x="0px" y="0px"
	 viewBox="0 0 601.1 549.6" style="enable-background:new 0 0 601.1 549.6;" xml:space="preserve">
<style type="text/css">
	.st0{fill:#EEBE2F;}
	.st1{fill:#606060;}
	.st2{fill:#FFFFFF;}
	.st3{fill:#DBA728;}
	.st4{fill:#DAA628;stroke:#FFFFFF;stroke-miterlimit:10;}
</style>
<g>
	<polygon class="st0" points="567.8,0 452,296.7 544.6,296.7 432.9,549.6 0,549.6 0,0 	"/>
	<g>
		<path class="st1" d="M99.3,185.5v-60.7H112v50.6h19v10.1H99.3z"/>
		<path class="st1" d="M136,155.1c0-16.1,0-31.4,20.9-31.4s20.9,15.3,20.9,31.4c0,15.9,0,31.4-20.9,31.4S136,171,136,155.1z
			 M165,155.1c0-15.6-0.9-22.3-8.1-22.3c-7.1,0-8.1,6.7-8.1,22.3c0,15.6,0.9,22.3,8.1,22.3C164.1,177.4,165,170.7,165,155.1z"/>
		<path class="st1" d="M206.4,185.5v-60.7h20.4l9.5,41.3h0.2l10.1-41.3h19.8v60.7H254v-46.8h-0.2l-11.7,46.8H230l-11.1-46.8h-0.2
			v46.8H206.4z"/>
		<path class="st1" d="M272.1,185.5l16.8-60.7h16.7l16.5,60.7h-13.4l-3.4-13.5h-17.3l-3.5,13.5H272.1z M308.8,106.5l-13.5,12h-5.5
			l7.6-12H308.8z M296.5,136.4h-0.2l-5.8,26.2h12.1L296.5,136.4z"/>
		<path class="st1" d="M344.5,186.5c-15.7,0-18.7-9.2-18-19.8h12.7c0,5.8,0.2,10.7,7.2,10.7c4.3,0,6.4-2.8,6.4-6.9
			c0-10.9-25.6-11.6-25.6-29.7c0-9.5,4.5-17.1,20-17.1c12.4,0,18.5,5.5,17.7,18.2h-12.4c0-4.5-0.8-9.2-5.9-9.2
			c-4.1,0-6.6,2.3-6.6,6.5c0,11.5,25.6,10.5,25.6,29.6C365.7,184.6,354.2,186.5,344.5,186.5z"/>
	</g>
	<rect x="83.1" y="194.1" class="st2" width="289.3" height="76.9"/>
	<g>
		<g>
			<path class="st0" d="M93.6,206.9h11.2l8,37.4h0.1l9-37.4h10.6l-13.6,51.4h-12.6L93.6,206.9z"/>
			<path class="st0" d="M137.3,258.3v-51.4h28v7.9H148v12.7h15.9v7.9H148v15h17.9v7.9L137.3,258.3L137.3,258.3z"/>
			<path class="st0" d="M172.9,258.3v-51.4h14.5l13.7,35.6h0.1v-35.6h10v51.4h-14.2l-14-37.6h-0.1v37.6L172.9,258.3L172.9,258.3z"/>
			<path class="st0" d="M220.5,206.9h17.9c14.1,0,16.7,9.4,16.7,25.4c0,7.9,1.2,26-17.1,26h-17.5L220.5,206.9L220.5,206.9z
				 M231.2,250.4h5.2c6.5,0,7.8-4.9,7.8-17.8c0-9.5,0-17.8-7.5-17.8h-5.6L231.2,250.4L231.2,250.4z"/>
			<path class="st0" d="M263.7,258.3v-51.4h10.7v51.4H263.7z"/>
			<path class="st0" d="M283.7,206.9h17.9c14.1,0,16.7,9.4,16.7,25.4c0,7.9,1.2,26-17.1,26h-17.5L283.7,206.9L283.7,206.9z
				 M294.5,250.4h5.2c6.5,0,7.8-4.9,7.8-17.8c0-9.5,0-17.8-7.5-17.8h-5.5V250.4z"/>
			<path class="st0" d="M326.5,232.6c0-13.6,0-26.5,17.7-26.5s17.7,12.9,17.7,26.5c0,13.4,0,26.5-17.7,26.5S326.5,246.1,326.5,232.6
				z M351,232.6c0-13.2-0.8-18.9-6.8-18.9s-6.8,5.7-6.8,18.9s0.8,18.9,6.8,18.9S351,245.8,351,232.6z"/>
		</g>
	</g>
	<g>
		<polygon class="st2" points="469.6,549.6 463,549.6 583.9,277.8 490.7,277.8 594.7,0 601.1,0 499.4,271.8 593.2,271.8 		"/>
	</g>
	<g>
		<g>
			<path class="st1" d="M61.1,348c-1.4,0-2.6-1.1-2.6-2.6v-10.8c0-1.4,1.2-2.6,2.6-2.6c1.4,0,2.6,1.1,2.6,2.6v10.8
				C63.7,346.8,62.6,348,61.1,348z"/>
			<path class="st1" d="M61.1,367.1c-1.4,0-2.6-1.1-2.6-2.6v-10.7c0-1.4,1.2-2.6,2.6-2.6c1.4,0,2.6,1.1,2.6,2.6v10.8
				C63.7,366,62.6,367.1,61.1,367.1z"/>
			<path class="st1" d="M76.1,352.2H65.4c-1.4,0-2.6-1.1-2.6-2.6c0-1.4,1.2-2.6,2.6-2.6h10.7c1.4,0,2.6,1.1,2.6,2.6
				S77.5,352.2,76.1,352.2z"/>
			<path class="st1" d="M56.9,352.2H46.2c-1.4,0-2.6-1.1-2.6-2.6c0-1.4,1.2-2.6,2.6-2.6h10.8c1.4,0,2.6,1.1,2.6,2.6
				C59.5,351,58.3,352.2,56.9,352.2z"/>
		</g>
	</g>
	<g>
		<g>
			<path class="st1" d="M444.3,159.4c-1.4,0-2.6-1.1-2.6-2.6v-10.8c0-1.4,1.1-2.6,2.6-2.6c1.4,0,2.6,1.1,2.6,2.6v10.8
				C446.9,158.3,445.7,159.4,444.3,159.4z"/>
			<path class="st1" d="M444.3,178.6c-1.4,0-2.6-1.1-2.6-2.6v-10.8c0-1.4,1.1-2.6,2.6-2.6c1.4,0,2.6,1.1,2.6,2.6v10.8
				C446.9,177.5,445.7,178.6,444.3,178.6z"/>
			<path class="st1" d="M459.3,163.7h-10.8c-1.4,0-2.6-1.1-2.6-2.6c0-1.4,1.1-2.6,2.6-2.6h10.8c1.4,0,2.6,1.1,2.6,2.6
				C461.9,162.5,460.7,163.7,459.3,163.7z"/>
			<path class="st1" d="M440.1,163.7h-10.8c-1.4,0-2.6-1.1-2.6-2.6c0-1.4,1.1-2.6,2.6-2.6h10.8c1.4,0,2.6,1.1,2.6,2.6
				C442.7,162.5,441.5,163.7,440.1,163.7z"/>
		</g>
	</g>
	<g>
		<g>
			<path class="st1" d="M381.2,488.4c-1.4,0-2.6-1.1-2.6-2.6v-10.8c0-1.4,1.1-2.6,2.6-2.6c1.4,0,2.6,1.1,2.6,2.6v10.8
				C383.8,487.2,382.7,488.4,381.2,488.4z"/>
			<path class="st1" d="M381.2,507.6c-1.4,0-2.6-1.1-2.6-2.6v-10.8c0-1.4,1.1-2.6,2.6-2.6c1.4,0,2.6,1.1,2.6,2.6V505
				C383.8,506.4,382.7,507.6,381.2,507.6z"/>
			<path class="st1" d="M396.2,492.6h-10.8c-1.4,0-2.6-1.1-2.6-2.6c0-1.4,1.1-2.6,2.6-2.6h10.8c1.4,0,2.6,1.1,2.6,2.6
				C398.8,491.5,397.6,492.6,396.2,492.6z"/>
			<path class="st1" d="M377,492.6h-10.8c-1.4,0-2.6-1.1-2.6-2.6c0-1.4,1.1-2.6,2.6-2.6H377c1.4,0,2.6,1.1,2.6,2.6
				C379.6,491.5,378.4,492.6,377,492.6z"/>
		</g>
	</g>
	<path class="st2" d="M405.5,332.2h-19.4c-1.8,0-3.4-0.9-4.3-2.5c-0.9-1.5-0.9-3.4,0-4.9l9.7-16.8c0.9-1.5,2.5-2.5,4.3-2.5
		s3.4,0.9,4.3,2.5l9.7,16.8c0.9,1.5,0.9,3.4,0,4.9C408.9,331.2,407.3,332.2,405.5,332.2z M387.1,326.7h17.4l-8.7-15L387.1,326.7z
		 M394,309.4L394,309.4L394,309.4z"/>
	<path class="st2" d="M465.6,46.1h-19.4c-1.8,0-3.4-0.9-4.3-2.5s-0.9-3.4,0-4.9l9.7-16.8c0.9-1.5,2.5-2.5,4.3-2.5s3.4,0.9,4.3,2.5
		l9.7,16.8c0.9,1.5,0.9,3.4,0,4.9C469,45.2,467.4,46.1,465.6,46.1z M447.3,40.6h17.4l-8.7-15L447.3,40.6z M454.1,23.3L454.1,23.3
		L454.1,23.3z"/>
	<path class="st2" d="M70.8,59.1H51.5c-1.8,0-3.4-0.9-4.3-2.5c-0.9-1.5-0.9-3.4,0-4.9l9.7-16.8c0.9-1.5,2.5-2.5,4.3-2.5
		c1.8,0,3.4,0.9,4.3,2.5l9.7,16.8c0.9,1.5,0.9,3.4,0,4.9C74.2,58.2,72.6,59.1,70.8,59.1z M52.5,53.6h17.4l-8.7-15L52.5,53.6z
		 M59.3,36.3L59.3,36.3L59.3,36.3z"/>
	<path class="st1" d="M262.5,83.8c-5.5,0-9.9-4.5-9.9-9.9s4.5-9.9,9.9-9.9s9.9,4.5,9.9,9.9C272.4,79.4,268,83.8,262.5,83.8z
		 M262.5,69.1c-2.6,0-4.8,2.2-4.8,4.8s2.1,4.8,4.8,4.8s4.8-2.2,4.8-4.8S265.1,69.1,262.5,69.1z"/>
	<path class="st1" d="M58.6,527.4c-5.5,0-9.9-4.5-9.9-9.9s4.5-9.9,9.9-9.9s9.9,4.5,9.9,9.9C68.5,523,64.1,527.4,58.6,527.4z
		 M58.6,512.7c-2.6,0-4.8,2.2-4.8,4.8s2.2,4.8,4.8,4.8s4.8-2.2,4.8-4.8S61.2,512.7,58.6,512.7z"/>
	<g>
		<polygon class="st3" points="432.8,549.6 419.6,549.6 526,309.6 434.1,309.6 554.9,0 567.8,0 451.7,297.6 544.5,297.6 		"/>
	</g>
	<rect x="325.5" y="437.4" class="st2" width="48" height="6.3"/>
	<rect x="85.2" y="437.4" class="st2" width="48" height="6.3"/>
	<circle class="st2" cx="227.7" cy="439.8" r="71.5"/>
	<g>
		<path class="st1" d="M300,408.2c-0.6-0.7-1.3-1.3-2-1.8l0.6-6.9c0.5-6-3.2-11.5-9-13.3c-15.7-4.8-44.6-12.9-61.8-12.9
			c-17.9,0-49.2,9-61.9,12.9c-5.8,1.8-9.5,7.3-9,13.3l0.6,6.9c-3.7,2.7-5.7,7.1-5.2,11.6l6.5,65.4c0.1,1.3,1.2,2.3,2.5,2.3h2.6v17.9
			c0,1.4,1.1,2.5,2.6,2.5h5.1c1.2,0,2.2-0.8,2.5-1.9l4.6-18.5h98.2l4.6,18.5c0.3,1.1,1.3,1.9,2.5,1.9h5.1c1.4,0,2.5-1.1,2.5-2.5
			v-17.9h2.5c1.3,0,2.4-1,2.5-2.3l6.5-65.4C303.6,414.5,302.4,410.9,300,408.2z M162,399.1c-0.3-3.6,1.9-6.9,5.4-8
			c12.4-3.8,43.2-12.7,60.3-12.7s47.9,8.9,60.3,12.7c3.5,1,5.7,4.4,5.4,8l-0.4,5.1c-0.8-0.2-1.7-0.2-2.5-0.3h-0.4
			c-9.2,0-16.9,6.9-17.8,16.1l-1.4,14.3c-2.4-3.1-6.1-4.9-10-4.9h-66.4c-3.9,0-7.6,1.8-10,4.9l-1.4-14.3
			c-0.9-9.1-8.6-16.1-17.8-16.1H165c-0.9,0-1.7,0.1-2.5,0.3L162,399.1z M268.6,450h-81.7v-7.7c0-4.2,3.4-7.7,7.7-7.7h66.4
			c4.2,0,7.7,3.4,7.7,7.7V450z M268.8,455.1l-2.5,25.5h-77.1l-2.6-25.5H268.8z M169.6,501H169v-15.3h4.4L169.6,501z M163.6,480.6
			l-6.3-63.1c-0.4-4.2,2.6-8,6.9-8.4c0.2,0,0.5,0,0.8,0h0.4c6.6,0,12.1,5,12.7,11.5l6,60L163.6,480.6L163.6,480.6z M286.5,501h-0.6
			l-3.8-15.3h4.4L286.5,501L286.5,501z M291.8,480.6h-20.4l6-60c0.6-6.5,6.1-11.5,12.7-11.5h0.4c4.2,0,7.7,3.4,7.7,7.7
			c0,0.3,0,0.5,0,0.8L291.8,480.6z"/>
		<rect x="207.3" y="396.3" class="st1" width="5.1" height="5.1"/>
		<rect x="207.3" y="411.6" class="st1" width="5.1" height="5.1"/>
		<rect x="243.1" y="396.3" class="st1" width="5.1" height="5.1"/>
		<rect x="243.1" y="411.6" class="st1" width="5.1" height="5.1"/>
	</g>
</g>
<g>
	<path class="st4" d="M315.8,337.5H139.7c-3.3,0-6-2.7-6-6v-25.2c0-3.3,2.7-6,6-6h176.1c3.3,0,6,2.7,6,6v25.2
		C321.8,334.8,319.1,337.5,315.8,337.5z"/>
	<g>
		<g>
			<path class="st2" d="M183.5,318.5c0-3.7,0-7.2,4.8-7.2c3,0,4.1,1.6,4,4.6h-2.8c0-1.8-0.3-2.5-1.2-2.5c-1.6,0-1.8,1.5-1.8,5.1
				c0,3.5,0.2,5.1,1.8,5.1c1.3,0,1.3-1.7,1.3-2.8h2.9c0,3.7-1.5,4.9-4.2,4.9C183.5,325.7,183.5,322.2,183.5,318.5z"/>
			<path class="st2" d="M194.4,325.5v-13.8h2.9v11.5h4.3v2.3H194.4z"/>
			<path class="st2" d="M202.8,325.5v-13.8h2.9v13.8H202.8z"/>
			<path class="st2" d="M208,318.5c0-3.7,0-7.2,4.8-7.2c3,0,4.1,1.6,4,4.6H214c0-1.8-0.3-2.5-1.2-2.5c-1.6,0-1.8,1.5-1.8,5.1
				c0,3.5,0.2,5.1,1.8,5.1c1.3,0,1.3-1.7,1.3-2.8h2.9c0,3.7-1.5,4.9-4.2,4.9C208,325.7,208,322.2,208,318.5z"/>
			<path class="st2" d="M225,311.6h3.2l-3.9,6.2l3.9,7.6h-3.3l-3.3-7.1h0v7.1h-2.9v-13.8h2.9v5.9h0L225,311.6z"/>
			<path class="st2" d="M232.7,325.5l3.8-13.8h3.8l3.8,13.8h-3l-0.8-3.1h-4l-0.8,3.1H232.7z M238.3,314.3L238.3,314.3l-1.4,6h2.8
				L238.3,314.3z"/>
			<path class="st2" d="M255.9,325.5h-4.1c-0.2,0-0.5,0-0.8,0.1c-0.3,0-0.6,0.1-0.8,0.1c-4.3,0-4.8-2.2-4.8-7.1c0-3.7,0-7.2,4.8-7.2
				s4.8,3.5,4.8,7.2c0,3-0.5,4.3-1.7,5.2l0,0c0.4-0.1,1.2-0.5,1.5-0.5h1.2V325.5z M252,318.5c0-3.5-0.2-5.1-1.8-5.1
				s-1.8,1.5-1.8,5.1c0,3.5,0.2,5,1.8,5S252,322,252,318.5z"/>
			<path class="st2" d="M266.6,311.6v9.8c0,2.1-1.2,4.3-4.7,4.3c-3.2,0-4.7-1.6-4.7-4.3v-9.8h2.9v9.6c0,1.7,0.7,2.4,1.8,2.4
				c1.3,0,1.8-0.8,1.8-2.4v-9.6H266.6z"/>
			<path class="st2" d="M273,307.5l-3.1,2.7h-1.2l1.7-2.7H273z M268.9,325.5v-13.8h2.9v13.8H268.9z"/>
		</g>
	</g>
</g>
</svg>
