<?xml version="1.0" encoding="utf-8"?>
<!-- Generator: Adobe Illustrator 21.0.0, SVG Export Plug-In . SVG Version: 6.00 Build 0)  -->
<svg version="1.1" id="Capa_1" xmlns="http://www.w3.org/2000/svg" xmlns:xlink="http://www.w3.org/1999/xlink" x="0px" y="0px"
	 viewBox="0 0 679.5 644.2" style="enable-background:new 0 0 679.5 644.2;" xml:space="preserve">
<style type="text/css">
	.st0{opacity:0.4;fill:#FFB600;}
	.st1{fill:#FFFFFF;}
	.st2{fill:#211915;}
	.st3{fill:#4C27B9;}
	.st4{fill:#FFB600;}
</style>
<g>
	<g>
		<g>
			<g>
				<g>
					<g>
						<path class="st1" d="M317.1,106.4c-0.6-0.6-1.5-0.6-2.1,0c-0.6,0.7-5.5,5.7-6.1,6.3c-0.3,0.3-0.5,0.7-0.5,1.1
							c0,0.4,0.1,0.9,0.5,1.1c1.2,1.2,7.1,7.4,17.6,18.4c-10.5,11-16.4,17.2-17.6,18.4c-0.3,0.3-0.5,0.7-0.5,1.1
							c0,0.4,0.1,0.8,0.5,1.1c0.6,0.7,5.5,5.7,6.1,6.3c0.3,0.3,0.7,0.5,1.1,0.5s0.8-0.1,1.1-0.5c2.5-2.6,22.2-23.3,24.7-25.9
							c0.3-0.3,0.5-0.7,0.5-1.1c0-0.4-0.1-0.8-0.5-1.1C339.3,129.7,319.5,108.9,317.1,106.4z"/>
						<path class="st1" d="M317.1,106.4c-0.6-0.6-1.5-0.6-2.1,0c-0.6,0.7-5.5,5.7-6.1,6.3c-0.3,0.3-0.5,0.7-0.5,1.1
							c0,0.4,0.1,0.9,0.5,1.1c1.2,1.2,7.1,7.4,17.6,18.4c-10.5,11-16.4,17.2-17.6,18.4c-0.3,0.3-0.5,0.7-0.5,1.1
							c0,0.4,0.1,0.8,0.5,1.1c0.6,0.7,5.5,5.7,6.1,6.3c0.3,0.3,0.7,0.5,1.1,0.5s0.8-0.1,1.1-0.5c2.5-2.6,22.2-23.3,24.7-25.9
							c0.3-0.3,0.5-0.7,0.5-1.1c0-0.4-0.1-0.8-0.5-1.1C339.3,129.7,319.5,108.9,317.1,106.4z"/>
						<path class="st1" d="M368.7,188.4c0,8.5,0,21.8,0,30.3c0,6.8-6.1,12.4-13.6,12.4c-8.3,0-19.2,0-27.5,0
							c-7.6,0-13.4-5.7-13.4-12.4c0-8.5,0-21.8,0-30.3c0-6.8,5.9-12.4,13.4-12.4c8.3,0,19.2,0,27.5,0
							C362.5,175.9,368.7,181.6,368.7,188.4z"/>
						<path class="st1" d="M368.7,188.4c0,8.5,0,21.8,0,30.3c0,6.8-6.1,12.4-13.6,12.4c-8.3,0-19.2,0-27.5,0
							c-7.6,0-13.4-5.7-13.4-12.4c0-8.5,0-21.8,0-30.3c0-6.8,5.9-12.4,13.4-12.4c8.3,0,19.2,0,27.5,0
							C362.5,175.9,368.7,181.6,368.7,188.4z"/>
						<path class="st1" d="M499,133.4c5.1,0,9.4,4.4,9.4,9.6c0,8.7,0,25.4,0,34.1c0,5.1-4.3,9.6-9.4,9.6c-8.7,0-25.6,0-34.4,0
							c-5.1,0-9.4-4.5-9.4-9.6c0-8.7,0-25.4,0-34.1c0-5.1,4.3-9.6,9.4-9.6C473.3,133.4,490.2,133.4,499,133.4z"/>
						<path class="st1" d="M499,133.4c5.1,0,9.4,4.4,9.4,9.6c0,8.7,0,25.4,0,34.1c0,5.1-4.3,9.6-9.4,9.6c-8.7,0-25.6,0-34.4,0
							c-5.1,0-9.4-4.5-9.4-9.6c0-8.7,0-25.4,0-34.1c0-5.1,4.3-9.6,9.4-9.6C473.3,133.4,490.2,133.4,499,133.4z"/>
						<path class="st1" d="M457.4,162.6c8.3,0,15,6.7,15,14.9c0,13.9,0,40.8,0,54.7c0,8.3-6.8,14.8-15,14.8c-13.2,0-37.9,0-51,0
							c-8.3,0-15.1-6.6-15.1-14.8c0-13.9,0-40.8,0-54.7c0-8.3,6.9-14.9,15.1-14.9C419.6,162.6,444.2,162.6,457.4,162.6z"/>
						<path class="st1" d="M484.4,224.5c4.1,0,7.4,3.5,7.4,7.5c0,6.9,0,20,0,26.9c0,4.1-3.3,7.5-7.4,7.5c-6.7,0-19.5,0-26.2,0
							c-4.1,0-7.7-3.5-7.7-7.5c0-6.9,0-20,0-26.9c0-4.1,3.6-7.5,7.7-7.5C464.9,224.5,477.7,224.5,484.4,224.5z"/>
						<path class="st1" d="M484.4,224.5c4.1,0,7.4,3.5,7.4,7.5c0,6.9,0,20,0,26.9c0,4.1-3.3,7.5-7.4,7.5c-6.7,0-19.5,0-26.2,0
							c-4.1,0-7.7-3.5-7.7-7.5c0-6.9,0-20,0-26.9c0-4.1,3.6-7.5,7.7-7.5C464.9,224.5,477.7,224.5,484.4,224.5z"/>
						<path class="st1" d="M338.7,149.3H374v12h-35.3V149.3z"/>
						<g>
							<path class="st1" d="M420.3,0H259c-7.8,0-14.2,6.4-14.2,14.2v351.3c0,7.8,6.4,14.2,14.2,14.2h161.2c7.8,0,14.2-6.4,14.2-14.2
								V14.2C434.5,6.4,428.1,0,420.3,0z M339.4,361.6c-7.8,0-14.2-6.3-14.2-14.2c0-7.8,6.3-14.2,14.2-14.2
								c7.8,0,14.2,6.3,14.2,14.2C353.6,355.2,347.2,361.6,339.4,361.6z M423.9,323h-169V46.2h169V323z"/>
						</g>
					</g>
				</g>
			</g>
		</g>
	</g>
	<g>
		<path class="st1" d="M190.1,559.7c1.8,0,3.5,0.3,5,0.8c1.5,0.5,2.8,1.3,3.9,2.4c1.1,1.1,1.9,2.5,2.5,4.2s0.9,3.8,0.9,6.1
			c0,2.4-0.3,4.5-0.8,6.3c-0.5,1.9-1.3,3.4-2.3,4.7c-1,1.3-2.3,2.3-3.7,3c-1.5,0.7-3.1,1-4.9,1h-12.4v-28.6H190.1z M184.3,583.1h5.4
			c2,0,3.6-0.8,4.8-2.3c1.2-1.5,1.8-3.9,1.8-7.2c0-1.7-0.1-3.1-0.4-4.2c-0.3-1.1-0.7-2-1.2-2.7c-0.5-0.7-1.2-1.2-2-1.4
			c-0.8-0.3-1.8-0.4-2.9-0.4h-5.4V583.1z"/>
		<path class="st1" d="M212.4,559.5v5.2h-5.8v-5.2H212.4z M212.4,567.1v21.2h-5.8v-21.2H212.4z"/>
		<path class="st1" d="M216.5,577.7c0-1.7,0.2-3.3,0.7-4.7c0.4-1.4,1.1-2.5,1.9-3.5s1.7-1.7,2.9-2.2c1.1-0.5,2.3-0.8,3.6-0.8
			c1.2,0,2.3,0.3,3.3,0.8c1,0.5,1.9,1.4,2.6,2.8v-3.1h5.6v20.1c0,1.6-0.2,3.1-0.6,4.3c-0.4,1.2-1,2.2-1.8,3
			c-0.8,0.8-1.9,1.4-3.3,1.8c-1.4,0.4-3,0.6-4.9,0.6c-1.1,0-2.3-0.1-3.4-0.3c-1.1-0.2-2.1-0.6-3-1.1c-0.9-0.5-1.6-1.1-2.2-2
			c-0.6-0.8-0.9-1.8-1-3.1h6.2c0.2,0.6,0.5,1.1,1,1.5s1.4,0.6,2.7,0.6c0.8,0,1.5-0.1,2-0.3c0.6-0.2,1-0.5,1.4-1
			c0.4-0.5,0.6-1.1,0.8-1.9c0.2-0.8,0.3-1.8,0.3-2.9V585c-0.2,0.4-0.5,0.8-0.8,1.2c-0.3,0.4-0.7,0.8-1.1,1.1c-0.4,0.3-1,0.6-1.6,0.8
			s-1.5,0.3-2.5,0.3c-1.3,0-2.6-0.2-3.7-0.7c-1.1-0.5-2-1.2-2.8-2.1c-0.8-0.9-1.4-2-1.8-3.3C216.7,580.9,216.5,579.4,216.5,577.7z
			 M222.4,577.7c0,0.8,0.1,1.6,0.3,2.3c0.2,0.7,0.5,1.3,0.8,1.8c0.4,0.5,0.8,0.9,1.4,1.2c0.6,0.3,1.3,0.5,2,0.5
			c0.6,0,1.2-0.1,1.8-0.3c0.5-0.2,1-0.6,1.4-1.1c0.4-0.5,0.7-1.1,0.9-1.8c0.2-0.8,0.4-1.7,0.4-2.8c0-2.1-0.4-3.6-1.3-4.5
			c-0.9-1-1.9-1.4-3.2-1.4c-1.4,0-2.5,0.5-3.3,1.5C222.8,574.1,222.4,575.6,222.4,577.7z"/>
		<path class="st1" d="M248.1,559.5v5.2h-5.8v-5.2H248.1z M248.1,567.1v21.2h-5.8v-21.2H248.1z"/>
		<path class="st1" d="M254.3,567.3v-6h5.7v6h3.5v4H260v10.9c0,0.5,0,0.8,0.1,1.1c0.1,0.3,0.2,0.5,0.4,0.6c0.2,0.1,0.4,0.2,0.7,0.3
			c0.3,0,0.7,0.1,1.2,0.1c0.2,0,0.3,0,0.6,0c0.2,0,0.4,0,0.5,0v4.3c-0.5,0-0.9,0-1.3,0c-0.4,0-0.9,0-1.3,0c-1.2,0-2.2-0.1-3-0.2
			c-0.8-0.1-1.5-0.4-2-0.7c-0.5-0.3-0.9-0.8-1.1-1.3c-0.2-0.6-0.4-1.2-0.4-2.1v-12.9h-2.9v-4H254.3z"/>
		<path class="st1" d="M265.6,578.3c0-1.9,0.2-3.5,0.7-5c0.4-1.4,1.1-2.7,1.9-3.7s1.8-1.7,2.9-2.3c1.1-0.5,2.4-0.8,3.7-0.8
			c1.3,0,2.5,0.3,3.6,1c1,0.6,1.8,1.5,2.4,2.7v-3.1h5.6v21.1h-5.6v-2.9c-0.6,1.1-1.4,1.9-2.4,2.6c-1,0.7-2.3,1-4,1
			c-1.1,0-2.2-0.2-3.3-0.7c-1.1-0.5-2-1.2-2.8-2.1c-0.8-0.9-1.5-2-1.9-3.4C265.8,581.4,265.6,579.9,265.6,578.3z M271.5,577.8
			c0,2.3,0.4,3.9,1.3,4.9c0.9,1,2,1.4,3.3,1.4c0.6,0,1.2-0.1,1.8-0.3c0.6-0.2,1.1-0.6,1.5-1.1c0.4-0.5,0.8-1.1,1-1.9
			c0.3-0.8,0.4-1.7,0.4-2.8c0-2.1-0.4-3.7-1.2-4.8c-0.8-1.1-2-1.7-3.5-1.7c-1.4,0-2.5,0.5-3.3,1.5
			C271.9,574.2,271.5,575.7,271.5,577.8z"/>
		<path class="st1" d="M297.3,582.3c0,0.7,0.1,1.2,0.4,1.5c0.3,0.3,0.7,0.5,1.1,0.5c0.2,0,0.3,0,0.6,0c0.2,0,0.4,0,0.5,0v4.3
			c-0.5,0-0.9,0-1.3,0c-0.4,0-0.9,0-1.3,0c-1.1,0-2-0.2-2.7-0.5c-0.7-0.3-1.3-0.7-1.8-1.2c-0.5-0.5-0.8-1.1-1-1.7
			c-0.2-0.7-0.3-1.4-0.3-2.1v-23.4h5.8V582.3z"/>
		<path class="st1" d="M323,559.7l4.9,22.3l4.9-22.3h8.9v28.6h-5.8v-19.6c0-0.7,0-1.4,0-2c0-0.6,0-1.4,0-2.4l-5.1,24h-6l-5.1-24
			c0,0.9,0,1.6,0,2.3c0,0.6,0,1.4,0,2.1v19.6H314v-28.6H323z"/>
		<path class="st1" d="M345.4,578.3c0-1.9,0.2-3.5,0.7-5c0.4-1.4,1.1-2.7,1.9-3.7s1.8-1.7,2.9-2.3c1.1-0.5,2.4-0.8,3.7-0.8
			c1.3,0,2.5,0.3,3.6,1c1,0.6,1.8,1.5,2.4,2.7v-3.1h5.6v21.1h-5.6v-2.9c-0.6,1.1-1.4,1.9-2.4,2.6c-1,0.7-2.3,1-4,1
			c-1.1,0-2.2-0.2-3.3-0.7c-1.1-0.5-2-1.2-2.8-2.1c-0.8-0.9-1.5-2-1.9-3.4C345.6,581.4,345.4,579.9,345.4,578.3z M351.2,577.8
			c0,2.3,0.4,3.9,1.3,4.9c0.9,1,2,1.4,3.3,1.4c0.6,0,1.2-0.1,1.8-0.3c0.6-0.2,1.1-0.6,1.5-1.1c0.4-0.5,0.8-1.1,1-1.9
			c0.3-0.8,0.4-1.7,0.4-2.8c0-2.1-0.4-3.7-1.2-4.8c-0.8-1.1-2-1.7-3.5-1.7c-1.4,0-2.5,0.5-3.3,1.5
			C351.7,574.2,351.2,575.7,351.2,577.8z"/>
		<path class="st1" d="M376.5,567.1v3.7c0.4-0.8,0.9-1.5,1.4-2c0.5-0.5,1-1,1.5-1.3c0.5-0.3,1-0.5,1.6-0.7c0.6-0.1,1.2-0.2,1.8-0.2
			c0.2,0,0.3,0,0.4,0c0.1,0,0.2,0,0.3,0v5.9c-0.6-0.1-1.2-0.1-1.6-0.1c-1.8,0-3.1,0.5-3.9,1.4c-0.8,0.9-1.2,2.5-1.2,4.6v9.9h-5.8
			v-21.2H376.5z"/>
		<path class="st1" d="M392.4,559.8V575l6.7-7.9h7.1l-7.3,8.1l7.6,12.9h-6.9l-4.9-8.9l-2.3,2.4v6.5h-5.6v-28.5H392.4z"/>
		<path class="st1" d="M407.4,577.9c0-1.8,0.3-3.4,0.8-4.8c0.5-1.4,1.2-2.6,2.1-3.6c0.9-1,1.9-1.7,3.2-2.2c1.2-0.5,2.6-0.8,4-0.8
			c1.6,0,3,0.2,4.3,0.7c1.3,0.5,2.4,1.3,3.2,2.3c0.9,1,1.5,2.3,2,3.9c0.4,1.6,0.6,3.5,0.6,5.7h-14.3c0,1.5,0.4,2.7,1.2,3.7
			c0.8,1,1.9,1.4,3.5,1.4c0.7,0,1.5-0.2,2.2-0.5c0.7-0.3,1.2-0.9,1.6-1.7h5.9c-0.1,0.9-0.4,1.8-0.8,2.6c-0.5,0.8-1.1,1.5-1.9,2.2
			c-0.8,0.6-1.8,1.1-3,1.5c-1.2,0.4-2.5,0.6-4,0.6c-1.2,0-2.5-0.2-3.7-0.6c-1.2-0.4-2.3-1-3.3-1.9c-1-0.9-1.8-2-2.4-3.4
			C407.8,581.7,407.4,579.9,407.4,577.9z M421.6,575.5c-0.1-1.3-0.4-2.3-1.1-3.1c-0.7-0.8-1.7-1.1-3-1.1c-1.2,0-2.2,0.4-2.8,1.1
			c-0.7,0.7-1.1,1.8-1.3,3.1H421.6z"/>
		<path class="st1" d="M432,567.3v-6h5.7v6h3.5v4h-3.5v10.9c0,0.5,0,0.8,0.1,1.1c0.1,0.3,0.2,0.5,0.4,0.6c0.2,0.1,0.4,0.2,0.7,0.3
			c0.3,0,0.7,0.1,1.2,0.1c0.2,0,0.3,0,0.6,0c0.2,0,0.4,0,0.5,0v4.3c-0.5,0-0.9,0-1.3,0c-0.4,0-0.9,0-1.3,0c-1.2,0-2.2-0.1-3-0.2
			c-0.8-0.1-1.5-0.4-2-0.7c-0.5-0.3-0.9-0.8-1.1-1.3c-0.2-0.6-0.4-1.2-0.4-2.1v-12.9H429v-4H432z"/>
		<path class="st1" d="M450.5,559.5v5.2h-5.8v-5.2H450.5z M450.5,567.1v21.2h-5.8v-21.2H450.5z"/>
		<path class="st1" d="M461.5,567.1l0,3.1c1.6-2.4,3.7-3.6,6.3-3.6c2.3,0,4.2,0.6,5.5,1.8c1.3,1.2,2,3.1,2,5.6v14.3h-5.9v-12.9
			c0-1.5-0.3-2.5-0.9-3.2c-0.6-0.6-1.5-0.9-2.7-0.9c-0.5,0-1,0.1-1.5,0.2c-0.5,0.1-1,0.4-1.4,0.8c-0.4,0.4-0.7,1-1,1.7
			c-0.2,0.7-0.4,1.7-0.4,2.8v11.4H456v-21.2H461.5z"/>
		<path class="st1" d="M479.1,577.7c0-1.7,0.2-3.3,0.7-4.7c0.4-1.4,1.1-2.5,1.9-3.5s1.7-1.7,2.9-2.2c1.1-0.5,2.3-0.8,3.6-0.8
			c1.2,0,2.3,0.3,3.3,0.8c1,0.5,1.9,1.4,2.6,2.8v-3.1h5.6v20.1c0,1.6-0.2,3.1-0.6,4.3c-0.4,1.2-1,2.2-1.8,3
			c-0.8,0.8-1.9,1.4-3.3,1.8c-1.4,0.4-3,0.6-4.9,0.6c-1.1,0-2.3-0.1-3.4-0.3c-1.1-0.2-2.1-0.6-3-1.1c-0.9-0.5-1.6-1.1-2.2-2
			c-0.6-0.8-0.9-1.8-1-3.1h6.2c0.2,0.6,0.5,1.1,1,1.5s1.4,0.6,2.7,0.6c0.8,0,1.5-0.1,2-0.3c0.6-0.2,1-0.5,1.4-1
			c0.4-0.5,0.6-1.1,0.8-1.9c0.2-0.8,0.3-1.8,0.3-2.9V585c-0.2,0.4-0.5,0.8-0.8,1.2c-0.3,0.4-0.7,0.8-1.1,1.1c-0.4,0.3-1,0.6-1.6,0.8
			c-0.7,0.2-1.5,0.3-2.5,0.3c-1.3,0-2.6-0.2-3.7-0.7c-1.1-0.5-2-1.2-2.8-2.1c-0.8-0.9-1.4-2-1.8-3.3
			C479.3,580.9,479.1,579.4,479.1,577.7z M485,577.7c0,0.8,0.1,1.6,0.3,2.3c0.2,0.7,0.5,1.3,0.8,1.8c0.4,0.5,0.8,0.9,1.4,1.2
			c0.6,0.3,1.3,0.5,2,0.5c0.6,0,1.2-0.1,1.8-0.3c0.5-0.2,1-0.6,1.4-1.1c0.4-0.5,0.7-1.1,0.9-1.8c0.2-0.8,0.4-1.7,0.4-2.8
			c0-2.1-0.4-3.6-1.3-4.5c-0.9-1-1.9-1.4-3.2-1.4c-1.4,0-2.5,0.5-3.3,1.5C485.4,574.1,485,575.6,485,577.7z"/>
		<path class="st1" d="M11.8,607.3l4.9,22.3l4.9-22.3h8.9v28.6h-5.8v-19.6c0-0.7,0-1.4,0-2c0-0.6,0-1.4,0-2.4l-5.1,24h-6l-5.1-24
			c0,0.9,0,1.6,0,2.3c0,0.6,0,1.4,0,2.1v19.6H2.9v-28.6H11.8z"/>
		<path class="st1" d="M34.3,625.3c0-1.6,0.2-3.1,0.7-4.5c0.5-1.4,1.2-2.6,2.1-3.6c0.9-1,2.1-1.8,3.4-2.3c1.3-0.6,2.9-0.9,4.7-0.9
			c1.7,0,3.3,0.3,4.6,0.8c1.3,0.5,2.5,1.3,3.4,2.3c0.9,1,1.6,2.2,2.1,3.6c0.5,1.4,0.7,3,0.7,4.7c0,1.6-0.2,3.1-0.7,4.5
			c-0.5,1.4-1.2,2.6-2.1,3.6s-2,1.8-3.4,2.3c-1.3,0.6-2.9,0.9-4.7,0.9c-1.7,0-3.3-0.3-4.6-0.8c-1.4-0.6-2.5-1.3-3.4-2.3
			c-0.9-1-1.7-2.2-2.2-3.6C34.5,628.5,34.3,627,34.3,625.3z M40.3,625.3c0,2.2,0.4,3.8,1.3,4.9c0.9,1.1,2.1,1.6,3.6,1.6
			c1.5,0,2.7-0.6,3.6-1.7c0.9-1.1,1.3-2.7,1.3-4.8c0-2.2-0.4-3.9-1.3-4.9c-0.9-1.1-2.1-1.6-3.5-1.6c-0.6,0-1.2,0.1-1.7,0.3
			c-0.6,0.2-1.1,0.5-1.6,1c-0.5,0.5-0.9,1.1-1.1,2C40.4,622.9,40.3,624,40.3,625.3z"/>
		<path class="st1" d="M65.6,607.4v10.2c0.7-1,1.5-1.8,2.5-2.4c1-0.6,2.2-0.9,3.6-0.9c1.3,0,2.5,0.2,3.6,0.7c1.1,0.5,2,1.2,2.8,2.1
			c0.8,0.9,1.4,2.1,1.8,3.4c0.4,1.3,0.7,2.9,0.7,4.5c0,1.9-0.2,3.6-0.7,5c-0.5,1.4-1.1,2.6-1.9,3.6c-0.8,1-1.7,1.7-2.8,2.1
			c-1.1,0.5-2.2,0.7-3.4,0.7c-1.5,0-2.6-0.2-3.6-0.7c-0.9-0.5-1.8-1.3-2.7-2.5v2.7h-5.6v-28.5H65.6z M65.4,625.7
			c0,1.9,0.4,3.4,1.3,4.4c0.8,1.1,2,1.6,3.5,1.6c1.2,0,2.2-0.5,3.1-1.5c0.8-1,1.3-2.5,1.3-4.6c0-2.2-0.4-3.9-1.2-4.9
			c-0.8-1-1.9-1.5-3.4-1.5c-1.5,0-2.7,0.6-3.4,1.7C65.8,622.1,65.4,623.6,65.4,625.7z"/>
		<path class="st1" d="M90.3,607.1v5.2h-5.8v-5.2H90.3z M90.3,614.7v21.2h-5.8v-21.2H90.3z"/>
		<path class="st1" d="M101.6,629.9c0,0.7,0.1,1.2,0.4,1.5c0.3,0.3,0.7,0.5,1.1,0.5c0.2,0,0.3,0,0.6,0c0.2,0,0.4,0,0.5,0v4.3
			c-0.5,0-0.9,0-1.3,0c-0.4,0-0.9,0-1.3,0c-1.1,0-2-0.2-2.7-0.5c-0.7-0.3-1.3-0.7-1.8-1.2c-0.5-0.5-0.8-1.1-1-1.7
			c-0.2-0.7-0.3-1.4-0.3-2.1v-23.4h5.8V629.9z"/>
		<path class="st1" d="M105.8,625.5c0-1.8,0.3-3.4,0.8-4.8c0.5-1.4,1.2-2.6,2.1-3.6c0.9-1,1.9-1.7,3.2-2.2c1.2-0.5,2.6-0.8,4-0.8
			c1.6,0,3,0.2,4.3,0.7c1.3,0.5,2.4,1.3,3.2,2.3c0.9,1,1.5,2.3,2,3.9c0.4,1.6,0.6,3.5,0.6,5.7h-14.3c0,1.5,0.4,2.7,1.2,3.7
			c0.8,1,1.9,1.4,3.5,1.4c0.7,0,1.5-0.2,2.2-0.5c0.7-0.3,1.2-0.9,1.6-1.7h5.9c-0.1,0.9-0.4,1.8-0.8,2.6c-0.5,0.8-1.1,1.5-1.9,2.2
			c-0.8,0.6-1.8,1.1-3,1.5s-2.5,0.6-4,0.6c-1.2,0-2.5-0.2-3.7-0.6c-1.2-0.4-2.3-1-3.3-1.9c-1-0.9-1.8-2-2.4-3.4
			C106.1,629.3,105.8,627.6,105.8,625.5z M120,623.2c-0.1-1.3-0.4-2.3-1.1-3.1c-0.7-0.8-1.7-1.1-3-1.1c-1.2,0-2.2,0.4-2.8,1.1
			s-1.1,1.8-1.3,3.1H120z"/>
		<path class="st1" d="M138.7,625.9c0-1.9,0.2-3.5,0.7-5c0.4-1.4,1.1-2.7,1.9-3.7s1.8-1.7,2.9-2.3c1.1-0.5,2.4-0.8,3.7-0.8
			c1.3,0,2.5,0.3,3.6,1c1,0.6,1.8,1.5,2.4,2.7v-3.1h5.6v21.1h-5.6V633c-0.6,1.1-1.4,1.9-2.4,2.6c-1,0.7-2.3,1-4,1
			c-1.1,0-2.2-0.2-3.3-0.7c-1.1-0.5-2-1.2-2.8-2.1c-0.8-0.9-1.5-2-1.9-3.4C138.9,629.1,138.7,627.6,138.7,625.9z M144.6,625.4
			c0,2.3,0.4,3.9,1.3,4.9c0.9,1,2,1.4,3.3,1.4c0.6,0,1.2-0.1,1.8-0.3c0.6-0.2,1.1-0.6,1.5-1.1c0.4-0.5,0.8-1.1,1-1.9
			c0.3-0.8,0.4-1.7,0.4-2.8c0-2.1-0.4-3.7-1.2-4.8c-0.8-1.1-2-1.7-3.5-1.7c-1.4,0-2.5,0.5-3.3,1.5S144.6,623.4,144.6,625.4z"/>
		<path class="st1" d="M170.1,614.7l0,3.1c1.6-2.4,3.7-3.6,6.3-3.6c2.3,0,4.2,0.6,5.5,1.8c1.3,1.2,2,3.1,2,5.6v14.3H178V623
			c0-1.5-0.3-2.5-0.9-3.2c-0.6-0.6-1.5-0.9-2.7-0.9c-0.5,0-1,0.1-1.5,0.2c-0.5,0.1-1,0.4-1.4,0.8c-0.4,0.4-0.7,1-1,1.7
			c-0.2,0.7-0.4,1.7-0.4,2.8v11.4h-5.8v-21.2H170.1z"/>
		<path class="st1" d="M187.6,625.9c0-1.9,0.2-3.5,0.7-5c0.4-1.4,1.1-2.7,1.9-3.7c0.8-1,1.8-1.7,2.9-2.3c1.1-0.5,2.4-0.8,3.7-0.8
			c1.2,0,2.3,0.3,3.3,0.8c1,0.5,1.8,1.3,2.5,2.4v-10h5.8v28.5h-5.6V633c-0.6,1.1-1.4,1.9-2.4,2.6c-1,0.7-2.3,1-4,1
			c-1.1,0-2.2-0.2-3.3-0.7c-1.1-0.5-2-1.2-2.8-2.1c-0.8-0.9-1.5-2-1.9-3.4C187.9,629.1,187.6,627.6,187.6,625.9z M193.5,625.4
			c0,2.3,0.4,3.9,1.3,4.9c0.9,1,2,1.4,3.3,1.4c0.6,0,1.2-0.1,1.8-0.3c0.6-0.2,1.1-0.6,1.5-1.1c0.4-0.5,0.8-1.1,1-1.9
			c0.3-0.8,0.4-1.7,0.4-2.8c0-2.1-0.4-3.7-1.2-4.8c-0.8-1.1-2-1.7-3.5-1.7c-1.4,0-2.5,0.5-3.3,1.5S193.5,623.4,193.5,625.4z"/>
		<path class="st1" d="M228.4,607.3l3.8,16.2l0.8,4.5l0.8-4.4l3-16.3h6.6l3.2,16.1l0.8,4.6l0.9-4.4l3.7-16.3h6.3l-8.1,28.6h-5.9
			l-3.3-16.4l-1-5.7l-1,5.7l-3.3,16.4h-5.7l-8.1-28.6H228.4z"/>
		<path class="st1" d="M259.7,625.5c0-1.8,0.3-3.4,0.8-4.8c0.5-1.4,1.2-2.6,2.1-3.6c0.9-1,1.9-1.7,3.2-2.2c1.2-0.5,2.6-0.8,4-0.8
			c1.6,0,3,0.2,4.3,0.7c1.3,0.5,2.4,1.3,3.2,2.3c0.9,1,1.5,2.3,2,3.9c0.4,1.6,0.6,3.5,0.6,5.7h-14.3c0,1.5,0.4,2.7,1.2,3.7
			c0.8,1,1.9,1.4,3.5,1.4c0.7,0,1.5-0.2,2.2-0.5c0.7-0.3,1.2-0.9,1.6-1.7h5.9c-0.1,0.9-0.4,1.8-0.8,2.6c-0.5,0.8-1.1,1.5-1.9,2.2
			c-0.8,0.6-1.8,1.1-3,1.5s-2.5,0.6-4,0.6c-1.2,0-2.5-0.2-3.7-0.6c-1.2-0.4-2.3-1-3.3-1.9c-1-0.9-1.8-2-2.4-3.4
			C260,629.3,259.7,627.6,259.7,625.5z M273.8,623.2c-0.1-1.3-0.4-2.3-1.1-3.1c-0.7-0.8-1.7-1.1-3-1.1c-1.2,0-2.2,0.4-2.8,1.1
			c-0.7,0.7-1.1,1.8-1.3,3.1H273.8z"/>
		<path class="st1" d="M289,607.4v10.2c0.7-1,1.5-1.8,2.5-2.4c1-0.6,2.2-0.9,3.6-0.9c1.3,0,2.5,0.2,3.6,0.7c1.1,0.5,2,1.2,2.8,2.1
			c0.8,0.9,1.4,2.1,1.8,3.4c0.4,1.3,0.7,2.9,0.7,4.5c0,1.9-0.2,3.6-0.7,5c-0.5,1.4-1.1,2.6-1.9,3.6c-0.8,1-1.7,1.7-2.8,2.1
			c-1.1,0.5-2.2,0.7-3.4,0.7c-1.5,0-2.6-0.2-3.6-0.7c-0.9-0.5-1.8-1.3-2.7-2.5v2.7h-5.6v-28.5H289z M288.8,625.7
			c0,1.9,0.4,3.4,1.3,4.4c0.8,1.1,2,1.6,3.5,1.6c1.2,0,2.2-0.5,3.1-1.5c0.8-1,1.3-2.5,1.3-4.6c0-2.2-0.4-3.9-1.2-4.9
			c-0.8-1-1.9-1.5-3.4-1.5c-1.5,0-2.7,0.6-3.4,1.7C289.2,622.1,288.8,623.6,288.8,625.7z"/>
		<path class="st1" d="M334,607.3l10.1,28.6h-6.7l-1.7-5.6h-10.5l-1.8,5.6h-6.5l10.2-28.6H334z M326.8,625.1h7.1l-3.5-11.1
			L326.8,625.1z"/>
		<path class="st1" d="M352.6,614.7v3.1c0.7-1,1.5-1.9,2.5-2.6c1-0.7,2.3-1.1,3.8-1.1c1.2,0,2.4,0.2,3.5,0.7c1.1,0.5,2,1.2,2.8,2.1
			c0.8,0.9,1.4,2,1.9,3.4c0.5,1.3,0.7,2.9,0.7,4.6c0,1.9-0.2,3.5-0.7,4.9c-0.5,1.4-1.1,2.6-1.9,3.6c-0.8,1-1.7,1.7-2.8,2.2
			c-1.1,0.5-2.3,0.7-3.6,0.7c-1.2,0-2.3-0.3-3.4-0.8c-1-0.6-1.9-1.4-2.6-2.5v11h-5.7v-29.5H352.6z M352.6,625.8c0,2,0.4,3.5,1.2,4.4
			c0.8,1,2,1.5,3.4,1.5c1.4,0,2.5-0.5,3.4-1.6c0.8-1.1,1.3-2.7,1.3-4.7c0-1.8-0.4-3.3-1.1-4.4c-0.8-1.1-1.9-1.7-3.5-1.7
			c-1.4,0-2.5,0.5-3.4,1.5C353,621.8,352.6,623.5,352.6,625.8z"/>
		<path class="st1" d="M377,614.7v3.1c0.7-1,1.5-1.9,2.5-2.6c1-0.7,2.3-1.1,3.8-1.1c1.2,0,2.4,0.2,3.5,0.7c1.1,0.5,2,1.2,2.8,2.1
			c0.8,0.9,1.4,2,1.9,3.4c0.5,1.3,0.7,2.9,0.7,4.6c0,1.9-0.2,3.5-0.7,4.9c-0.5,1.4-1.1,2.6-1.9,3.6c-0.8,1-1.7,1.7-2.8,2.2
			c-1.1,0.5-2.3,0.7-3.6,0.7c-1.2,0-2.3-0.3-3.4-0.8c-1-0.6-1.9-1.4-2.6-2.5v11h-5.7v-29.5H377z M377,625.8c0,2,0.4,3.5,1.2,4.4
			c0.8,1,2,1.5,3.4,1.5c1.4,0,2.5-0.5,3.4-1.6c0.8-1.1,1.3-2.7,1.3-4.7c0-1.8-0.4-3.3-1.1-4.4c-0.8-1.1-1.9-1.7-3.5-1.7
			c-1.4,0-2.5,0.5-3.4,1.5C377.4,621.8,377,623.5,377,625.8z"/>
		<path class="st1" d="M395.5,621.3c0-0.8,0.2-1.7,0.5-2.5c0.3-0.9,0.9-1.6,1.6-2.3c0.7-0.7,1.7-1.2,2.8-1.7c1.1-0.4,2.5-0.7,4-0.7
			c2.9,0,5.1,0.6,6.7,1.7c1.6,1.1,2.5,2.9,2.7,5.4h-5.8c-0.1-1-0.5-1.7-1.1-2.1c-0.6-0.4-1.4-0.6-2.5-0.6c-0.7,0-1.2,0.1-1.6,0.2
			c-0.4,0.1-0.8,0.3-1,0.4c-0.2,0.2-0.4,0.4-0.5,0.6c-0.1,0.2-0.1,0.4-0.1,0.6c0,0.5,0.2,0.9,0.6,1.2c0.4,0.3,1.2,0.5,2.4,0.8
			l3.6,0.9c0.9,0.2,1.8,0.5,2.6,0.9c0.8,0.3,1.5,0.8,2,1.3c0.6,0.5,1,1.1,1.3,1.8c0.3,0.7,0.5,1.5,0.5,2.4c0,1-0.2,2-0.6,2.9
			c-0.4,0.9-1,1.6-1.8,2.3c-0.8,0.6-1.8,1.1-3,1.5c-1.2,0.4-2.6,0.5-4.3,0.5c-1.4,0-2.7-0.1-3.9-0.4c-1.2-0.3-2.2-0.7-3.1-1.3
			c-0.9-0.6-1.6-1.4-2.1-2.3c-0.5-1-0.8-2.1-0.8-3.5h5.8c0.1,0.5,0.2,0.9,0.3,1.3c0.2,0.4,0.4,0.7,0.7,1c0.3,0.3,0.8,0.5,1.3,0.6
			c0.6,0.1,1.3,0.2,2.1,0.2c1.1,0,1.9-0.2,2.5-0.5c0.6-0.3,0.9-0.8,0.9-1.3c0-0.3,0-0.5-0.1-0.7c-0.1-0.2-0.2-0.4-0.4-0.5
			c-0.2-0.1-0.5-0.3-0.9-0.4c-0.4-0.1-0.9-0.3-1.4-0.4l-3.6-0.9c-1.1-0.3-2.1-0.6-3-0.9c-0.8-0.3-1.5-0.7-2.1-1.2
			c-0.5-0.5-0.9-1-1.2-1.6C395.6,623,395.5,622.2,395.5,621.3z"/>
		<path class="st1" d="M441.2,607.3c1.8,0,3.5,0.3,5,0.8c1.5,0.5,2.8,1.3,3.9,2.4c1.1,1.1,1.9,2.5,2.5,4.2c0.6,1.7,0.9,3.8,0.9,6.1
			c0,2.4-0.3,4.5-0.8,6.3c-0.5,1.9-1.3,3.4-2.3,4.7c-1,1.3-2.3,2.3-3.7,3c-1.5,0.7-3.1,1-4.9,1h-12.4v-28.6H441.2z M435.4,630.7h5.4
			c2,0,3.6-0.8,4.8-2.3c1.2-1.5,1.8-3.9,1.8-7.2c0-1.7-0.1-3.1-0.4-4.2c-0.3-1.1-0.7-2-1.2-2.7c-0.5-0.7-1.2-1.2-2-1.4
			c-0.8-0.3-1.8-0.4-2.9-0.4h-5.4V630.7z"/>
		<path class="st1" d="M455.9,625.5c0-1.8,0.3-3.4,0.8-4.8c0.5-1.4,1.2-2.6,2.1-3.6c0.9-1,1.9-1.7,3.2-2.2c1.2-0.5,2.6-0.8,4-0.8
			c1.6,0,3,0.2,4.3,0.7c1.3,0.5,2.4,1.3,3.2,2.3c0.9,1,1.5,2.3,2,3.9c0.4,1.6,0.6,3.5,0.6,5.7h-14.3c0,1.5,0.4,2.7,1.2,3.7
			c0.8,1,1.9,1.4,3.5,1.4c0.7,0,1.5-0.2,2.2-0.5c0.7-0.3,1.2-0.9,1.6-1.7h5.9c-0.1,0.9-0.4,1.8-0.8,2.6c-0.5,0.8-1.1,1.5-1.9,2.2
			c-0.8,0.6-1.8,1.1-3,1.5s-2.5,0.6-4,0.6c-1.2,0-2.5-0.2-3.7-0.6c-1.2-0.4-2.3-1-3.3-1.9c-1-0.9-1.8-2-2.4-3.4
			C456.2,629.3,455.9,627.6,455.9,625.5z M470.1,623.2c-0.1-1.3-0.4-2.3-1.1-3.1c-0.7-0.8-1.7-1.1-3-1.1c-1.2,0-2.2,0.4-2.8,1.1
			c-0.7,0.7-1.1,1.8-1.3,3.1H470.1z"/>
		<path class="st1" d="M484,614.7l4.3,15.4l4.4-15.4h6.1l-7.5,21.2h-6l-7.6-21.2H484z"/>
		<path class="st1" d="M500.3,625.5c0-1.8,0.3-3.4,0.8-4.8c0.5-1.4,1.2-2.6,2.1-3.6c0.9-1,1.9-1.7,3.2-2.2c1.2-0.5,2.6-0.8,4-0.8
			c1.6,0,3,0.2,4.3,0.7c1.3,0.5,2.4,1.3,3.2,2.3s1.5,2.3,2,3.9c0.4,1.6,0.6,3.5,0.6,5.7H506c0,1.5,0.4,2.7,1.2,3.7
			c0.8,1,1.9,1.4,3.5,1.4c0.7,0,1.5-0.2,2.2-0.5c0.7-0.3,1.2-0.9,1.6-1.7h5.9c-0.1,0.9-0.4,1.8-0.8,2.6c-0.5,0.8-1.1,1.5-1.9,2.2
			c-0.8,0.6-1.8,1.1-3,1.5c-1.2,0.4-2.5,0.6-4,0.6c-1.2,0-2.5-0.2-3.7-0.6c-1.2-0.4-2.3-1-3.3-1.9c-1-0.9-1.8-2-2.4-3.4
			C500.6,629.3,500.3,627.6,500.3,625.5z M514.5,623.2c-0.1-1.3-0.4-2.3-1.1-3.1c-0.7-0.8-1.7-1.1-3-1.1c-1.2,0-2.2,0.4-2.8,1.1
			c-0.7,0.7-1.1,1.8-1.3,3.1H514.5z"/>
		<path class="st1" d="M529.9,629.9c0,0.7,0.1,1.2,0.4,1.5c0.3,0.3,0.7,0.5,1.1,0.5c0.2,0,0.3,0,0.6,0c0.2,0,0.4,0,0.5,0v4.3
			c-0.5,0-0.9,0-1.3,0c-0.4,0-0.9,0-1.3,0c-1.1,0-2-0.2-2.7-0.5c-0.7-0.3-1.3-0.7-1.8-1.2c-0.5-0.5-0.8-1.1-1-1.7
			c-0.2-0.7-0.3-1.4-0.3-2.1v-23.4h5.8V629.9z"/>
		<path class="st1" d="M534.5,625.3c0-1.6,0.2-3.1,0.7-4.5c0.5-1.4,1.2-2.6,2.1-3.6c0.9-1,2.1-1.8,3.4-2.3c1.3-0.6,2.9-0.9,4.7-0.9
			c1.7,0,3.3,0.3,4.6,0.8c1.4,0.5,2.5,1.3,3.4,2.3c0.9,1,1.6,2.2,2.1,3.6c0.5,1.4,0.7,3,0.7,4.7c0,1.6-0.2,3.1-0.7,4.5
			c-0.5,1.4-1.2,2.6-2.1,3.6s-2,1.8-3.4,2.3c-1.4,0.6-2.9,0.9-4.7,0.9c-1.7,0-3.3-0.3-4.6-0.8c-1.4-0.6-2.5-1.3-3.4-2.3
			c-0.9-1-1.7-2.2-2.2-3.6C534.8,628.5,534.5,627,534.5,625.3z M540.5,625.3c0,2.2,0.4,3.8,1.3,4.9c0.9,1.1,2.1,1.6,3.6,1.6
			c1.5,0,2.7-0.6,3.6-1.7c0.9-1.1,1.3-2.7,1.3-4.8c0-2.2-0.4-3.9-1.3-4.9c-0.9-1.1-2.1-1.6-3.5-1.6c-0.6,0-1.2,0.1-1.7,0.3
			c-0.6,0.2-1.1,0.5-1.6,1c-0.5,0.5-0.9,1.1-1.1,2C540.7,622.9,540.5,624,540.5,625.3z"/>
		<path class="st1" d="M565.6,614.7v3.1c0.7-1,1.5-1.9,2.5-2.6c1-0.7,2.3-1.1,3.8-1.1c1.2,0,2.4,0.2,3.5,0.7c1.1,0.5,2,1.2,2.8,2.1
			c0.8,0.9,1.4,2,1.9,3.4c0.5,1.3,0.7,2.9,0.7,4.6c0,1.9-0.2,3.5-0.7,4.9c-0.4,1.4-1.1,2.6-1.9,3.6c-0.8,1-1.7,1.7-2.8,2.2
			c-1.1,0.5-2.3,0.7-3.6,0.7c-1.2,0-2.3-0.3-3.4-0.8c-1-0.6-1.9-1.4-2.6-2.5v11h-5.7v-29.5H565.6z M565.6,625.8c0,2,0.4,3.5,1.2,4.4
			s2,1.5,3.4,1.5c1.4,0,2.5-0.5,3.4-1.6c0.8-1.1,1.3-2.7,1.3-4.7c0-1.8-0.4-3.3-1.1-4.4c-0.8-1.1-1.9-1.7-3.5-1.7
			c-1.4,0-2.5,0.5-3.4,1.5C566,621.8,565.6,623.5,565.6,625.8z"/>
		<path class="st1" d="M590.2,614.8l0,3.1c0.7-1.2,1.5-2.1,2.5-2.7c0.9-0.6,2.2-0.9,3.7-0.9c2.8,0,4.7,1.2,5.7,3.7
			c0.7-1.3,1.7-2.2,2.7-2.8c1.1-0.6,2.4-0.9,3.8-0.9c0.8,0,1.6,0.1,2.4,0.4c0.8,0.3,1.5,0.7,2.1,1.3c0.6,0.6,1.1,1.4,1.5,2.3
			c0.4,1,0.6,2.1,0.6,3.5v14.2h-5.8v-13.4c0-1-0.2-1.8-0.7-2.4c-0.5-0.6-1.3-1-2.4-1c-0.4,0-0.8,0.1-1.3,0.2
			c-0.4,0.1-0.8,0.3-1.1,0.6c-0.3,0.3-0.6,0.7-0.8,1.3c-0.2,0.5-0.3,1.3-0.3,2.1v12.6H597v-12.5c0-1.4-0.2-2.5-0.7-3.2
			c-0.5-0.7-1.3-1-2.4-1c-1.1,0-1.9,0.3-2.6,0.9c-0.6,0.6-0.9,1.6-0.9,3.1v12.7h-5.8v-21.1H590.2z"/>
		<path class="st1" d="M618.5,625.5c0-1.8,0.3-3.4,0.8-4.8c0.5-1.4,1.2-2.6,2.1-3.6c0.9-1,1.9-1.7,3.2-2.2c1.2-0.5,2.6-0.8,4-0.8
			c1.6,0,3,0.2,4.3,0.7c1.3,0.5,2.4,1.3,3.2,2.3c0.9,1,1.5,2.3,2,3.9c0.4,1.6,0.6,3.5,0.6,5.7h-14.3c0,1.5,0.4,2.7,1.2,3.7
			c0.8,1,1.9,1.4,3.5,1.4c0.7,0,1.5-0.2,2.2-0.5c0.7-0.3,1.2-0.9,1.6-1.7h5.9c-0.1,0.9-0.4,1.8-0.8,2.6c-0.5,0.8-1.1,1.5-1.9,2.2
			c-0.8,0.6-1.8,1.1-3,1.5c-1.2,0.4-2.5,0.6-4,0.6c-1.2,0-2.5-0.2-3.7-0.6c-1.2-0.4-2.3-1-3.3-1.9c-1-0.9-1.8-2-2.4-3.4
			C618.9,629.3,618.5,627.6,618.5,625.5z M632.7,623.2c-0.1-1.3-0.4-2.3-1.1-3.1c-0.7-0.8-1.7-1.1-3-1.1c-1.2,0-2.2,0.4-2.8,1.1
			c-0.7,0.7-1.1,1.8-1.3,3.1H632.7z"/>
		<path class="st1" d="M647.9,614.7l0,3.1c1.6-2.4,3.7-3.6,6.3-3.6c2.3,0,4.2,0.6,5.5,1.8c1.3,1.2,2,3.1,2,5.6v14.3h-5.9V623
			c0-1.5-0.3-2.5-0.9-3.2c-0.6-0.6-1.5-0.9-2.7-0.9c-0.5,0-1,0.1-1.5,0.2c-0.5,0.1-1,0.4-1.4,0.8c-0.4,0.4-0.7,1-1,1.7
			c-0.2,0.7-0.4,1.7-0.4,2.8v11.4h-5.8v-21.2H647.9z"/>
		<path class="st1" d="M667.5,615v-6h5.7v6h3.5v4h-3.5v10.9c0,0.5,0,0.8,0.1,1.1c0.1,0.3,0.2,0.5,0.4,0.6c0.2,0.1,0.4,0.2,0.7,0.3
			c0.3,0,0.7,0.1,1.2,0.1c0.2,0,0.3,0,0.6,0c0.2,0,0.4,0,0.5,0v4.3c-0.4,0-0.9,0-1.3,0c-0.4,0-0.9,0-1.3,0c-1.2,0-2.2-0.1-3-0.2
			c-0.8-0.1-1.5-0.4-2-0.7c-0.5-0.3-0.9-0.8-1.1-1.3c-0.2-0.6-0.4-1.2-0.4-2.1V619h-2.9v-4H667.5z"/>
	</g>
	<g>
		<path class="st1" d="M129,432.8l25.4,45v-45h13.2v65.5h-14l-26-45.8v45.8h-13.2v-65.5H129z"/>
		<path class="st1" d="M192.6,432.3v11.8h-13.2v-11.8H192.6z M192.6,449.8v48.5h-13.2v-48.5H192.6z"/>
		<path class="st1" d="M217.8,433V468l15.4-18h16.2l-16.8,18.6l17.5,29.6h-15.8l-11.2-20.4l-5.2,5.5v14.9h-12.9V433H217.8z"/>
		<path class="st1" d="M253.1,474c0-3.7,0.5-7.1,1.6-10.3c1.1-3.2,2.7-5.9,4.8-8.2c2.1-2.3,4.7-4.1,7.8-5.4c3.1-1.3,6.7-2,10.7-2
			c4,0,7.5,0.6,10.6,1.8c3.1,1.2,5.7,2.9,7.9,5.2c2.2,2.2,3.8,5,4.9,8.2c1.1,3.2,1.6,6.8,1.6,10.8c0,3.7-0.5,7.1-1.6,10.3
			c-1.1,3.2-2.6,5.9-4.7,8.1c-2.1,2.3-4.7,4.1-7.8,5.4c-3.1,1.3-6.7,2-10.8,2c-3.9,0-7.5-0.6-10.5-1.9c-3.1-1.3-5.7-3-7.9-5.3
			c-2.2-2.3-3.8-5-5-8.2C253.7,481.4,253.1,477.9,253.1,474z M267,474c0,5,1,8.7,2.9,11.2c2,2.5,4.7,3.7,8.3,3.7
			c3.4,0,6.1-1.3,8.2-3.8c2-2.5,3-6.2,3-10.9c0-5.1-1-8.9-3.1-11.3c-2-2.5-4.8-3.7-8.1-3.7c-1.3,0-2.6,0.2-4,0.6
			c-1.3,0.4-2.5,1.1-3.6,2.2c-1.1,1.1-2,2.6-2.6,4.5C267.3,468.5,267,471,267,474z"/>
		<path class="st1" d="M325.6,484.5c0,1.6,0.3,2.7,1,3.5c0.6,0.7,1.5,1.1,2.6,1.1c0.4,0,0.8,0,1.3,0c0.5,0,0.9,0,1.2-0.1v9.8
			c-1,0.1-2,0.1-3,0.1c-1,0-2,0-3,0c-2.5,0-4.6-0.3-6.3-1c-1.7-0.7-3-1.6-4.1-2.7c-1-1.1-1.8-2.4-2.2-4c-0.4-1.5-0.6-3.1-0.6-4.7
			v-53.7h13.2V484.5z"/>
		<path class="st1" d="M336,475.3c0-4.3,0.5-8.1,1.5-11.4c1-3.3,2.5-6.1,4.3-8.4c1.8-2.3,4.1-4,6.6-5.2c2.6-1.2,5.4-1.8,8.5-1.8
			c3.1,0,5.8,0.7,8.2,2.2c2.4,1.5,4.2,3.5,5.5,6.3v-7.2h12.9v48.4h-12.8v-6.7c-1.5,2.4-3.3,4.4-5.6,6c-2.3,1.5-5.3,2.3-9.1,2.3
			c-2.6,0-5.1-0.6-7.5-1.7c-2.4-1.1-4.6-2.7-6.4-4.8c-1.8-2.1-3.3-4.7-4.5-7.7C336.5,482.6,336,479.1,336,475.3z M349.4,474.2
			c0,5.2,1,8.9,3,11.1c2,2.2,4.5,3.3,7.5,3.3c1.5,0,2.8-0.3,4.1-0.8c1.3-0.5,2.4-1.3,3.4-2.5c1-1.1,1.7-2.6,2.3-4.3
			c0.6-1.8,0.9-3.9,0.9-6.4c0-4.7-0.9-8.4-2.8-10.9c-1.9-2.5-4.5-3.8-7.9-3.8c-3.2,0-5.7,1.2-7.6,3.5
			C350.4,466,349.4,469.5,349.4,474.2z"/>
		<path class="st1" d="M393.8,451.3c0-2.9,0.5-5.6,1.6-8.1c1.1-2.5,2.7-4.7,4.8-6.5c2.1-1.8,4.8-3.3,7.9-4.4
			c3.2-1.1,6.9-1.6,11.1-1.6c3.6,0,6.9,0.5,9.9,1.6c3,1,5.7,2.5,7.9,4.4c2.2,1.9,4,4.1,5.4,6.8c1.3,2.7,2.1,5.6,2.2,8.9h-13.6
			c-0.2-3.2-1.4-5.7-3.6-7.3c-2.2-1.7-5.3-2.5-9.2-2.5c-3.6,0-6.4,0.7-8.4,2.2c-1.9,1.5-2.9,3.3-2.9,5.6c0,1,0.2,1.8,0.5,2.5
			c0.3,0.7,0.9,1.4,1.7,2c0.8,0.6,1.9,1.2,3.4,1.7c1.5,0.5,3.3,1,5.6,1.6l11.5,2.6c2.4,0.5,4.7,1.3,6.7,2.2c2.1,0.9,3.9,2.1,5.4,3.5
			c1.5,1.5,2.8,3.2,3.6,5.2c0.9,2,1.3,4.5,1.3,7.3c0,2.7-0.5,5.3-1.6,7.9c-1.1,2.5-2.7,4.7-4.9,6.7c-2.2,1.9-4.9,3.5-8.2,4.6
			c-3.3,1.1-7.2,1.7-11.6,1.7c-4.1,0-7.8-0.5-11.2-1.4c-3.4-0.9-6.3-2.3-8.7-4.1c-2.4-1.8-4.3-4.1-5.6-6.8c-1.3-2.7-2-5.9-2-9.5
			h13.6c0.4,3.6,1.7,6.2,3.8,7.8c2.1,1.6,5.3,2.5,9.6,2.5c8.8,0,13.2-2.8,13.2-8.4c0-0.7-0.1-1.4-0.3-2.1c-0.2-0.7-0.7-1.3-1.5-2
			c-0.8-0.6-1.9-1.3-3.5-1.9c-1.5-0.6-3.7-1.3-6.4-1.9l-10.4-2.4c-5.6-1.3-9.9-3.4-12.9-6.2C395.3,460.8,393.8,456.7,393.8,451.3z"
			/>
		<path class="st1" d="M452.8,474c0-3.7,0.5-7.1,1.6-10.3c1.1-3.2,2.7-5.9,4.8-8.2c2.1-2.3,4.7-4.1,7.8-5.4c3.1-1.3,6.7-2,10.7-2
			c4,0,7.5,0.6,10.6,1.8c3.1,1.2,5.7,2.9,7.9,5.2c2.2,2.2,3.8,5,4.9,8.2c1.1,3.2,1.6,6.8,1.6,10.8c0,3.7-0.5,7.1-1.6,10.3
			c-1.1,3.2-2.6,5.9-4.7,8.1c-2.1,2.3-4.7,4.1-7.8,5.4c-3.1,1.3-6.7,2-10.8,2c-3.9,0-7.5-0.6-10.5-1.9c-3.1-1.3-5.7-3-7.9-5.3
			c-2.2-2.3-3.8-5-5-8.2C453.3,481.4,452.8,477.9,452.8,474z M466.6,474c0,5,1,8.7,2.9,11.2c2,2.5,4.7,3.7,8.3,3.7
			c3.4,0,6.1-1.3,8.2-3.8c2-2.5,3-6.2,3-10.9c0-5.1-1-8.9-3.1-11.3c-2-2.5-4.8-3.7-8.1-3.7c-1.3,0-2.6,0.2-4,0.6
			c-1.3,0.4-2.5,1.1-3.6,2.2c-1.1,1.1-2,2.6-2.6,4.5C466.9,468.5,466.6,471,466.6,474z"/>
		<path class="st1" d="M513.7,450.2v-2.7c0-2.7,0.2-5,0.7-6.9c0.5-1.9,1.3-3.5,2.5-4.8c1.2-1.2,2.9-2.2,5-2.8c2.1-0.6,4.8-0.9,8-0.9
			c2,0,3.6,0.1,4.9,0.3v10.5c-0.3-0.1-0.8-0.1-1.4-0.1c-0.6,0-1.3,0-2.2,0c-1.4,0-2.5,0.3-3.2,0.8c-0.8,0.5-1.1,1.4-1.1,2.6v4h8.4
			v9.2h-8.4v38.8h-13v-38.8h-7.1v-9.2H513.7z"/>
		<path class="st1" d="M544.2,450.3v-13.6h13v13.6h7.9v9.2h-7.9v25c0,1,0.1,1.8,0.2,2.4c0.2,0.6,0.4,1,0.8,1.4
			c0.4,0.3,0.9,0.5,1.6,0.6c0.7,0.1,1.6,0.1,2.8,0.1c0.4,0,0.8,0,1.3,0c0.5,0,0.9,0,1.2-0.1v9.8c-1,0.1-2,0.1-3,0.1c-1,0-2,0-3,0
			c-2.7,0-5-0.2-6.9-0.5c-1.9-0.3-3.5-0.8-4.6-1.6c-1.2-0.8-2-1.8-2.6-3c-0.5-1.3-0.8-2.8-0.8-4.7v-29.6h-6.7v-9.2H544.2z"/>
	</g>
</g>
</svg>
