<?xml version="1.0" encoding="utf-8"?>
<!-- Generator: Adobe Illustrator 21.0.0, SVG Export Plug-In . SVG Version: 6.00 Build 0)  -->
<svg version="1.1" id="Capa_1" xmlns="http://www.w3.org/2000/svg" xmlns:xlink="http://www.w3.org/1999/xlink" x="0px" y="0px"
	 viewBox="0 0 522.5 485.5" style="enable-background:new 0 0 522.5 485.5;" xml:space="preserve">
<style type="text/css">
	.st0{opacity:0.4;fill:#FFB600;}
	.st1{fill:#FFFFFF;}
	.st2{fill:#211915;}
	.st3{fill:#4C27B9;}
	.st4{fill:#FFB600;}
</style>
<g>
	<g>
		<g>
			<g>
				<g>
					<g>
						<path class="st1" d="M238.6,106.4c-0.6-0.6-1.5-0.6-2.1,0c-0.6,0.7-5.5,5.7-6.1,6.3c-0.3,0.3-0.5,0.7-0.5,1.1
							c0,0.4,0.1,0.9,0.5,1.1c1.2,1.2,7.1,7.4,17.6,18.4c-10.5,11-16.4,17.2-17.6,18.4c-0.3,0.3-0.5,0.7-0.5,1.1
							c0,0.4,0.1,0.8,0.5,1.1c0.6,0.7,5.5,5.7,6.1,6.3c0.3,0.3,0.7,0.5,1.1,0.5c0.4,0,0.8-0.1,1.1-0.5c2.5-2.6,22.2-23.3,24.7-25.9
							c0.3-0.3,0.5-0.7,0.5-1.1c0-0.4-0.1-0.8-0.5-1.1C260.8,129.7,241,108.9,238.6,106.4z"/>
						<path class="st1" d="M238.6,106.4c-0.6-0.6-1.5-0.6-2.1,0c-0.6,0.7-5.5,5.7-6.1,6.3c-0.3,0.3-0.5,0.7-0.5,1.1
							c0,0.4,0.1,0.9,0.5,1.1c1.2,1.2,7.1,7.4,17.6,18.4c-10.5,11-16.4,17.2-17.6,18.4c-0.3,0.3-0.5,0.7-0.5,1.1
							c0,0.4,0.1,0.8,0.5,1.1c0.6,0.7,5.5,5.7,6.1,6.3c0.3,0.3,0.7,0.5,1.1,0.5c0.4,0,0.8-0.1,1.1-0.5c2.5-2.6,22.2-23.3,24.7-25.9
							c0.3-0.3,0.5-0.7,0.5-1.1c0-0.4-0.1-0.8-0.5-1.1C260.8,129.7,241,108.9,238.6,106.4z"/>
						<path class="st1" d="M290.1,188.4c0,8.5,0,21.8,0,30.3c0,6.8-6.1,12.4-13.6,12.4c-8.3,0-19.2,0-27.5,0
							c-7.6,0-13.4-5.7-13.4-12.4c0-8.5,0-21.8,0-30.3c0-6.8,5.9-12.4,13.4-12.4c8.3,0,19.2,0,27.5,0
							C284,175.9,290.1,181.6,290.1,188.4z"/>
						<path class="st1" d="M290.1,188.4c0,8.5,0,21.8,0,30.3c0,6.8-6.1,12.4-13.6,12.4c-8.3,0-19.2,0-27.5,0
							c-7.6,0-13.4-5.7-13.4-12.4c0-8.5,0-21.8,0-30.3c0-6.8,5.9-12.4,13.4-12.4c8.3,0,19.2,0,27.5,0
							C284,175.9,290.1,181.6,290.1,188.4z"/>
						<path class="st1" d="M420.4,133.4c5.1,0,9.4,4.4,9.4,9.6c0,8.7,0,25.4,0,34.1c0,5.1-4.3,9.6-9.4,9.6c-8.7,0-25.6,0-34.4,0
							c-5.1,0-9.4-4.5-9.4-9.6c0-8.7,0-25.4,0-34.1c0-5.1,4.3-9.6,9.4-9.6C394.8,133.4,411.7,133.4,420.4,133.4z"/>
						<path class="st1" d="M420.4,133.4c5.1,0,9.4,4.4,9.4,9.6c0,8.7,0,25.4,0,34.1c0,5.1-4.3,9.6-9.4,9.6c-8.7,0-25.6,0-34.4,0
							c-5.1,0-9.4-4.5-9.4-9.6c0-8.7,0-25.4,0-34.1c0-5.1,4.3-9.6,9.4-9.6C394.8,133.4,411.7,133.4,420.4,133.4z"/>
						<path class="st1" d="M378.8,162.6c8.3,0,15,6.7,15,14.9c0,13.9,0,40.8,0,54.7c0,8.3-6.8,14.8-15,14.8c-13.2,0-37.9,0-51,0
							c-8.3,0-15.1-6.6-15.1-14.8c0-13.9,0-40.8,0-54.7c0-8.3,6.9-14.9,15.1-14.9C341,162.6,365.7,162.6,378.8,162.6z"/>
						<path class="st1" d="M405.8,224.5c4.1,0,7.4,3.5,7.4,7.5c0,6.9,0,20,0,26.9c0,4.1-3.3,7.5-7.4,7.5c-6.7,0-19.5,0-26.2,0
							c-4.1,0-7.7-3.5-7.7-7.5c0-6.9,0-20,0-26.9c0-4.1,3.6-7.5,7.7-7.5C386.3,224.5,399.1,224.5,405.8,224.5z"/>
						<path class="st1" d="M405.8,224.5c4.1,0,7.4,3.5,7.4,7.5c0,6.9,0,20,0,26.9c0,4.1-3.3,7.5-7.4,7.5c-6.7,0-19.5,0-26.2,0
							c-4.1,0-7.7-3.5-7.7-7.5c0-6.9,0-20,0-26.9c0-4.1,3.6-7.5,7.7-7.5C386.3,224.5,399.1,224.5,405.8,224.5z"/>
						<path class="st1" d="M260.2,149.3h35.3v12h-35.3V149.3z"/>
						<g>
							<path class="st1" d="M341.7,0H180.5c-7.8,0-14.2,6.4-14.2,14.2v351.3c0,7.8,6.4,14.2,14.2,14.2h161.2
								c7.8,0,14.2-6.4,14.2-14.2V14.2C355.9,6.4,349.5,0,341.7,0z M260.8,361.6c-7.8,0-14.2-6.3-14.2-14.2
								c0-7.8,6.3-14.2,14.2-14.2c7.8,0,14.2,6.3,14.2,14.2C275,355.2,268.7,361.6,260.8,361.6z M345.4,323h-169V46.2h169V323z"/>
						</g>
					</g>
				</g>
			</g>
		</g>
	</g>
	<g>
		<path class="st1" d="M16.9,407.6l29.4,52.2v-52.2h15.3v75.9H45.4l-30.1-53.1v53.1H0v-75.9H16.9z"/>
		<path class="st1" d="M90.6,407v13.7H75.4V407H90.6z M90.6,427.3v56.2H75.4v-56.2H90.6z"/>
		<path class="st1" d="M119.8,407.9v40.5l17.8-20.9h18.8l-19.5,21.6l20.2,34.4h-18.3l-13-23.6l-6,6.3v17.3h-15v-75.6H119.8z"/>
		<path class="st1" d="M160.8,455.4c0-4.3,0.6-8.3,1.9-12c1.3-3.7,3.1-6.9,5.6-9.5c2.5-2.6,5.5-4.7,9.1-6.2
			c3.6-1.5,7.7-2.3,12.4-2.3c4.6,0,8.7,0.7,12.3,2.1c3.6,1.4,6.6,3.4,9.1,6c2.5,2.6,4.4,5.8,5.6,9.5c1.3,3.7,1.9,7.9,1.9,12.5
			c0,4.3-0.6,8.3-1.8,11.9c-1.2,3.7-3.1,6.8-5.5,9.4c-2.4,2.6-5.4,4.7-9,6.2c-3.6,1.5-7.8,2.3-12.5,2.3c-4.6,0-8.6-0.7-12.2-2.2
			c-3.6-1.5-6.6-3.5-9.1-6.2c-2.5-2.6-4.4-5.8-5.7-9.5C161.5,463.9,160.8,459.9,160.8,455.4z M176.9,455.4c0,5.8,1.1,10.1,3.4,13
			c2.3,2.9,5.5,4.3,9.6,4.3c4,0,7.1-1.5,9.5-4.4c2.3-3,3.5-7.2,3.5-12.6c0-5.9-1.2-10.3-3.6-13.1c-2.4-2.8-5.5-4.3-9.4-4.3
			c-1.5,0-3.1,0.2-4.6,0.7c-1.5,0.5-2.9,1.3-4.2,2.6c-1.3,1.3-2.3,3-3,5.3C177.2,449,176.9,451.9,176.9,455.4z"/>
		<path class="st1" d="M244.8,467.5c0,1.8,0.4,3.2,1.1,4c0.7,0.8,1.7,1.3,3,1.3c0.4,0,0.9,0,1.5,0c0.6,0,1,0,1.4-0.1v11.4
			c-1.2,0.1-2.4,0.1-3.5,0.1c-1.1,0-2.3,0-3.5,0c-2.9,0-5.3-0.4-7.3-1.2c-1.9-0.8-3.5-1.9-4.7-3.2c-1.2-1.3-2.1-2.8-2.5-4.6
			c-0.5-1.8-0.7-3.6-0.7-5.5v-62.2h15.3V467.5z"/>
		<path class="st1" d="M256.9,456.9c0-5,0.6-9.4,1.8-13.2c1.2-3.8,2.9-7.1,5-9.7c2.1-2.6,4.7-4.6,7.7-6c3-1.4,6.3-2.1,9.9-2.1
			c3.6,0,6.7,0.8,9.5,2.5c2.7,1.7,4.9,4.1,6.4,7.3v-8.3h15v56.1h-14.9v-7.8c-1.7,2.8-3.8,5.1-6.5,6.9c-2.6,1.8-6.2,2.7-10.6,2.7
			c-3,0-5.9-0.7-8.7-1.9c-2.8-1.3-5.3-3.2-7.4-5.6c-2.1-2.4-3.9-5.4-5.2-8.9C257.5,465.3,256.9,461.3,256.9,456.9z M272.5,455.6
			c0,6,1.2,10.3,3.5,12.9c2.3,2.6,5.2,3.8,8.6,3.8c1.7,0,3.3-0.3,4.8-0.9c1.5-0.6,2.8-1.5,4-2.8c1.1-1.3,2-3,2.7-5
			c0.7-2,1-4.5,1-7.4c0-5.5-1.1-9.7-3.3-12.6c-2.2-3-5.2-4.4-9.2-4.4c-3.7,0-6.6,1.4-8.8,4.1C273.6,446,272.5,450.2,272.5,455.6z"/>
		<path class="st1" d="M323.9,429.1c0-3.4,0.6-6.5,1.9-9.4c1.2-2.9,3.1-5.4,5.6-7.5c2.5-2.1,5.5-3.8,9.2-5.1c3.7-1.2,8-1.8,12.9-1.8
			c4.1,0,8,0.6,11.5,1.8c3.5,1.2,6.6,2.9,9.2,5c2.6,2.2,4.7,4.8,6.2,7.9c1.5,3.1,2.4,6.5,2.5,10.3h-15.7c-0.2-3.7-1.6-6.6-4.2-8.5
			c-2.6-1.9-6.1-2.9-10.6-2.9c-4.2,0-7.4,0.9-9.7,2.6c-2.2,1.7-3.4,3.9-3.4,6.5c0,1.1,0.2,2.1,0.5,2.9c0.4,0.8,1,1.6,1.9,2.3
			c0.9,0.7,2.3,1.4,3.9,1.9c1.7,0.6,3.9,1.2,6.5,1.8l13.4,3.1c2.8,0.6,5.4,1.5,7.8,2.5c2.4,1.1,4.5,2.4,6.3,4.1
			c1.8,1.7,3.2,3.7,4.2,6c1,2.4,1.5,5.2,1.5,8.5c0,3.2-0.6,6.2-1.8,9.1c-1.2,2.9-3.1,5.5-5.6,7.7c-2.5,2.2-5.7,4-9.5,5.4
			c-3.8,1.3-8.3,2-13.4,2c-4.8,0-9.1-0.5-13-1.6c-3.9-1.1-7.2-2.6-10.1-4.7c-2.8-2.1-5-4.7-6.5-7.9c-1.5-3.2-2.3-6.9-2.3-11.1h15.7
			c0.5,4.1,1.9,7.2,4.4,9.1c2.4,1.9,6.1,2.8,11.1,2.8c10.2,0,15.3-3.2,15.3-9.7c0-0.8-0.1-1.6-0.4-2.4c-0.2-0.8-0.8-1.5-1.7-2.3
			c-0.9-0.7-2.2-1.5-4-2.2c-1.8-0.7-4.3-1.5-7.4-2.2l-12-2.7c-6.5-1.5-11.5-4-14.9-7.2C325.6,440.1,323.9,435.3,323.9,429.1z"/>
		<path class="st1" d="M392.2,455.4c0-4.3,0.6-8.3,1.9-12c1.3-3.7,3.1-6.9,5.6-9.5c2.5-2.6,5.5-4.7,9.1-6.2
			c3.6-1.5,7.7-2.3,12.4-2.3c4.6,0,8.7,0.7,12.3,2.1c3.6,1.4,6.6,3.4,9.1,6c2.5,2.6,4.4,5.8,5.6,9.5c1.3,3.7,1.9,7.9,1.9,12.5
			c0,4.3-0.6,8.3-1.8,11.9c-1.2,3.7-3.1,6.8-5.5,9.4c-2.4,2.6-5.4,4.7-9,6.2c-3.6,1.5-7.8,2.3-12.5,2.3c-4.6,0-8.6-0.7-12.2-2.2
			c-3.6-1.5-6.6-3.5-9.1-6.2c-2.5-2.6-4.4-5.8-5.7-9.5C392.8,463.9,392.2,459.9,392.2,455.4z M408.2,455.4c0,5.8,1.1,10.1,3.4,13
			c2.3,2.9,5.5,4.3,9.6,4.3c4,0,7.1-1.5,9.5-4.4c2.3-3,3.5-7.2,3.5-12.6c0-5.9-1.2-10.3-3.6-13.1c-2.4-2.8-5.5-4.3-9.4-4.3
			c-1.5,0-3.1,0.2-4.6,0.7c-1.5,0.5-2.9,1.3-4.2,2.6c-1.3,1.3-2.3,3-3,5.3C408.6,449,408.2,451.9,408.2,455.4z"/>
		<path class="st1" d="M462.8,427.8v-3.2c0-3.1,0.3-5.8,0.8-8c0.6-2.2,1.5-4.1,2.9-5.5c1.4-1.4,3.3-2.5,5.8-3.2
			c2.4-0.7,5.5-1.1,9.2-1.1c2.3,0,4.2,0.1,5.7,0.3v12.2c-0.4-0.1-0.9-0.1-1.6-0.2c-0.7,0-1.5-0.1-2.5-0.1c-1.6,0-2.9,0.3-3.7,0.9
			c-0.9,0.6-1.3,1.7-1.3,3.1v4.6h9.7v10.6h-9.7v45H463v-45h-8.2v-10.6H462.8z"/>
		<path class="st1" d="M498.2,427.9v-15.8h15.1v15.8h9.2v10.6h-9.2v29c0,1.2,0.1,2.1,0.3,2.8c0.2,0.7,0.5,1.2,0.9,1.6
			c0.5,0.4,1.1,0.6,1.9,0.7c0.8,0.1,1.9,0.2,3.2,0.2c0.4,0,0.9,0,1.5,0c0.6,0,1,0,1.4-0.1v11.4c-1.2,0.1-2.4,0.1-3.5,0.1
			c-1.1,0-2.3,0-3.5,0c-3.1,0-5.7-0.2-8-0.5c-2.2-0.4-4-1-5.4-1.8c-1.4-0.9-2.4-2.1-3-3.5c-0.6-1.5-0.9-3.3-0.9-5.5v-34.3h-7.8
			v-10.6H498.2z"/>
	</g>
</g>
</svg>
