<?xml version="1.0" encoding="utf-8"?>
<!-- Generator: Adobe Illustrator 23.0.2, SVG Export Plug-In . SVG Version: 6.00 Build 0)  -->
<svg version="1.1" id="Capa_1" xmlns="http://www.w3.org/2000/svg" xmlns:xlink="http://www.w3.org/1999/xlink" x="0px" y="0px"
	 viewBox="0 0 213.13 34.7" style="enable-background:new 0 0 213.13 34.7;" xml:space="preserve">
<g>
	<g>
		<path d="M10.94,9.34L8.7,8.21c-1.82-0.92-3-1.61-3.51-2.07C4.75,5.76,4.54,5.18,4.54,4.36c0-0.67,0.24-1.22,0.72-1.68
			c0.49-0.47,1.16-0.7,2.04-0.7c1.3,0,2.37,0.49,3.28,1.5c0.94,1.04,1.61,2.3,1.98,3.75l0.09,0.37h1.72V0H12.6l-0.09,0.37
			c-0.06,0.26-0.15,0.47-0.24,0.61c-0.02,0.03-0.1,0.07-0.26,0.07c-0.02,0-0.24-0.03-1.62-0.48C9.32,0.22,8.2,0.04,7.05,0.04
			c-2.3,0-4.05,0.71-5.18,2.11C0.76,3.52,0.19,5.02,0.19,6.62c0,1.51,0.44,2.79,1.3,3.83c0.83,1,2.25,2.01,4.22,3l1.93,0.98
			c1.15,0.58,1.92,1.04,2.27,1.38c0.5,0.48,0.74,1.09,0.74,1.87c0,0.66-0.25,1.31-0.75,1.92c-0.47,0.58-1.31,0.88-2.5,0.88
			c-1.25,0-2.39-0.47-3.36-1.41c-1-0.96-1.74-2.54-2.2-4.69l-0.08-0.39H0v8.5h1.74l0.1-0.37c0.07-0.28,0.16-0.5,0.24-0.64
			c0.01-0.01,0.07-0.05,0.23-0.05c0.04,0,0.11,0.01,0.23,0.03c0.11,0.02,0.22,0.05,0.33,0.08l0.57,0.22
			c0.63,0.25,1.28,0.43,1.92,0.55c0.64,0.12,1.29,0.18,1.92,0.18c2.76,0,4.81-0.74,6.09-2.2c1.27-1.44,1.91-3.01,1.91-4.66
			c0-1.76-0.61-3.28-1.8-4.52C12.83,10.46,11.99,9.86,10.94,9.34z"/>
		<path d="M40.04,2.26l0.46,0.03c0.86,0.05,1.18,0.14,1.3,0.2c0.1,0.05,0.35,0.15,0.35,0.68c0,0.21-0.02,0.41-0.05,0.58
			c-0.04,0.18-0.08,0.35-0.13,0.51l-2.8,8.45l-2.93-8.24c-0.15-0.48-0.26-0.85-0.32-1.12c-0.08-0.36-0.08-0.45-0.08-0.46
			c0-0.29,0.09-0.33,0.13-0.35c0.14-0.06,0.53-0.16,1.6-0.25L38,2.25V0.56H27.53v1.69l0.46,0.03c0.84,0.06,1.16,0.17,1.27,0.24
			c0.19,0.11,0.39,0.31,0.56,0.58c0.06,0.1,0.21,0.42,0.59,1.49c0.25,0.7,0.34,1.01,0.38,1.14l-2.97,7.61L24.52,3.9
			c-0.05-0.17-0.09-0.33-0.12-0.48c-0.03-0.15-0.04-0.27-0.04-0.37c0-0.33,0.07-0.48,0.14-0.51c0.12-0.06,0.45-0.18,1.33-0.26
			l0.44-0.04V0.56h-9.92v1.66l0.43,0.06c0.49,0.07,0.85,0.18,1.05,0.34c0.09,0.07,0.34,0.34,0.67,1.28l6.53,18.66h1.53l5.31-13.61
			l4.87,13.61h1.5l6.19-18.67c0.21-0.64,0.5-1.09,0.84-1.33c0.2-0.13,0.49-0.22,0.89-0.28l0.42-0.06V0.56h-6.54V2.26z"/>
		<path d="M66.29,15.05c-0.9,1.97-1.94,3.31-3.07,4.01c-1.14,0.7-2.65,1.05-4.49,1.05c-1.25,0-1.64-0.18-1.76-0.26
			c-0.19-0.13-0.29-0.45-0.29-0.91v-6.85c1.32,0.06,2.24,0.36,2.75,0.89c0.59,0.63,0.99,1.76,1.2,3.38l0.05,0.43h1.69V5.56h-1.67
			l-0.08,0.4c-0.31,1.62-0.74,2.73-1.28,3.3c-0.46,0.48-1.35,0.75-2.67,0.78V3.51c0-0.57,0.14-0.73,0.19-0.76
			c0.03-0.02,0.28-0.19,1.47-0.19c2.32,0,3.91,0.33,4.74,0.98c0.82,0.64,1.42,1.9,1.78,3.72l0.08,0.4h1.64v-7.1H48.12v1.73
			l0.46,0.03c1,0.06,1.43,0.19,1.62,0.3c0.41,0.21,0.61,0.65,0.61,1.35v14.7c0,0.68-0.19,1.13-0.6,1.35
			c-0.17,0.09-0.6,0.26-1.63,0.29l-0.47,0.02v1.74h18.63l1.42-7.29h-1.75L66.29,15.05z"/>
		<path d="M86.7,15.05c-0.9,1.97-1.94,3.31-3.07,4.01c-1.14,0.7-2.65,1.05-4.49,1.05c-1.25,0-1.65-0.18-1.76-0.26
			c-0.19-0.13-0.29-0.45-0.29-0.91v-6.85c1.32,0.06,2.24,0.36,2.75,0.89c0.59,0.63,0.99,1.76,1.2,3.38l0.05,0.43h1.69V5.56h-1.67
			l-0.08,0.4c-0.31,1.62-0.74,2.73-1.28,3.3c-0.46,0.48-1.35,0.75-2.67,0.78V3.51c0-0.57,0.14-0.73,0.19-0.76
			c0.03-0.02,0.28-0.19,1.47-0.19c2.32,0,3.91,0.33,4.74,0.98c0.82,0.64,1.42,1.9,1.78,3.72l0.08,0.4H87v-7.1H68.53v1.73l0.46,0.03
			c1,0.06,1.43,0.19,1.62,0.3c0.41,0.21,0.61,0.65,0.61,1.35v14.7c0,0.68-0.19,1.13-0.6,1.35c-0.17,0.09-0.6,0.26-1.63,0.29
			l-0.47,0.02v1.74h18.63l1.42-7.29h-1.75L86.7,15.05z"/>
		<path d="M89.09,0.56l-0.03,7.1h1.82l0.04-0.45c0.17-2.01,0.9-3.34,2.2-4.05c0.63-0.34,1.53-0.55,2.68-0.62v15.48
			c0,1.26-0.27,1.71-0.43,1.86c-0.17,0.16-0.65,0.42-2.03,0.42h-0.49v1.75h11.8V20.3h-0.49c-1.44,0-1.94-0.26-2.1-0.42
			c-0.16-0.15-0.43-0.59-0.43-1.87V2.54c1.18,0.07,2.08,0.28,2.67,0.61c1.21,0.69,1.95,2.06,2.22,4.08l0.06,0.43h1.8l-0.03-7.1
			H89.09z"/>
		<path d="M128.46,2.26l0.19,0.05l0.03,0.01c1.1,0.07,1.52,0.22,1.67,0.31c0.38,0.21,0.56,0.65,0.56,1.34v5.81h-6.25V3.96
			c0-0.69,0.2-1.13,0.6-1.35c0.16-0.09,0.58-0.24,1.65-0.3l0.21-0.06v-1.7h-11v1.71l0.44,0.04c1.08,0.11,1.47,0.25,1.6,0.33
			c0.35,0.21,0.52,0.64,0.52,1.32v14.7c0,0.69-0.19,1.14-0.59,1.36c-0.15,0.08-0.55,0.23-1.5,0.28l-0.47,0.02v1.73h11.04v-1.72
			l-0.26-0.03c-1-0.04-1.43-0.18-1.59-0.26c-0.44-0.23-0.65-0.68-0.65-1.39v-6.5h6.25v6.5c0,0.68-0.2,1.13-0.6,1.35
			c-0.17,0.09-0.6,0.26-1.63,0.29l-0.34,0.02v1.73h11.18v-1.73l-0.47-0.02c-0.91-0.03-1.33-0.16-1.52-0.27
			c-0.43-0.23-0.64-0.68-0.64-1.37V3.96c0-0.68,0.19-1.11,0.57-1.33c0.15-0.08,0.55-0.24,1.62-0.32l0.45-0.04V0.56h-11.08V2.26z"/>
		<path d="M151.45,0.1c-3.3,0-6.04,1.1-8.15,3.26c-2.08,2.13-3.13,4.88-3.13,8.18c0,3,1.01,5.6,2.99,7.72
			c2.13,2.26,4.92,3.4,8.28,3.4c3.17,0,5.85-1.04,7.97-3.1c2.17-2.11,3.28-4.86,3.28-8.18c0-3.31-1.1-6.06-3.27-8.18
			C157.31,1.15,154.63,0.1,151.45,0.1z M147.19,5.87c0.79-2.53,2.18-3.76,4.25-3.76c1.48,0,2.62,0.73,3.5,2.22
			c0.92,1.56,1.38,3.93,1.38,7.06c0,2.29-0.22,4.17-0.66,5.57c-0.79,2.49-2.17,3.7-4.22,3.7c-2.07,0-3.46-1.21-4.24-3.7
			c-0.44-1.4-0.66-3.27-0.66-5.57C146.54,9.12,146.76,7.26,147.19,5.87z"/>
		<path d="M177.52,14.14l-5.77-13.58h-8.46v1.72l0.45,0.04c1.21,0.09,1.69,0.31,1.87,0.43c0.24,0.16,0.37,0.58,0.37,1.22v14.42
			c0,0.68-0.13,1.17-0.4,1.48c-0.14,0.16-0.57,0.43-1.89,0.45l-0.49,0v1.75h8.08v-1.73l-0.47-0.02c-1.48-0.06-1.97-0.4-2.13-0.59
			c-0.3-0.38-0.45-1.02-0.45-1.91V6.15l6.79,15.8l0.04,0.1h1.46l6.84-16.41v12.92c0,0.72-0.15,1.19-0.44,1.36
			c-0.38,0.23-0.98,0.36-1.79,0.38l-0.47,0.02v1.74h11.06v-1.73l-0.47-0.02c-1.18-0.05-1.63-0.3-1.79-0.45
			c-0.15-0.14-0.4-0.56-0.4-1.83V4.6c0-1.41,0.29-1.75,0.38-1.82c0.17-0.13,0.63-0.37,1.84-0.46l0.45-0.03V0.56h-8.47L177.52,14.14z
			"/>
		<path d="M211.37,14.76l-0.13,0.29c-0.9,1.97-1.94,3.31-3.07,4.01c-1.14,0.7-2.65,1.05-4.49,1.05c-1.25,0-1.64-0.18-1.76-0.26
			c-0.19-0.13-0.29-0.45-0.29-0.91v-6.85c1.32,0.06,2.24,0.36,2.75,0.89c0.59,0.63,0.99,1.76,1.2,3.38l0.05,0.43h1.69V5.56h-1.67
			l-0.08,0.4c-0.31,1.62-0.74,2.73-1.28,3.3c-0.46,0.48-1.35,0.75-2.67,0.78V3.51c0-0.56,0.13-0.72,0.19-0.76
			c0.03-0.02,0.28-0.19,1.47-0.19c2.32,0,3.91,0.33,4.74,0.98c0.82,0.64,1.42,1.9,1.78,3.72l0.08,0.4h1.64v-7.1h-18.47v1.73
			l0.46,0.03c1,0.06,1.43,0.19,1.62,0.3c0.41,0.21,0.61,0.65,0.61,1.35v14.7c0,0.68-0.2,1.13-0.6,1.35
			c-0.17,0.09-0.6,0.26-1.63,0.29l-0.47,0.02v1.74h18.63l1.42-7.29H211.37z"/>
	</g>
	<g>
		<path d="M145.05,27.91c-0.38,0-0.74,0.08-1.06,0.24c-0.27,0.13-0.51,0.32-0.74,0.56v-2.49h-0.76v6.65h0.76v-0.72
			c0.21,0.25,0.45,0.45,0.71,0.58c0.32,0.17,0.68,0.25,1.07,0.25c0.68,0,1.28-0.25,1.76-0.74c0.49-0.49,0.73-1.09,0.73-1.79
			c0-0.7-0.24-1.31-0.73-1.8C146.32,28.16,145.73,27.91,145.05,27.91z M146.52,31.35c-0.16,0.29-0.38,0.51-0.65,0.67
			c-0.27,0.16-0.57,0.24-0.89,0.24c-0.5,0-0.92-0.18-1.26-0.52c-0.34-0.35-0.51-0.79-0.51-1.31c0-0.34,0.08-0.65,0.23-0.92
			c0.15-0.27,0.37-0.49,0.65-0.65c0.28-0.16,0.59-0.24,0.9-0.24c0.31,0,0.6,0.08,0.87,0.24c0.27,0.16,0.49,0.39,0.65,0.68
			c0.16,0.29,0.24,0.6,0.24,0.92C146.76,30.76,146.68,31.06,146.52,31.35z"/>
		<path d="M157.2,30.5c-0.01-0.65-0.19-1.21-0.53-1.65c-0.49-0.62-1.15-0.94-1.97-0.94c-0.8,0-1.44,0.31-1.92,0.92
			c-0.37,0.48-0.56,1.03-0.56,1.64c0,0.65,0.22,1.24,0.67,1.75c0.44,0.52,1.07,0.78,1.85,0.78c0.35,0,0.67-0.05,0.95-0.16
			c0.28-0.11,0.54-0.27,0.76-0.47c0.22-0.21,0.42-0.48,0.59-0.81l0.03-0.07l-0.64-0.34l-0.04,0.06c-0.18,0.3-0.35,0.52-0.5,0.65
			c-0.15,0.13-0.34,0.24-0.55,0.32c-0.22,0.08-0.44,0.12-0.67,0.12c-0.47,0-0.87-0.17-1.19-0.5c-0.31-0.32-0.47-0.72-0.5-1.21h4.22
			V30.5z M153.07,29.9c0.12-0.37,0.28-0.65,0.5-0.84c0.31-0.28,0.7-0.42,1.14-0.42c0.27,0,0.52,0.06,0.77,0.17
			c0.24,0.11,0.44,0.26,0.58,0.44c0.13,0.16,0.24,0.38,0.31,0.65H153.07z"/>
		<path d="M162.45,26.1c-0.16,0-0.29,0.06-0.41,0.17c-0.11,0.11-0.17,0.25-0.17,0.41c0,0.16,0.06,0.29,0.17,0.4
			c0.11,0.11,0.25,0.17,0.41,0.17c0.16,0,0.29-0.06,0.41-0.17c0.11-0.11,0.17-0.25,0.17-0.4c0-0.16-0.06-0.29-0.17-0.41
			C162.74,26.16,162.61,26.1,162.45,26.1z"/>
		<path d="M162.07,33.32c0,0.32-0.03,0.45-0.06,0.5c-0.07,0.11-0.17,0.17-0.3,0.17c-0.12,0-0.25-0.04-0.4-0.12l-0.11-0.06v0.72
			l0.05,0.02c0.26,0.1,0.5,0.15,0.72,0.15c0.27,0,0.49-0.1,0.64-0.3c0.15-0.19,0.23-0.5,0.23-0.91v-5.47h-0.76V33.32z"/>
		<path d="M171.99,28.75c-0.21-0.25-0.45-0.45-0.71-0.58c-0.32-0.17-0.68-0.25-1.08-0.25c-0.68,0-1.28,0.25-1.77,0.74
			c-0.49,0.49-0.73,1.09-0.73,1.79c0,0.71,0.24,1.32,0.73,1.81c0.48,0.49,1.07,0.74,1.75,0.74c0.38,0,0.74-0.08,1.07-0.24
			c0.27-0.13,0.52-0.32,0.74-0.56v0.68h0.75v-4.84h-0.75V28.75z M171.8,31.39c-0.15,0.27-0.37,0.49-0.65,0.65
			c-0.28,0.16-0.59,0.24-0.9,0.24c-0.31,0-0.61-0.08-0.88-0.24c-0.27-0.16-0.49-0.39-0.65-0.68c-0.16-0.29-0.24-0.59-0.24-0.91
			c0-0.32,0.08-0.62,0.24-0.91c0.16-0.28,0.38-0.51,0.65-0.67c0.27-0.16,0.57-0.24,0.89-0.24c0.5,0,0.92,0.18,1.27,0.52
			c0.34,0.35,0.51,0.79,0.51,1.31C172.03,30.81,171.95,31.12,171.8,31.39z"/>
		<path d="M181.99,28.75c-0.21-0.25-0.45-0.45-0.71-0.58c-0.32-0.17-0.68-0.25-1.08-0.25c-0.68,0-1.28,0.25-1.76,0.74
			c-0.49,0.49-0.73,1.09-0.73,1.79c0,0.71,0.25,1.32,0.73,1.81c0.48,0.49,1.07,0.74,1.75,0.74c0.38,0,0.74-0.08,1.07-0.24
			c0.27-0.13,0.52-0.32,0.74-0.56v0.68h0.75v-6.65h-0.75V28.75z M181.8,31.39c-0.15,0.27-0.37,0.49-0.65,0.65
			c-0.28,0.16-0.59,0.24-0.9,0.24c-0.31,0-0.61-0.08-0.88-0.24c-0.27-0.16-0.49-0.39-0.65-0.68c-0.16-0.29-0.24-0.59-0.24-0.91
			c0-0.32,0.08-0.62,0.24-0.91c0.16-0.28,0.38-0.51,0.65-0.67c0.27-0.16,0.57-0.24,0.89-0.24c0.5,0,0.92,0.18,1.27,0.52
			c0.34,0.35,0.51,0.79,0.51,1.31C182.03,30.81,181.96,31.12,181.8,31.39z"/>
		<path d="M190.22,27.91c-0.74,0-1.37,0.27-1.86,0.81c-0.44,0.49-0.67,1.07-0.67,1.74c0,0.67,0.24,1.27,0.71,1.77
			c0.47,0.5,1.08,0.76,1.82,0.76c0.74,0,1.35-0.26,1.81-0.76c0.47-0.5,0.7-1.1,0.7-1.77c0-0.67-0.22-1.26-0.67-1.75
			C191.58,28.18,190.96,27.91,190.22,27.91z M191.74,31.39c-0.16,0.28-0.37,0.5-0.64,0.65c-0.27,0.15-0.56,0.23-0.88,0.23
			c-0.32,0-0.62-0.08-0.88-0.23c-0.27-0.15-0.48-0.37-0.64-0.65c-0.16-0.28-0.24-0.59-0.24-0.91c0-0.5,0.18-0.94,0.52-1.29
			c0.34-0.35,0.76-0.53,1.24-0.53c0.47,0,0.89,0.18,1.24,0.53c0.35,0.35,0.52,0.79,0.52,1.29C191.97,30.8,191.89,31.1,191.74,31.39z
			"/>
		<polygon points="199.52,31.34 198,28.03 197.19,28.03 199.41,32.87 199.62,32.87 201.84,28.03 201.03,28.03 		"/>
		<path d="M210.61,28.03v0.72c-0.21-0.25-0.45-0.45-0.71-0.58c-0.32-0.17-0.68-0.25-1.08-0.25c-0.68,0-1.28,0.25-1.76,0.74
			c-0.49,0.49-0.73,1.09-0.73,1.79c0,0.71,0.24,1.32,0.73,1.81c0.48,0.49,1.07,0.74,1.75,0.74c0.38,0,0.74-0.08,1.07-0.24
			c0.27-0.13,0.52-0.32,0.74-0.56v0.68h0.75v-4.84H210.61z M210.42,31.39c-0.15,0.27-0.37,0.49-0.65,0.65
			c-0.28,0.16-0.59,0.24-0.9,0.24c-0.31,0-0.61-0.08-0.88-0.24c-0.27-0.16-0.49-0.39-0.65-0.68c-0.16-0.29-0.24-0.59-0.24-0.91
			c0-0.32,0.08-0.62,0.24-0.91c0.16-0.28,0.38-0.51,0.65-0.67c0.27-0.16,0.57-0.24,0.89-0.24c0.5,0,0.92,0.18,1.26,0.52
			s0.51,0.79,0.51,1.31C210.65,30.81,210.57,31.12,210.42,31.39z"/>
	</g>
</g>
</svg>
