<?xml version="1.0" encoding="utf-8"?>
<!-- Generator: Adobe Illustrator 21.0.0, SVG Export Plug-In . SVG Version: 6.00 Build 0)  -->
<svg version="1.0" id="Capa_1" xmlns="http://www.w3.org/2000/svg" xmlns:xlink="http://www.w3.org/1999/xlink" x="0px" y="0px"
	 viewBox="0 0 124.745 97.544" style="enable-background:new 0 0 124.745 97.544;" xml:space="preserve">
<style type="text/css">
	.st0{fill:url(#SVGID_1_);}
	.st1{clip-path:url(#SVGID_3_);}
	.st2{fill:#0E090D;}
	.st3{fill:#0B070B;}
	.st4{fill:#0A0609;}
	.st5{fill:#130C12;}
	.st6{enable-background:new    ;}
	.st7{fill:#ffffff;}
	.st8{clip-path:url(#SVGID_5_);}
	.st9{fill:#140C12;}
	.st10{fill-rule:evenodd;clip-rule:evenodd;fill:#140C12;}
	.st11{fill:#12080B;}
	.st12{fill:#ffffff;}
</style>
<g>
	<g>
		<g class="st6">
			<path class="st7" d="M0,88.599V71.213h3.415l7.115,11.61v-11.61h3.261v17.385H10.27L3.261,77.262v11.337H0z"/>
			<path class="st7" d="M17.48,74.297v-3.083h3.332v3.083H17.48z M17.48,88.599V76.005h3.332v12.594H17.48z"/>
			<path class="st7" d="M24.109,88.599V71.213h3.332v9.226l3.902-4.435h4.103l-4.305,4.601l4.613,7.993h-3.593l-3.166-5.657
				l-1.554,1.625v4.032H24.109z"/>
			<path class="st7" d="M36.965,82.124c0-1.107,0.273-2.178,0.818-3.214c0.546-1.036,1.318-1.826,2.318-2.372
				c1-0.546,2.117-0.818,3.35-0.818c1.905,0,3.467,0.619,4.684,1.856c1.217,1.237,1.826,2.801,1.826,4.69
				c0,1.905-0.615,3.485-1.844,4.738c-1.229,1.253-2.777,1.88-4.643,1.88c-1.154,0-2.255-0.261-3.303-0.783
				c-1.048-0.522-1.844-1.287-2.39-2.295C37.237,84.798,36.965,83.571,36.965,82.124z M40.38,82.302c0,1.249,0.296,2.206,0.889,2.87
				c0.593,0.664,1.324,0.996,2.194,0.996c0.87,0,1.599-0.332,2.188-0.996c0.589-0.664,0.883-1.629,0.883-2.894
				c0-1.233-0.295-2.182-0.883-2.846c-0.589-0.664-1.318-0.996-2.188-0.996c-0.87,0-1.601,0.332-2.194,0.996
				C40.676,80.096,40.38,81.053,40.38,82.302z"/>
			<path class="st7" d="M52.571,88.599V71.213h3.332v17.385H52.571z"/>
			<path class="st7" d="M61.809,79.847l-3.024-0.546c0.34-1.217,0.925-2.119,1.755-2.704c0.83-0.585,2.063-0.878,3.7-0.878
				c1.486,0,2.593,0.176,3.321,0.528c0.727,0.352,1.239,0.799,1.536,1.34c0.296,0.542,0.445,1.536,0.445,2.983l-0.036,3.89
				c0,1.107,0.053,1.923,0.16,2.449c0.107,0.526,0.306,1.089,0.599,1.69h-3.297c-0.087-0.221-0.194-0.549-0.32-0.984
				c-0.055-0.198-0.095-0.328-0.119-0.391c-0.569,0.553-1.178,0.969-1.826,1.245c-0.648,0.277-1.34,0.415-2.075,0.415
				c-1.297,0-2.318-0.352-3.066-1.055c-0.747-0.704-1.121-1.593-1.121-2.668c0-0.712,0.17-1.346,0.51-1.903
				c0.34-0.557,0.816-0.984,1.429-1.281c0.613-0.296,1.496-0.555,2.65-0.777c1.557-0.292,2.637-0.565,3.238-0.818v-0.332
				c0-0.64-0.158-1.097-0.474-1.37c-0.316-0.273-0.913-0.409-1.791-0.409c-0.593,0-1.055,0.117-1.388,0.35
				C62.284,78.853,62.015,79.262,61.809,79.847z M66.268,82.551c-0.427,0.142-1.103,0.312-2.028,0.51
				c-0.925,0.198-1.53,0.391-1.814,0.581c-0.435,0.308-0.652,0.7-0.652,1.174c0,0.467,0.174,0.87,0.522,1.21
				c0.348,0.34,0.791,0.51,1.328,0.51c0.601,0,1.174-0.198,1.72-0.593c0.403-0.3,0.668-0.668,0.795-1.103
				c0.087-0.285,0.13-0.826,0.13-1.625V82.551z"/>
			<path class="st7" d="M78.708,82.942l3.415-0.332c0.206,1.146,0.623,1.988,1.251,2.526c0.629,0.538,1.476,0.806,2.544,0.806
				c1.131,0,1.982-0.239,2.556-0.717c0.573-0.478,0.86-1.038,0.86-1.678c0-0.411-0.121-0.761-0.362-1.05
				c-0.241-0.289-0.662-0.54-1.263-0.753c-0.411-0.142-1.348-0.395-2.811-0.759c-1.882-0.466-3.202-1.04-3.961-1.72
				c-1.067-0.957-1.601-2.123-1.601-3.498c0-0.885,0.251-1.714,0.753-2.484c0.502-0.771,1.225-1.358,2.17-1.761
				c0.945-0.403,2.085-0.605,3.421-0.605c2.182,0,3.825,0.478,4.927,1.435c1.103,0.957,1.682,2.234,1.737,3.83l-3.51,0.154
				c-0.15-0.893-0.472-1.536-0.967-1.927c-0.494-0.391-1.235-0.587-2.224-0.587c-1.02,0-1.818,0.21-2.396,0.629
				c-0.372,0.269-0.557,0.629-0.557,1.079c0,0.411,0.174,0.763,0.522,1.055c0.443,0.372,1.518,0.759,3.226,1.162
				c1.708,0.403,2.971,0.82,3.789,1.251c0.818,0.431,1.459,1.02,1.921,1.767s0.694,1.67,0.694,2.769c0,0.996-0.277,1.929-0.83,2.799
				c-0.553,0.87-1.336,1.516-2.348,1.939c-1.012,0.423-2.273,0.634-3.783,0.634c-2.198,0-3.886-0.508-5.064-1.524
				C79.641,86.367,78.938,84.887,78.708,82.942z"/>
			<path class="st7" d="M95.003,82.124c0-1.107,0.273-2.178,0.818-3.214c0.546-1.036,1.318-1.826,2.318-2.372
				c1-0.546,2.117-0.818,3.35-0.818c1.905,0,3.467,0.619,4.684,1.856c1.217,1.237,1.826,2.801,1.826,4.69
				c0,1.905-0.615,3.485-1.844,4.738c-1.229,1.253-2.777,1.88-4.643,1.88c-1.154,0-2.255-0.261-3.303-0.783
				c-1.048-0.522-1.844-1.287-2.39-2.295S95.003,83.571,95.003,82.124z M98.418,82.302c0,1.249,0.296,2.206,0.889,2.87
				c0.593,0.664,1.324,0.996,2.194,0.996c0.87,0,1.599-0.332,2.188-0.996c0.589-0.664,0.883-1.629,0.883-2.894
				c0-1.233-0.295-2.182-0.883-2.846c-0.589-0.664-1.318-0.996-2.188-0.996c-0.87,0-1.601,0.332-2.194,0.996
				C98.715,80.096,98.418,81.053,98.418,82.302z"/>
			<path class="st7" d="M109.15,76.005h1.85v-0.949c0-1.059,0.113-1.85,0.338-2.372c0.225-0.522,0.64-0.947,1.245-1.275
				c0.605-0.328,1.37-0.492,2.295-0.492c0.949,0,1.878,0.142,2.787,0.427l-0.451,2.324c-0.53-0.126-1.04-0.19-1.53-0.19
				c-0.482,0-0.828,0.113-1.038,0.338c-0.21,0.225-0.314,0.658-0.314,1.299v0.889h2.49v2.621h-2.49v9.973h-3.332v-9.973h-1.85
				V76.005z"/>
			<path class="st7" d="M124.472,76.005v2.656h-2.277v5.076c0,1.028,0.022,1.627,0.065,1.797c0.043,0.17,0.142,0.31,0.296,0.421
				c0.154,0.111,0.342,0.166,0.563,0.166c0.308,0,0.755-0.107,1.34-0.32l0.285,2.585c-0.775,0.332-1.652,0.498-2.633,0.498
				c-0.601,0-1.143-0.101-1.625-0.302c-0.482-0.202-0.836-0.463-1.061-0.783c-0.225-0.32-0.382-0.753-0.468-1.299
				c-0.071-0.387-0.107-1.17-0.107-2.348v-5.491h-1.53v-2.656h1.53v-2.502l3.344-1.945v4.447H124.472z"/>
		</g>
	</g>
	<g>
		<g class="st6">
			<path class="st7" d="M1.618,96.13v-5.129h1.55L4.099,94.5l0.92-3.498h1.553v5.129H5.61v-4.037L4.592,96.13H3.595L2.58,92.093
				v4.037H1.618z"/>
			<path class="st7" d="M7.366,94.22c0-0.326,0.08-0.643,0.241-0.948c0.161-0.305,0.389-0.539,0.684-0.7
				c0.295-0.161,0.624-0.241,0.988-0.241c0.562,0,1.023,0.183,1.382,0.548c0.359,0.365,0.539,0.826,0.539,1.384
				c0,0.562-0.181,1.028-0.544,1.398c-0.363,0.37-0.819,0.555-1.37,0.555c-0.34,0-0.665-0.077-0.974-0.231
				c-0.309-0.154-0.544-0.38-0.705-0.677C7.447,95.009,7.366,94.647,7.366,94.22z M8.374,94.273c0,0.368,0.087,0.651,0.262,0.846
				c0.175,0.196,0.391,0.294,0.647,0.294c0.257,0,0.472-0.098,0.645-0.294c0.174-0.196,0.261-0.48,0.261-0.854
				c0-0.364-0.087-0.644-0.261-0.84c-0.174-0.196-0.389-0.294-0.645-0.294c-0.257,0-0.472,0.098-0.647,0.294
				C8.461,93.622,8.374,93.904,8.374,94.273z"/>
			<path class="st7" d="M11.928,96.13v-5.129h0.983v1.847c0.303-0.345,0.662-0.518,1.078-0.518c0.452,0,0.827,0.164,1.123,0.492
				c0.296,0.328,0.444,0.798,0.444,1.412c0,0.634-0.151,1.123-0.453,1.466c-0.302,0.343-0.669,0.514-1.1,0.514
				c-0.212,0-0.422-0.053-0.628-0.159c-0.206-0.106-0.384-0.263-0.534-0.471v0.546H11.928z M12.904,94.192
				c0,0.385,0.061,0.669,0.182,0.854c0.17,0.261,0.396,0.392,0.679,0.392c0.217,0,0.402-0.093,0.555-0.278
				c0.153-0.185,0.229-0.478,0.229-0.876c0-0.424-0.077-0.731-0.231-0.918c-0.154-0.188-0.351-0.282-0.591-0.282
				c-0.236,0-0.432,0.092-0.588,0.275C12.982,93.541,12.904,93.819,12.904,94.192z"/>
			<path class="st7" d="M16.346,91.911v-0.91h0.983v0.91H16.346z M16.346,96.13v-3.715h0.983v3.715H16.346z"/>
			<path class="st7" d="M18.337,96.13v-5.129h0.983v5.129H18.337z"/>
			<path class="st7" d="M22.479,94.948l0.98,0.164c-0.126,0.359-0.325,0.633-0.597,0.82c-0.272,0.188-0.612,0.282-1.02,0.282
				c-0.646,0-1.124-0.211-1.434-0.633c-0.245-0.338-0.367-0.765-0.367-1.28c0-0.616,0.161-1.098,0.483-1.447
				c0.322-0.349,0.729-0.523,1.221-0.523c0.553,0,0.989,0.183,1.308,0.548c0.319,0.365,0.472,0.924,0.458,1.677h-2.463
				c0.007,0.292,0.086,0.518,0.238,0.68c0.152,0.162,0.34,0.243,0.567,0.243c0.154,0,0.283-0.042,0.388-0.126
				S22.426,95.134,22.479,94.948z M22.535,93.954c-0.007-0.285-0.081-0.501-0.22-0.649c-0.14-0.148-0.31-0.222-0.511-0.222
				c-0.215,0-0.392,0.078-0.532,0.234c-0.14,0.156-0.209,0.369-0.206,0.637H22.535z"/>
			<path class="st7" d="M27.038,93.548l-0.892-0.161c0.1-0.359,0.273-0.625,0.518-0.798c0.245-0.173,0.609-0.259,1.092-0.259
				c0.438,0,0.765,0.052,0.98,0.156c0.215,0.104,0.366,0.236,0.453,0.395c0.088,0.16,0.131,0.453,0.131,0.88l-0.01,1.147
				c0,0.327,0.016,0.567,0.047,0.722c0.032,0.155,0.09,0.321,0.177,0.499H28.56c-0.026-0.065-0.057-0.162-0.095-0.29
				c-0.016-0.058-0.028-0.097-0.035-0.116c-0.168,0.163-0.347,0.286-0.539,0.367c-0.191,0.082-0.395,0.122-0.612,0.122
				c-0.383,0-0.684-0.104-0.904-0.311c-0.22-0.208-0.331-0.47-0.331-0.787c0-0.21,0.05-0.397,0.15-0.562
				c0.1-0.164,0.241-0.29,0.422-0.378c0.181-0.087,0.441-0.164,0.782-0.229c0.459-0.086,0.778-0.167,0.955-0.241v-0.098
				c0-0.189-0.047-0.324-0.14-0.404c-0.093-0.08-0.269-0.121-0.528-0.121c-0.175,0-0.311,0.034-0.409,0.103
				C27.178,93.255,27.098,93.376,27.038,93.548z M28.353,94.346c-0.126,0.042-0.325,0.092-0.598,0.15
				c-0.273,0.058-0.451,0.115-0.535,0.171c-0.128,0.091-0.192,0.206-0.192,0.346c0,0.138,0.051,0.257,0.154,0.357
				c0.103,0.1,0.233,0.15,0.392,0.15c0.177,0,0.346-0.058,0.507-0.175c0.119-0.089,0.197-0.197,0.234-0.325
				c0.026-0.084,0.038-0.244,0.038-0.479V94.346z"/>
			<path class="st7" d="M33.667,96.13h-0.983v-1.896c0-0.401-0.021-0.661-0.063-0.778c-0.042-0.118-0.11-0.209-0.205-0.275
				c-0.094-0.065-0.208-0.098-0.341-0.098c-0.17,0-0.323,0.047-0.458,0.14c-0.135,0.093-0.228,0.217-0.278,0.371
				c-0.05,0.154-0.075,0.439-0.075,0.854v1.683h-0.983v-3.715h0.913v0.546c0.324-0.42,0.732-0.63,1.224-0.63
				c0.217,0,0.415,0.039,0.595,0.117c0.18,0.078,0.315,0.178,0.408,0.299c0.092,0.121,0.156,0.259,0.192,0.413
				c0.036,0.154,0.054,0.374,0.054,0.661V96.13z"/>
			<path class="st7" d="M38.072,96.13h-0.913v-0.546c-0.152,0.212-0.331,0.37-0.537,0.474c-0.206,0.104-0.415,0.156-0.624,0.156
				c-0.427,0-0.792-0.172-1.097-0.516c-0.304-0.344-0.457-0.824-0.457-1.44c0-0.63,0.148-1.108,0.444-1.436
				c0.296-0.328,0.671-0.492,1.123-0.492c0.415,0,0.774,0.173,1.078,0.518v-1.847h0.983V96.13z M35.448,94.192
				c0,0.397,0.055,0.683,0.164,0.861c0.159,0.257,0.38,0.385,0.665,0.385c0.226,0,0.419-0.096,0.577-0.289
				c0.159-0.192,0.238-0.48,0.238-0.862c0-0.427-0.077-0.734-0.231-0.922c-0.154-0.188-0.351-0.282-0.591-0.282
				c-0.233,0-0.429,0.093-0.586,0.278C35.527,93.547,35.448,93.824,35.448,94.192z"/>
			<path class="st7" d="M41.766,96.13l-1.225-5.129h1.06l0.773,3.523l0.938-3.523h1.231l0.899,3.582l0.787-3.582h1.042l-1.245,5.129
				h-1.098l-1.022-3.834l-1.018,3.834H41.766z"/>
			<path class="st7" d="M49.816,94.948l0.98,0.164c-0.126,0.359-0.325,0.633-0.597,0.82c-0.272,0.188-0.612,0.282-1.02,0.282
				c-0.646,0-1.124-0.211-1.434-0.633c-0.245-0.338-0.367-0.765-0.367-1.28c0-0.616,0.161-1.098,0.483-1.447
				c0.322-0.349,0.729-0.523,1.221-0.523c0.553,0,0.989,0.183,1.308,0.548c0.319,0.365,0.472,0.924,0.458,1.677h-2.463
				c0.007,0.292,0.086,0.518,0.238,0.68c0.152,0.162,0.34,0.243,0.567,0.243c0.154,0,0.283-0.042,0.388-0.126
				C49.683,95.27,49.762,95.134,49.816,94.948z M49.872,93.954c-0.007-0.285-0.081-0.501-0.22-0.649
				c-0.14-0.148-0.31-0.222-0.511-0.222c-0.215,0-0.392,0.078-0.532,0.234c-0.14,0.156-0.209,0.369-0.206,0.637H49.872z"/>
			<path class="st7" d="M51.607,96.13v-5.129h0.983v1.847c0.303-0.345,0.662-0.518,1.078-0.518c0.452,0,0.827,0.164,1.123,0.492
				c0.296,0.328,0.444,0.798,0.444,1.412c0,0.634-0.151,1.123-0.453,1.466c-0.302,0.343-0.669,0.514-1.1,0.514
				c-0.212,0-0.422-0.053-0.628-0.159c-0.206-0.106-0.384-0.263-0.534-0.471v0.546H51.607z M52.583,94.192
				c0,0.385,0.061,0.669,0.182,0.854c0.17,0.261,0.396,0.392,0.679,0.392c0.217,0,0.402-0.093,0.555-0.278
				c0.153-0.185,0.229-0.478,0.229-0.876c0-0.424-0.077-0.731-0.231-0.918c-0.154-0.188-0.351-0.282-0.591-0.282
				c-0.236,0-0.432,0.092-0.588,0.275C52.661,93.541,52.583,93.819,52.583,94.192z"/>
			<path class="st7" d="M62.382,96.13h-1.126l-0.448-1.165h-2.05l-0.423,1.165h-1.098l1.998-5.129h1.095L62.382,96.13z
				 M60.475,94.101l-0.707-1.903l-0.693,1.903H60.475z"/>
			<path class="st7" d="M62.896,92.415h0.917v0.546c0.119-0.187,0.28-0.338,0.483-0.455c0.203-0.117,0.428-0.175,0.675-0.175
				c0.431,0,0.798,0.169,1.099,0.507c0.301,0.338,0.451,0.809,0.451,1.413c0,0.62-0.152,1.103-0.455,1.447
				c-0.303,0.344-0.671,0.516-1.102,0.516c-0.205,0-0.391-0.041-0.558-0.122c-0.167-0.082-0.342-0.222-0.527-0.42v1.872h-0.983
				V92.415z M63.869,94.21c0,0.418,0.083,0.726,0.248,0.925c0.166,0.199,0.367,0.299,0.605,0.299c0.229,0,0.419-0.092,0.57-0.275
				c0.152-0.183,0.227-0.483,0.227-0.901c0-0.39-0.078-0.679-0.234-0.868c-0.156-0.189-0.35-0.283-0.581-0.283
				c-0.24,0-0.44,0.093-0.598,0.278C63.948,93.571,63.869,93.846,63.869,94.21z"/>
			<path class="st7" d="M67.273,92.415h0.917v0.546c0.119-0.187,0.28-0.338,0.483-0.455c0.203-0.117,0.428-0.175,0.675-0.175
				c0.431,0,0.798,0.169,1.099,0.507c0.301,0.338,0.451,0.809,0.451,1.413c0,0.62-0.152,1.103-0.455,1.447
				c-0.303,0.344-0.671,0.516-1.102,0.516c-0.205,0-0.391-0.041-0.558-0.122c-0.167-0.082-0.342-0.222-0.527-0.42v1.872h-0.983
				V92.415z M68.246,94.21c0,0.418,0.083,0.726,0.248,0.925c0.166,0.199,0.367,0.299,0.605,0.299c0.229,0,0.419-0.092,0.57-0.275
				c0.152-0.183,0.227-0.483,0.227-0.901c0-0.39-0.078-0.679-0.234-0.868c-0.156-0.189-0.35-0.283-0.581-0.283
				c-0.24,0-0.44,0.093-0.598,0.278C68.325,93.571,68.246,93.846,68.246,94.21z"/>
			<path class="st7" d="M71.331,95.07l0.987-0.15c0.042,0.191,0.127,0.336,0.255,0.436c0.128,0.099,0.308,0.149,0.539,0.149
				c0.254,0,0.445-0.047,0.574-0.14c0.086-0.065,0.129-0.153,0.129-0.262c0-0.075-0.023-0.136-0.07-0.185
				c-0.049-0.047-0.159-0.09-0.329-0.13c-0.793-0.175-1.296-0.335-1.508-0.479c-0.294-0.201-0.441-0.479-0.441-0.836
				c0-0.322,0.127-0.592,0.381-0.812c0.254-0.219,0.648-0.329,1.182-0.329c0.508,0,0.886,0.083,1.133,0.248
				c0.247,0.166,0.417,0.41,0.511,0.735l-0.927,0.171c-0.04-0.145-0.115-0.255-0.226-0.332c-0.111-0.077-0.269-0.116-0.474-0.116
				c-0.259,0-0.444,0.036-0.556,0.108c-0.075,0.051-0.112,0.118-0.112,0.199c0,0.07,0.033,0.13,0.098,0.178
				c0.089,0.065,0.395,0.157,0.918,0.276c0.524,0.119,0.889,0.265,1.097,0.437c0.205,0.175,0.308,0.419,0.308,0.731
				c0,0.341-0.142,0.633-0.427,0.878c-0.285,0.245-0.705,0.367-1.263,0.367c-0.506,0-0.907-0.103-1.202-0.308
				C71.615,95.701,71.422,95.422,71.331,95.07z"/>
			<path class="st7" d="M77.656,91.002h1.893c0.427,0,0.752,0.033,0.976,0.098c0.301,0.089,0.559,0.246,0.773,0.472
				c0.215,0.226,0.378,0.503,0.49,0.831c0.112,0.328,0.168,0.732,0.168,1.212c0,0.422-0.053,0.786-0.157,1.091
				c-0.128,0.373-0.311,0.675-0.549,0.906c-0.18,0.175-0.422,0.311-0.728,0.409c-0.229,0.072-0.534,0.108-0.916,0.108h-1.949V91.002
				z M78.692,91.869v3.397h0.773c0.289,0,0.498-0.016,0.626-0.049c0.168-0.042,0.307-0.113,0.418-0.213
				c0.111-0.1,0.201-0.265,0.271-0.495c0.07-0.23,0.105-0.543,0.105-0.939c0-0.396-0.035-0.701-0.105-0.913
				c-0.07-0.212-0.168-0.378-0.294-0.497c-0.126-0.119-0.286-0.199-0.479-0.241c-0.145-0.033-0.428-0.049-0.85-0.049H78.692z"/>
			<path class="st7" d="M84.978,94.948l0.98,0.164c-0.126,0.359-0.325,0.633-0.597,0.82c-0.272,0.188-0.612,0.282-1.02,0.282
				c-0.646,0-1.124-0.211-1.434-0.633c-0.245-0.338-0.367-0.765-0.367-1.28c0-0.616,0.161-1.098,0.483-1.447
				c0.322-0.349,0.729-0.523,1.221-0.523c0.553,0,0.989,0.183,1.308,0.548c0.319,0.365,0.472,0.924,0.458,1.677h-2.463
				c0.007,0.292,0.086,0.518,0.238,0.68c0.152,0.162,0.34,0.243,0.567,0.243c0.154,0,0.283-0.042,0.388-0.126
				C84.845,95.27,84.925,95.134,84.978,94.948z M85.034,93.954c-0.007-0.285-0.081-0.501-0.22-0.649
				c-0.14-0.148-0.31-0.222-0.511-0.222c-0.215,0-0.392,0.078-0.532,0.234c-0.14,0.156-0.209,0.369-0.206,0.637H85.034z"/>
			<path class="st7" d="M87.833,96.13l-1.497-3.715h1.032l0.7,1.896l0.203,0.633c0.054-0.161,0.088-0.267,0.102-0.318
				c0.033-0.105,0.068-0.21,0.105-0.315l0.707-1.896h1.011l-1.476,3.715H87.833z"/>
			<path class="st7" d="M92.948,94.948l0.98,0.164c-0.126,0.359-0.325,0.633-0.597,0.82c-0.272,0.188-0.612,0.282-1.02,0.282
				c-0.646,0-1.124-0.211-1.434-0.633c-0.245-0.338-0.367-0.765-0.367-1.28c0-0.616,0.161-1.098,0.483-1.447
				c0.322-0.349,0.729-0.523,1.221-0.523c0.553,0,0.989,0.183,1.308,0.548c0.319,0.365,0.472,0.924,0.458,1.677h-2.463
				c0.007,0.292,0.086,0.518,0.238,0.68c0.152,0.162,0.34,0.243,0.567,0.243c0.154,0,0.283-0.042,0.388-0.126
				C92.815,95.27,92.894,95.134,92.948,94.948z M93.004,93.954c-0.007-0.285-0.081-0.501-0.22-0.649
				c-0.14-0.148-0.31-0.222-0.511-0.222c-0.215,0-0.392,0.078-0.532,0.234c-0.14,0.156-0.209,0.369-0.206,0.637H93.004z"/>
			<path class="st7" d="M94.781,96.13v-5.129h0.983v5.129H94.781z"/>
			<path class="st7" d="M96.544,94.22c0-0.326,0.081-0.643,0.241-0.948c0.161-0.305,0.389-0.539,0.684-0.7
				c0.295-0.161,0.624-0.241,0.988-0.241c0.562,0,1.023,0.183,1.382,0.548c0.359,0.365,0.539,0.826,0.539,1.384
				c0,0.562-0.181,1.028-0.544,1.398c-0.363,0.37-0.819,0.555-1.37,0.555c-0.34,0-0.665-0.077-0.974-0.231
				c-0.309-0.154-0.544-0.38-0.705-0.677C96.625,95.009,96.544,94.647,96.544,94.22z M97.552,94.273
				c0,0.368,0.087,0.651,0.262,0.846c0.175,0.196,0.391,0.294,0.647,0.294c0.257,0,0.472-0.098,0.645-0.294
				c0.174-0.196,0.261-0.48,0.261-0.854c0-0.364-0.087-0.644-0.261-0.84c-0.174-0.196-0.389-0.294-0.645-0.294
				c-0.257,0-0.472,0.098-0.647,0.294C97.639,93.622,97.552,93.904,97.552,94.273z"/>
			<path class="st7" d="M101.12,92.415h0.917v0.546c0.119-0.187,0.28-0.338,0.483-0.455c0.203-0.117,0.428-0.175,0.675-0.175
				c0.431,0,0.798,0.169,1.099,0.507c0.301,0.338,0.451,0.809,0.451,1.413c0,0.62-0.152,1.103-0.455,1.447
				c-0.303,0.344-0.671,0.516-1.102,0.516c-0.205,0-0.391-0.041-0.558-0.122c-0.167-0.082-0.342-0.222-0.527-0.42v1.872h-0.983
				V92.415z M102.093,94.21c0,0.418,0.083,0.726,0.248,0.925c0.166,0.199,0.367,0.299,0.605,0.299c0.229,0,0.419-0.092,0.57-0.275
				c0.152-0.183,0.227-0.483,0.227-0.901c0-0.39-0.078-0.679-0.234-0.868c-0.156-0.189-0.35-0.283-0.581-0.283
				c-0.24,0-0.44,0.093-0.598,0.278C102.172,93.571,102.093,93.846,102.093,94.21z"/>
			<path class="st7" d="M105.451,92.415h0.906v0.507c0.324-0.394,0.71-0.591,1.158-0.591c0.238,0,0.444,0.049,0.619,0.147
				c0.175,0.098,0.318,0.246,0.43,0.444c0.163-0.198,0.339-0.346,0.528-0.444c0.189-0.098,0.391-0.147,0.605-0.147
				c0.273,0,0.504,0.055,0.693,0.166c0.189,0.111,0.33,0.273,0.423,0.488c0.068,0.159,0.102,0.415,0.102,0.77v2.375h-0.983v-2.123
				c0-0.369-0.034-0.606-0.101-0.714c-0.091-0.14-0.231-0.21-0.42-0.21c-0.138,0-0.267,0.042-0.388,0.126
				c-0.121,0.084-0.209,0.207-0.262,0.369c-0.054,0.162-0.08,0.418-0.08,0.768v1.784h-0.983v-2.036c0-0.361-0.018-0.595-0.052-0.7
				c-0.035-0.105-0.089-0.183-0.163-0.234c-0.074-0.051-0.173-0.077-0.299-0.077c-0.152,0-0.288,0.041-0.409,0.122
				c-0.121,0.082-0.208,0.199-0.261,0.353c-0.052,0.154-0.079,0.409-0.079,0.766v1.805h-0.983V92.415z"/>
			<path class="st7" d="M114.047,94.948l0.98,0.164c-0.126,0.359-0.325,0.633-0.597,0.82c-0.272,0.188-0.612,0.282-1.02,0.282
				c-0.646,0-1.124-0.211-1.434-0.633c-0.245-0.338-0.367-0.765-0.367-1.28c0-0.616,0.161-1.098,0.483-1.447
				c0.322-0.349,0.729-0.523,1.221-0.523c0.553,0,0.989,0.183,1.308,0.548c0.319,0.365,0.472,0.924,0.458,1.677h-2.463
				c0.007,0.292,0.086,0.518,0.238,0.68c0.152,0.162,0.34,0.243,0.567,0.243c0.154,0,0.283-0.042,0.388-0.126
				S113.993,95.134,114.047,94.948z M114.103,93.954c-0.007-0.285-0.081-0.501-0.22-0.649c-0.14-0.148-0.31-0.222-0.511-0.222
				c-0.215,0-0.392,0.078-0.532,0.234c-0.14,0.156-0.209,0.369-0.206,0.637H114.103z"/>
			<path class="st7" d="M119.259,96.13h-0.983v-1.896c0-0.401-0.021-0.661-0.063-0.778c-0.042-0.118-0.11-0.209-0.205-0.275
				c-0.094-0.065-0.208-0.098-0.341-0.098c-0.17,0-0.323,0.047-0.458,0.14c-0.135,0.093-0.228,0.217-0.278,0.371
				s-0.075,0.439-0.075,0.854v1.683h-0.983v-3.715h0.913v0.546c0.324-0.42,0.732-0.63,1.224-0.63c0.217,0,0.415,0.039,0.595,0.117
				c0.18,0.078,0.315,0.178,0.408,0.299c0.092,0.121,0.156,0.259,0.192,0.413s0.054,0.374,0.054,0.661V96.13z"/>
			<path class="st7" d="M121.96,92.415v0.784h-0.672v1.497c0,0.303,0.006,0.48,0.019,0.53c0.013,0.05,0.042,0.092,0.088,0.124
				c0.045,0.033,0.101,0.049,0.166,0.049c0.091,0,0.223-0.031,0.395-0.094l0.084,0.763c-0.229,0.098-0.488,0.147-0.777,0.147
				c-0.177,0-0.337-0.03-0.479-0.089c-0.142-0.06-0.247-0.136-0.313-0.231c-0.067-0.095-0.113-0.222-0.138-0.383
				c-0.021-0.114-0.032-0.345-0.032-0.693v-1.62h-0.451v-0.784h0.451v-0.738l0.987-0.574v1.312H121.96z"/>
		</g>
	</g>
	<g>
		<g>
			<path class="st7" d="M73.487,0l0.097,0.012l0.097,0.012l0.097,0.024l0.097,0.024l0.097,0.024l0.097,0.036l0.097,0.036
				l0.085,0.036l0.085,0.036l0.085,0.049l0.085,0.049l0.085,0.049l0.085,0.061L74.75,0.51l0.073,0.061l0.073,0.061l0.073,0.073
				l0.073,0.073l0.061,0.073l0.061,0.073l0.061,0.085l0.061,0.085l0.049,0.085l0.049,0.085L75.43,1.36l0.049,0.097l0.049,0.097
				l0.036,0.097L75.6,1.749l0.036,0.097l0.024,0.097l0.024,0.109l0.024,0.109l0.012,0.109l0.012,0.109l0.012,0.109l0.024,0.109
				l0.024,0.109v63.876l-0.024,0.109l-0.012,0.109l-0.012,0.109l-0.012,0.109l-0.024,0.109l-0.024,0.109l-0.024,0.109l-0.024,0.097
				L75.6,67.543l-0.036,0.097l-0.036,0.097l-0.049,0.097l-0.049,0.097l-0.049,0.085l-0.049,0.085l-0.049,0.085l-0.061,0.085
				l-0.061,0.085l-0.061,0.073l-0.061,0.073l-0.073,0.073l-0.073,0.073l-0.073,0.061l-0.073,0.061l-0.073,0.061l-0.085,0.061
				l-0.085,0.049l-0.085,0.049l-0.085,0.049l-0.085,0.049l-0.085,0.036l-0.097,0.036l-0.097,0.036l-0.097,0.024l-0.097,0.024
				l-0.097,0.024l-0.097,0.012l-0.097,0.012H73.39l-0.097-0.012h-29.63l-0.097,0.012h-0.097l-0.097-0.012l-0.097-0.012l-0.097-0.024
				l-0.097-0.024l-0.097-0.024l-0.097-0.036l-0.097-0.036l-0.085-0.036l-0.085-0.049l-0.085-0.049l-0.085-0.049l-0.085-0.049
				l-0.085-0.061l-0.073-0.061l-0.073-0.061l-0.073-0.061l-0.073-0.073l-0.073-0.073l-0.073-0.073l-0.061-0.073l-0.061-0.085
				l-0.061-0.085l-0.049-0.085l-0.049-0.085l-0.049-0.085l-0.049-0.097l-0.049-0.097l-0.036-0.097l-0.036-0.097l-0.036-0.097
				l-0.024-0.097l-0.024-0.109l-0.024-0.109l-0.024-0.109l-0.012-0.109l-0.012-0.109v-0.109v-0.109V2.708V2.599V2.489l0.012-0.109
				l0.012-0.109l0.024-0.109l0.024-0.109l0.024-0.109l0.024-0.097l0.036-0.097l0.036-0.097l0.036-0.097l0.036-0.097l0.049-0.097
				l0.049-0.097l0.049-0.085l0.049-0.085l0.061-0.085l0.061-0.085l0.061-0.073l0.073-0.073l0.073-0.073l0.073-0.073l0.073-0.061
				l0.073-0.061l0.073-0.061l0.085-0.061l0.085-0.049l0.085-0.049l0.085-0.049l0.085-0.036l0.085-0.036l0.097-0.036l0.097-0.036
				l0.097-0.024l0.097-0.024l0.097-0.024l0.097-0.012L43.456,0l0.097,0.024l0.097,0.024h29.63l0.097-0.024L73.487,0z M58.016,60.852
				l-0.219,0.061l-0.206,0.085l-0.206,0.097l-0.194,0.121l-0.182,0.134l-0.17,0.158l-0.158,0.17l-0.146,0.182l-0.121,0.194
				l-0.109,0.206l-0.085,0.219l-0.073,0.231l-0.049,0.243l-0.036,0.255l-0.012,0.255l0.012,0.255l0.036,0.243l0.049,0.243
				l0.073,0.231l0.085,0.219l0.109,0.206l0.121,0.194l0.146,0.182l0.158,0.17l0.17,0.158l0.182,0.134l0.194,0.121l0.206,0.097
				l0.206,0.085l0.219,0.061l0.231,0.036l0.231,0.012l0.231-0.012l0.231-0.036l0.219-0.061l0.206-0.085l0.206-0.097l0.194-0.121
				l0.182-0.134l0.17-0.158l0.158-0.17l0.146-0.182l0.121-0.194l0.109-0.206l0.097-0.219l0.073-0.231l0.049-0.243l0.036-0.243
				l0.012-0.255l-0.012-0.255l-0.036-0.255l-0.049-0.243l-0.073-0.231l-0.097-0.219l-0.109-0.206L60.42,61.86l-0.146-0.182
				l-0.158-0.17l-0.17-0.158l-0.182-0.134l-0.194-0.121l-0.206-0.097l-0.206-0.085l-0.219-0.061l-0.231-0.036l-0.231-0.012
				l-0.231,0.012L58.016,60.852z M43.019,58.945h30.845V8.428H43.019V58.945z"/>
			<path class="st7" d="M73.487,0l0.097,0.012l0.097,0.012l0.097,0.024l0.097,0.024l0.097,0.024l0.097,0.036l0.097,0.036
				l0.085,0.036l0.085,0.036l0.085,0.049l0.085,0.049l0.085,0.049l0.085,0.061L74.75,0.51l0.073,0.061l0.073,0.061l0.073,0.073
				l0.073,0.073l0.061,0.073l0.061,0.073l0.061,0.085l0.061,0.085l0.049,0.085l0.049,0.085L75.43,1.36l0.049,0.097l0.049,0.097
				l0.036,0.097L75.6,1.749l0.036,0.097l0.024,0.097l0.024,0.109l0.024,0.109l0.012,0.109l0.012,0.109l0.012,0.109l0.024,0.109
				l0.024,0.109v63.876l-0.024,0.109l-0.012,0.109l-0.012,0.109l-0.012,0.109l-0.024,0.109l-0.024,0.109l-0.024,0.109l-0.024,0.097
				L75.6,67.543l-0.036,0.097l-0.036,0.097l-0.049,0.097l-0.049,0.097l-0.049,0.085l-0.049,0.085l-0.049,0.085l-0.061,0.085
				l-0.061,0.085l-0.061,0.073l-0.061,0.073l-0.073,0.073l-0.073,0.073l-0.073,0.061l-0.073,0.061l-0.073,0.061l-0.085,0.061
				l-0.085,0.049l-0.085,0.049l-0.085,0.049l-0.085,0.049l-0.085,0.036l-0.097,0.036l-0.097,0.036l-0.097,0.024l-0.097,0.024
				l-0.097,0.024l-0.097,0.012l-0.097,0.012H73.39l-0.097-0.012h-29.63l-0.097,0.012h-0.097l-0.097-0.012l-0.097-0.012l-0.097-0.024
				l-0.097-0.024l-0.097-0.024l-0.097-0.036l-0.097-0.036l-0.085-0.036l-0.085-0.049l-0.085-0.049l-0.085-0.049l-0.085-0.049
				l-0.085-0.061l-0.073-0.061l-0.073-0.061l-0.073-0.061l-0.073-0.073l-0.073-0.073l-0.073-0.073l-0.061-0.073l-0.061-0.085
				l-0.061-0.085l-0.049-0.085l-0.049-0.085l-0.049-0.085l-0.049-0.097l-0.049-0.097l-0.036-0.097l-0.036-0.097l-0.036-0.097
				l-0.024-0.097l-0.024-0.109l-0.024-0.109l-0.024-0.109l-0.012-0.109l-0.012-0.109v-0.109v-0.109V2.708V2.599V2.489l0.012-0.109
				l0.012-0.109l0.024-0.109l0.024-0.109l0.024-0.109l0.024-0.097l0.036-0.097l0.036-0.097l0.036-0.097l0.036-0.097l0.049-0.097
				l0.049-0.097l0.049-0.085l0.049-0.085l0.061-0.085l0.061-0.085l0.061-0.073l0.073-0.073l0.073-0.073l0.073-0.073l0.073-0.061
				l0.073-0.061l0.073-0.061l0.085-0.061l0.085-0.049l0.085-0.049l0.085-0.049l0.085-0.036l0.085-0.036l0.097-0.036l0.097-0.036
				l0.097-0.024l0.097-0.024l0.097-0.024l0.097-0.012L43.456,0l0.097,0.024l0.097,0.024h29.63l0.097-0.024L73.487,0z M58.016,60.852
				l-0.219,0.061l-0.206,0.085l-0.206,0.097l-0.194,0.121l-0.182,0.134l-0.17,0.158l-0.158,0.17l-0.146,0.182l-0.121,0.194
				l-0.109,0.206l-0.085,0.219l-0.073,0.231l-0.049,0.243l-0.036,0.255l-0.012,0.255l0.012,0.255l0.036,0.243l0.049,0.243
				l0.073,0.231l0.085,0.219l0.109,0.206l0.121,0.194l0.146,0.182l0.158,0.17l0.17,0.158l0.182,0.134l0.194,0.121l0.206,0.097
				l0.206,0.085l0.219,0.061l0.231,0.036l0.231,0.012l0.231-0.012l0.231-0.036l0.219-0.061l0.206-0.085l0.206-0.097l0.194-0.121
				l0.182-0.134l0.17-0.158l0.158-0.17l0.146-0.182l0.121-0.194l0.109-0.206l0.097-0.219l0.073-0.231l0.049-0.243l0.036-0.243
				l0.012-0.255l-0.012-0.255l-0.036-0.255l-0.049-0.243l-0.073-0.231l-0.097-0.219l-0.109-0.206L60.42,61.86l-0.146-0.182
				l-0.158-0.17l-0.17-0.158l-0.182-0.134l-0.194-0.121l-0.206-0.097l-0.206-0.085l-0.219-0.061l-0.231-0.036l-0.231-0.012
				l-0.231,0.012L58.016,60.852z M43.019,58.945h30.845V8.428H43.019V58.945z"/>
			<path class="st7" d="M54.373,19.418c-0.109-0.109-0.279-0.109-0.389,0c-0.109,0.121-0.996,1.044-1.105,1.154
				c-0.049,0.061-0.085,0.134-0.085,0.206c0,0.073,0.024,0.158,0.085,0.206c0.219,0.219,1.287,1.348,3.206,3.364
				c-1.919,2.016-2.987,3.145-3.206,3.364c-0.049,0.049-0.085,0.121-0.085,0.206c0,0.073,0.024,0.146,0.085,0.206
				c0.109,0.121,0.996,1.044,1.105,1.154c0.049,0.061,0.121,0.085,0.194,0.085c0.073,0,0.146-0.024,0.194-0.085
				c0.449-0.474,4.056-4.25,4.505-4.724c0.049-0.049,0.085-0.134,0.085-0.206c0-0.073-0.024-0.146-0.085-0.206
				C58.429,23.668,54.822,19.879,54.373,19.418z"/>
			<path class="st7" d="M54.373,19.418c-0.109-0.109-0.279-0.109-0.389,0c-0.109,0.121-0.996,1.044-1.105,1.154
				c-0.049,0.061-0.085,0.134-0.085,0.206c0,0.073,0.024,0.158,0.085,0.206c0.219,0.219,1.287,1.348,3.206,3.364
				c-1.919,2.016-2.987,3.145-3.206,3.364c-0.049,0.049-0.085,0.121-0.085,0.206c0,0.073,0.024,0.146,0.085,0.206
				c0.109,0.121,0.996,1.044,1.105,1.154c0.049,0.061,0.121,0.085,0.194,0.085c0.073,0,0.146-0.024,0.194-0.085
				c0.449-0.474,4.056-4.25,4.505-4.724c0.049-0.049,0.085-0.134,0.085-0.206c0-0.073-0.024-0.146-0.085-0.206
				C58.429,23.668,54.822,19.879,54.373,19.418z"/>
			<path class="st7" d="M63.784,34.379c0,1.554,0,3.983,0,5.538c0,1.239-1.105,2.271-2.489,2.271c-1.506,0-3.51,0-5.015,0
				c-1.384,0-2.453-1.032-2.453-2.271c0-1.554,0-3.983,0-5.538c0-1.239,1.069-2.271,2.453-2.271c1.506,0,3.51,0,5.015,0
				C62.667,32.108,63.784,33.14,63.784,34.379z"/>
			<path class="st7" d="M63.784,34.379c0,1.554,0,3.983,0,5.538c0,1.239-1.105,2.271-2.489,2.271c-1.506,0-3.51,0-5.015,0
				c-1.384,0-2.453-1.032-2.453-2.271c0-1.554,0-3.983,0-5.538c0-1.239,1.069-2.271,2.453-2.271c1.506,0,3.51,0,5.015,0
				C62.667,32.108,63.784,33.14,63.784,34.379z"/>
			<path class="st7" d="M87.561,24.336c0.935,0,1.712,0.801,1.712,1.749c0,1.579,0,4.639,0,6.218c0,0.935-0.777,1.749-1.712,1.749
				c-1.591,0-4.675,0-6.278,0c-0.935,0-1.724-0.814-1.724-1.749c0-1.579,0-4.639,0-6.218c0-0.935,0.789-1.749,1.724-1.749
				C82.886,24.336,85.971,24.336,87.561,24.336z"/>
			<path class="st7" d="M87.561,24.336c0.935,0,1.712,0.801,1.712,1.749c0,1.579,0,4.639,0,6.218c0,0.935-0.777,1.749-1.712,1.749
				c-1.591,0-4.675,0-6.278,0c-0.935,0-1.724-0.814-1.724-1.749c0-1.579,0-4.639,0-6.218c0-0.935,0.789-1.749,1.724-1.749
				C82.886,24.336,85.971,24.336,87.561,24.336z"/>
			<path class="st7" d="M79.972,29.679c1.506,0,2.744,1.214,2.744,2.72c0,2.538,0,7.444,0,9.982c0,1.506-1.239,2.708-2.744,2.708
				c-2.404,0-6.91,0-9.314,0c-1.506,0-2.757-1.202-2.757-2.708c0-2.538,0-7.444,0-9.982c0-1.506,1.251-2.72,2.757-2.72
				C73.074,29.679,77.567,29.679,79.972,29.679z"/>
			<path class="st7" d="M84.902,40.973c0.741,0,1.348,0.631,1.348,1.372c0,1.251,0,3.655,0,4.906c0,0.741-0.607,1.372-1.348,1.372
				c-1.227,0-3.558,0-4.785,0c-0.741,0-1.397-0.631-1.397-1.372c0-1.251,0-3.655,0-4.906c0-0.741,0.656-1.372,1.397-1.372
				C81.344,40.973,83.676,40.973,84.902,40.973z"/>
			<path class="st7" d="M84.902,40.973c0.741,0,1.348,0.631,1.348,1.372c0,1.251,0,3.655,0,4.906c0,0.741-0.607,1.372-1.348,1.372
				c-1.227,0-3.558,0-4.785,0c-0.741,0-1.397-0.631-1.397-1.372c0-1.251,0-3.655,0-4.906c0-0.741,0.656-1.372,1.397-1.372
				C81.344,40.973,83.676,40.973,84.902,40.973z"/>
			<path class="st7" d="M58.32,27.25h6.436v2.186H58.32V27.25z"/>
		</g>
	</g>
</g>
</svg>
