<?xml version="1.0" encoding="utf-8"?>
<!-- Generator: Adobe Illustrator 23.0.2, SVG Export Plug-In . SVG Version: 6.00 Build 0)  -->
<svg version="1.1" id="Capa_1" xmlns="http://www.w3.org/2000/svg" xmlns:xlink="http://www.w3.org/1999/xlink" x="0px" y="0px"
	 viewBox="0 0 56.46 56.46" style="enable-background:new 0 0 56.46 56.46;" xml:space="preserve">
<style type="text/css">
	.st0{fill:#606060;}
</style>
<g>
	<path class="st0" d="M39.87,20.7c1.33,0,2.42-1.08,2.42-2.42c0-0.39-0.32-0.71-0.71-0.71s-0.71,0.32-0.71,0.71
		c0,0.55-0.45,1.01-1.01,1.01c-0.55,0-1-0.45-1-1.01v-1.56c0.92-0.3,1.59-1.16,1.59-2.18c0-1.27-1.03-2.3-2.3-2.3s-2.3,1.03-2.3,2.3
		c0,1.02,0.67,1.88,1.59,2.18v1.56c0,0.55-0.45,1.01-1,1.01s-1-0.45-1-1.01c0-0.39-0.32-0.71-0.71-0.71s-0.71,0.32-0.71,0.71
		c0,1.33,1.08,2.42,2.42,2.42c0.67,0,1.27-0.27,1.71-0.71C38.59,20.42,39.2,20.7,39.87,20.7z M38.16,13.65
		c0.49,0,0.89,0.4,0.89,0.89c0,0.49-0.4,0.89-0.89,0.89c-0.49,0-0.89-0.4-0.89-0.89C37.27,14.05,37.67,13.65,38.16,13.65z"/>
	<path class="st0" d="M0.71,56.46h55.05c0.39,0,0.71-0.32,0.71-0.71v-6.23c0-0.39-0.32-0.71-0.71-0.71h-5.77
		c1.88-1.28,3.11-3.43,3.11-5.87c0-1.94-0.78-3.7-2.05-4.98c0.16,0.02,0.32,0.04,0.47,0.04c2.65,0,4.81-2.16,4.81-4.81
		c0-4.66-5.6-8.48-13.4-9.59c3.73-1.78,6.32-5.58,6.32-9.98c0-1.35-0.24-2.66-0.72-3.92c1.43-0.99,2.3-2.62,2.3-4.38
		C50.83,2.39,48.44,0,45.5,0c-2,0-3.82,1.13-4.73,2.88c-1.69-0.41-3.46-0.41-5.15,0C34.71,1.13,32.89,0,30.89,0
		c-2.94,0-5.33,2.39-5.33,5.33c0,1.77,0.87,3.4,2.3,4.38c-0.48,1.26-0.72,2.57-0.72,3.92c0,4.41,2.6,8.22,6.35,9.99
		c-7.76,1.13-13.31,4.93-13.31,9.57c0,2.65,2.16,4.81,4.81,4.81c0.12,0,0.23-0.02,0.35-0.03c-1.26,1.28-2.04,3.04-2.04,4.97
		c0,2.44,1.24,4.59,3.11,5.87H13.47c0.79-0.32,1.54-0.73,2.23-1.25c2.08-1.56,3.43-3.84,3.79-6.42c0.37-2.58-0.29-5.14-1.85-7.22
		c-1.56-2.08-3.84-3.43-6.42-3.79C8.65,29.77,6.08,30.43,4,31.99s-3.43,3.84-3.79,6.42c-0.37,2.58,0.29,5.14,1.85,7.22
		c1.09,1.45,2.54,2.54,4.19,3.19H0.71C0.32,48.82,0,49.14,0,49.53v6.23C0,56.15,0.32,56.46,0.71,56.46z M46,48.64
		c-3.14,0-5.69-2.55-5.69-5.69s2.55-5.69,5.69-5.69s5.69,2.55,5.69,5.69S49.13,48.64,46,48.64z M27.25,36.6
		c-0.02-0.27-0.03-0.54-0.03-0.82c0-6.11,4.96-11.07,11.06-11.09c0.02,0,0.04,0,0.07,0c6.1,0.02,11.05,4.99,11.05,11.09
		c0,0.31-0.01,0.62-0.04,0.92c-1-0.54-2.15-0.85-3.36-0.85c-3.91,0-7.1,3.18-7.1,7.1c0,1.39,0.41,2.68,1.1,3.77
		c-1.19,0.18-2.4,0.17-3.58-0.04c0.68-1.09,1.07-2.36,1.07-3.74c0-3.91-3.18-7.1-7.1-7.1C29.26,35.86,28.2,36.13,27.25,36.6z
		 M54.92,33.2c0,1.87-1.53,3.4-3.4,3.4c-0.25,0-0.5-0.04-0.74-0.09c0.01-0.24,0.03-0.48,0.03-0.73c0-4.21-2.1-7.93-5.29-10.2
		C51.03,26.99,54.92,29.91,54.92,33.2z M28.55,13.63c0-1.35,0.28-2.67,0.84-3.92c0.15-0.34,0.01-0.74-0.32-0.91
		c-1.3-0.68-2.1-2.01-2.1-3.47c0-2.16,1.76-3.92,3.92-3.92c1.63,0,3.1,1.03,3.67,2.55c0.13,0.35,0.51,0.54,0.86,0.43
		c1.81-0.54,3.73-0.54,5.54,0c0.36,0.11,0.73-0.08,0.86-0.43c0.57-1.53,2.04-2.55,3.67-2.55c2.16,0,3.92,1.76,3.92,3.92
		c0,1.46-0.8,2.79-2.1,3.47C46.99,8.97,46.85,9.37,47,9.71c0.56,1.25,0.84,2.57,0.84,3.92c0,5.32-4.33,9.65-9.65,9.65
		S28.55,18.95,28.55,13.63z M21.58,33.2c0-3.32,3.97-6.27,9.58-7.66c-3.23,2.26-5.36,6.01-5.36,10.24c0,0.23,0.01,0.47,0.03,0.7
		c-0.28,0.07-0.56,0.12-0.85,0.12C23.11,36.6,21.58,35.07,21.58,33.2z M24.7,42.95c0-3.14,2.55-5.69,5.69-5.69s5.69,2.55,5.69,5.69
		s-2.55,5.69-5.69,5.69S24.7,46.09,24.7,42.95z M35.43,47.95c0.94,0.22,1.91,0.34,2.88,0.34c0.91,0,1.81-0.1,2.69-0.3
		c0.31,0.31,0.65,0.59,1.01,0.83h-7.64C34.76,48.56,35.11,48.27,35.43,47.95z M14.85,46.44c-1.5,1.13-3.29,1.69-5.13,1.66
		c0.46-1.8,1.5-3.39,3-4.51c1.49-1.12,3.31-1.68,5.16-1.62C17.4,43.75,16.35,45.31,14.85,46.44z M4.85,33.12
		c1.46-1.1,3.19-1.67,4.98-1.67c0.1,0,0.2,0.01,0.3,0.01c-0.43,1.86-1.5,3.51-3.03,4.66c-1.54,1.15-3.42,1.72-5.33,1.61
		C2.25,35.89,3.31,34.28,4.85,33.12z M3.19,44.78c-1.23-1.64-1.8-3.63-1.64-5.65c0.22,0.02,0.44,0.03,0.67,0.03
		c2.06,0,4.07-0.67,5.73-1.92c1.84-1.38,3.1-3.37,3.59-5.61c1.99,0.41,3.74,1.51,4.96,3.14c1.26,1.68,1.82,3.72,1.62,5.79
		c-2.24-0.12-4.46,0.53-6.26,1.89c-1.81,1.36-3.06,3.3-3.56,5.49C6.26,47.57,4.45,46.46,3.19,44.78z M1.41,50.23h53.64v4.82H1.41
		V50.23z"/>
</g>
</svg>
