<?xml version="1.0" encoding="utf-8"?>
<!-- Generator: Adobe Illustrator 21.0.0, SVG Export Plug-In . SVG Version: 6.00 Build 0)  -->
<svg version="1.1" id="Capa_1" xmlns="http://www.w3.org/2000/svg" xmlns:xlink="http://www.w3.org/1999/xlink" x="0px" y="0px"
	 viewBox="0 0 382.3 46.2" style="enable-background:new 0 0 382.3 46.2;" xml:space="preserve">
<style type="text/css">
	.st0{fill:#FFBF09;}
	.st1{fill:#606060;}
</style>
<g>
	<g>
		<rect class="st0" width="189.1" height="46.2"/>
	</g>
	<g>
		<g>
			<path class="st1" d="M19.6,35V11.2h6.7l6.3,16.5h0.1V11.2h4.7V35h-6.6l-6.5-17.4h-0.1V35H19.6z"/>
		</g>
		<g>
			<path class="st1" d="M57.7,11.2v16.9c0,3.6-2,7.3-8.1,7.3c-5.5,0-8.1-2.8-8.1-7.3V11.2h5v16.6c0,2.9,1.2,4.1,3.1,4.1
				c2.2,0,3.2-1.5,3.2-4.1V11.2H57.7z"/>
		</g>
		<g>
			<path class="st1" d="M61.8,35V11.2h13v3.7h-8v5.9h7.4v3.7h-7.4v7H75V35H61.8z"/>
		</g>
		<g>
			<path class="st1" d="M84.7,35.4c-6.2,0-7.3-3.6-7.1-7.8h5c0,2.3,0.1,4.2,2.8,4.2c1.7,0,2.5-1.1,2.5-2.7c0-4.3-10-4.6-10-11.7
				c0-3.7,1.8-6.7,7.9-6.7c4.8,0,7.3,2.2,6.9,7.2h-4.8c0-1.8-0.3-3.6-2.3-3.6c-1.6,0-2.6,0.9-2.6,2.5c0,4.5,10,4.1,10,11.6
				C93.1,34.7,88.5,35.4,84.7,35.4z"/>
		</g>
		<g>
			<path class="st1" d="M110.8,11.2v4h-5.6V35h-5V15.1h-5.6v-4H110.8z"/>
		</g>
		<g>
			<path class="st1" d="M118,35h-5V11.2h9.2c3.4,0,5.6,2.2,5.6,6.2c0,3-1.2,5.3-4.4,5.8v0.1c1.1,0.1,4.3,0.4,4.3,4.7
				c0,1.5,0.1,6,0.6,7h-4.9c-0.7-1.5-0.5-3.1-0.5-4.6c0-2.8,0.3-5.2-3.6-5.2H118L118,35L118,35z M118,21.5h2.2c2,0,2.5-2,2.5-3.5
				c0-2.3-1-3.1-2.5-3.1H118V21.5z"/>
		</g>
		<g>
			<path class="st1" d="M131.3,23.1c0-6.3,0-12.3,8.2-12.3s8.2,6,8.2,12.3c0,6.2,0,12.3-8.2,12.3S131.3,29.3,131.3,23.1z
				 M142.7,23.1c0-6.1-0.4-8.8-3.2-8.8s-3.2,2.6-3.2,8.8s0.4,8.8,3.2,8.8S142.7,29.2,142.7,23.1z"/>
		</g>
		<g>
			<path class="st1" d="M158.1,35.4c-6.2,0-7.3-3.6-7.1-7.8h5c0,2.3,0.1,4.2,2.8,4.2c1.7,0,2.5-1.1,2.5-2.7c0-4.3-10-4.6-10-11.7
				c0-3.7,1.8-6.7,7.9-6.7c4.9,0,7.3,2.2,6.9,7.2h-4.9c0-1.8-0.3-3.6-2.3-3.6c-1.6,0-2.6,0.9-2.6,2.5c0,4.5,10,4.1,10,11.6
				C166.5,34.7,161.9,35.4,158.1,35.4z"/>
		</g>
	</g>
	<g>
		<g>
			<path class="st1" d="M201,11.2h9c4.6,0,6.3,2.8,6.3,7.1c0,2.7-0.8,7-6.6,7H206V35h-5L201,11.2L201,11.2z M206,21.7h2.8
				c1.5,0,2.5-1.6,2.5-3.2c0-2-0.5-3.6-2.8-3.6H206V21.7z"/>
		</g>
		<g>
			<path class="st1" d="M224.2,35h-5V11.2h9.2c3.4,0,5.6,2.2,5.6,6.2c0,3-1.2,5.3-4.4,5.8v0.1c1.1,0.1,4.3,0.4,4.3,4.7
				c0,1.5,0.1,6,0.6,7h-4.9c-0.7-1.5-0.5-3.1-0.5-4.6c0-2.8,0.3-5.2-3.6-5.2h-1.3L224.2,35L224.2,35z M224.2,21.5h2.2
				c2,0,2.5-2,2.5-3.5c0-2.3-1-3.1-2.5-3.1h-2.2V21.5z"/>
		</g>
		<g>
			<path class="st1" d="M237.5,23.1c0-6.3,0-12.3,8.2-12.3s8.2,6,8.2,12.3c0,6.2,0,12.3-8.2,12.3S237.5,29.3,237.5,23.1z
				 M248.9,23.1c0-6.1-0.4-8.8-3.2-8.8s-3.2,2.6-3.2,8.8s0.4,8.8,3.2,8.8C248.5,31.9,248.9,29.2,248.9,23.1z"/>
		</g>
		<g>
			<path class="st1" d="M258,11.2h8.3c6.5,0,7.8,4.4,7.8,11.8c0,3.7,0.6,12-8,12H258L258,11.2L258,11.2z M263,31.4h2.4
				c3,0,3.6-2.3,3.6-8.3c0-4.4,0-8.3-3.5-8.3H263L263,31.4L263,31.4z"/>
		</g>
		<g>
			<path class="st1" d="M294.2,11.2v16.9c0,3.6-2,7.3-8.1,7.3c-5.5,0-8.1-2.8-8.1-7.3V11.2h5v16.6c0,2.9,1.2,4.1,3.1,4.1
				c2.2,0,3.2-1.5,3.2-4.1V11.2H294.2z"/>
		</g>
		<g>
			<path class="st1" d="M298,23.1c0-6.3,0-12.3,8.2-12.3c5.1,0,7.1,2.8,6.9,7.9h-4.9c0-3.2-0.6-4.4-2-4.4c-2.8,0-3.2,2.6-3.2,8.8
				s0.4,8.8,3.2,8.8c2.3,0,2.2-3,2.3-4.9h4.9c0,6.4-2.5,8.4-7.2,8.4C298,35.4,298,29.3,298,23.1z"/>
		</g>
		<g>
			<path class="st1" d="M330.8,11.2v4h-5.5V35h-5V15.1h-5.5v-4H330.8z"/>
		</g>
		<g>
			<path class="st1" d="M332.9,23.1c0-6.3,0-12.3,8.2-12.3s8.2,6,8.2,12.3c0,6.2,0,12.3-8.2,12.3S332.9,29.3,332.9,23.1z
				 M344.3,23.1c0-6.1-0.4-8.8-3.2-8.8s-3.2,2.6-3.2,8.8s0.4,8.8,3.2,8.8S344.3,29.2,344.3,23.1z"/>
		</g>
		<g>
			<path class="st1" d="M359.8,35.4c-6.2,0-7.3-3.6-7.1-7.8h5c0,2.3,0.1,4.2,2.8,4.2c1.7,0,2.5-1.1,2.5-2.7c0-4.3-10-4.6-10-11.7
				c0-3.7,1.8-6.7,7.9-6.7c4.9,0,7.3,2.2,6.9,7.2h-4.9c0-1.8-0.3-3.6-2.3-3.6c-1.6,0-2.6,0.9-2.6,2.5c0,4.5,10,4.1,10,11.6
				C368.1,34.7,363.6,35.4,359.8,35.4z"/>
		</g>
	</g>
	<g>
		<path class="st1" d="M382.3,46.2H188.6V0h193.7V46.2z M189.6,45.2h191.7V1H189.6V45.2z"/>
	</g>
</g>
</svg>
