<?xml version="1.0" encoding="utf-8"?>
<!-- Generator: Adobe Illustrator 21.0.0, SVG Export Plug-In . SVG Version: 6.00 Build 0)  -->
<svg version="1.1" id="Capa_1" xmlns="http://www.w3.org/2000/svg" xmlns:xlink="http://www.w3.org/1999/xlink" x="0px" y="0px"
	 viewBox="0 0 485.3 549" style="enable-background:new 0 0 485.3 549;" xml:space="preserve">
<style type="text/css">
	.st0{fill:#EEBE2F;}
	.st1{fill:#DBA728;}
	.st2{fill:#606060;}
	.st3{fill:#FFFFFF;}
	.st4{fill:#DAA628;stroke:#FFFFFF;stroke-miterlimit:10;}
</style>
<g>
	<rect x="38.4" class="st0" width="446.8" height="549"/>
	<path class="st1" d="M0,549h485.3V322.8H209.1C93.6,322.8,0,416.4,0,532V549z"/>
	<g>
		<g>
			<path class="st2" d="M127.6,76.2h12.2c9.6,0,11.4,6.4,11.4,17.2c0,5.4,0.8,17.6-11.6,17.6h-11.9
				C127.6,111.1,127.6,76.2,127.6,76.2z M134.9,105.7h3.5c4.4,0,5.3-3.3,5.3-12.1c0-6.4,0-12.1-5.1-12.1h-3.8L134.9,105.7
				L134.9,105.7z"/>
			<path class="st2" d="M157,111.1V76.2h19v5.4h-11.7v8.6h10.8v5.4h-10.8v10.2h12.1v5.4L157,111.1L157,111.1z"/>
			<path class="st2" d="M190.6,111.6c-9,0-10.7-5.3-10.3-11.3h7.3c0,3.3,0.1,6.1,4.1,6.1c2.5,0,3.7-1.6,3.7-4
				c0-6.3-14.7-6.7-14.7-17.1c0-5.5,2.6-9.8,11.5-9.8c7.1,0,10.6,3.2,10.1,10.5h-7.1c0-2.6-0.4-5.3-3.4-5.3c-2.4,0-3.8,1.3-3.8,3.7
				c0,6.6,14.7,6,14.7,17C202.8,110.6,196.2,111.6,190.6,111.6z"/>
			<path class="st2" d="M207.7,93.6c0-9.2,0-18,12-18c7.4,0,10.4,4.1,10.1,11.6h-7.1c0-4.6-0.8-6.4-3-6.4c-4.1,0-4.6,3.9-4.6,12.8
				s0.5,12.8,4.6,12.8c3.4,0,3.2-4.3,3.3-7.1h7.2c0,9.3-3.7,12.3-10.5,12.3C207.7,111.6,207.7,102.8,207.7,93.6z"/>
			<path class="st2" d="M258.5,76.2v24.7c0,5.2-2.9,10.7-11.8,10.7c-8,0-11.9-4.2-11.9-10.7V76.2h7.3v24.2c0,4.3,1.8,6,4.5,6
				c3.2,0,4.6-2.1,4.6-6V76.2H258.5z"/>
			<path class="st2" d="M264.4,111.1V76.2h19v5.4h-11.7v8.6h10.8v5.4h-10.8v10.2h12.1v5.4L264.4,111.1L264.4,111.1z"/>
			<path class="st2" d="M288.6,111.1V76.2h9.9l9.3,24.2h0.1V76.2h6.8v34.9H305l-9.5-25.5h-0.1v25.5H288.6z"/>
			<path class="st2" d="M341.5,76.2V82h-8.1v29.1h-7.3V82H318v-5.8H341.5z"/>
			<path class="st2" d="M344.6,93.6c0-9.2,0-18,12-18s12,8.8,12,18c0,9.1,0,18-12,18C344.6,111.6,344.6,102.8,344.6,93.6z
				 M361.3,93.6c0-8.9-0.5-12.8-4.6-12.8s-4.6,3.9-4.6,12.8s0.5,12.8,4.6,12.8S361.3,102.6,361.3,93.6z"/>
			<path class="st2" d="M383.9,111.6c-9,0-10.7-5.3-10.3-11.3h7.3c0,3.3,0.1,6.1,4.1,6.1c2.5,0,3.7-1.6,3.7-4
				c0-6.3-14.7-6.7-14.7-17.1c0-5.5,2.6-9.8,11.5-9.8c7.1,0,10.6,3.2,10.1,10.5h-7.1c0-2.6-0.4-5.3-3.4-5.3c-2.4,0-3.8,1.3-3.8,3.7
				c0,6.6,14.7,6,14.7,17C396.1,110.6,389.5,111.6,383.9,111.6z"/>
		</g>
		<g>
			<path class="st2" d="M320.5,223.8l-6.3-15.7h5.5l3.6,10.1l3.8-10.1h5.1l-6.7,15.7v8.3h-5L320.5,223.8L320.5,223.8z"/>
			<path class="st2" d="M341.9,232.1v-24h8.1l3.8,16.4h0.1l4-16.4h7.8v24h-4.9v-18.5h-0.1l-4.6,18.5h-4.8l-4.4-18.5h-0.1v18.5H341.9
				z"/>
			<path class="st2" d="M367.9,232.1l6.7-24h6.6l6.5,24h-5.3l-1.3-5.3h-6.9l-1.4,5.3H367.9z M382.5,200.8l-5.3,4.8H375l3-4.8H382.5z
				 M377.6,212.7L377.6,212.7l-2.4,10.4h4.8L377.6,212.7z"/>
			<path class="st2" d="M396.6,232.5c-6.2,0-7.4-3.7-7.1-7.8h5c0,2.3,0.1,4.2,2.9,4.2c1.7,0,2.5-1.1,2.5-2.7
				c0-4.3-10.1-4.6-10.1-11.8c0-3.8,1.8-6.8,7.9-6.8c4.9,0,7.3,2.2,7,7.2h-4.9c0-1.8-0.3-3.6-2.3-3.6c-1.6,0-2.6,0.9-2.6,2.6
				c0,4.6,10.1,4.2,10.1,11.7C405,231.8,400.5,232.5,396.6,232.5z"/>
		</g>
		<rect x="117.2" y="118" class="st3" width="288.7" height="79.1"/>
		<g>
			<g>
				<path class="st0" d="M133.4,157.8c0-13.2,0-25.8,17.2-25.8s17.2,12.6,17.2,25.8c0,13.1,0,25.8-17.2,25.8
					S133.4,170.9,133.4,157.8z M157.3,157.8c0-12.8-0.8-18.4-6.6-18.4s-6.6,5.5-6.6,18.4c0,12.8,0.8,18.4,6.6,18.4
					S157.3,170.6,157.3,157.8z"/>
				<path class="st0" d="M176,182.8v-50h26v7.7h-15.5v12.8h14.8v7.7h-14.8v21.8L176,182.8L176,182.8z"/>
				<path class="st0" d="M207,182.8v-50h27.3v7.7h-16.8v12.3h15.5v7.7h-15.5v14.6h17.4v7.7L207,182.8L207,182.8z"/>
				<path class="st0" d="M251.9,182.8h-10.5v-50h19.3c7.1,0,11.7,4.6,11.7,13.1c0,6.4-2.5,11.1-9.3,12.3v0.1
					c2.3,0.3,9.1,0.8,9.1,9.8c0,3.2,0.2,12.6,1.2,14.7h-10.2c-1.4-3.1-1.1-6.4-1.1-9.7c0-6,0.5-11-7.5-11h-2.7L251.9,182.8
					L251.9,182.8z M251.9,154.4h4.6c4.1,0,5.3-4.1,5.3-7.3c0-4.8-2-6.6-5.3-6.6h-4.6L251.9,154.4L251.9,154.4z"/>
				<path class="st0" d="M309.9,132.8v8.3h-11.6v41.7h-10.5v-41.7h-11.6v-8.3H309.9z"/>
				<path class="st0" d="M306.8,182.8l13.9-50h13.8l13.6,50h-11l-2.8-11.1h-14.3l-2.8,11.1H306.8z M326.9,142.5h-0.1l-4.8,21.6h10
					L326.9,142.5z"/>
				<path class="st0" d="M366.5,183.7c-13,0-15.4-7.6-14.8-16.3h10.5c0,4.8,0.2,8.8,6,8.8c3.5,0,5.3-2.3,5.3-5.7c0-9-21-9.6-21-24.4
					c0-7.8,3.7-14.1,16.5-14.1c10.2,0,15.2,4.6,14.5,15h-10.2c0-3.7-0.6-7.6-4.9-7.6c-3.4,0-5.4,1.9-5.4,5.3c0,9.5,21,8.7,21,24.4
					C383.9,182.1,374.4,183.7,366.5,183.7z"/>
			</g>
		</g>
	</g>
	<g>
		<circle class="st3" cx="156.5" cy="447.5" r="33.7"/>
		<circle class="st3" cx="268.1" cy="447.5" r="33.7"/>
		<circle class="st3" cx="383.3" cy="447.5" r="33.7"/>
		<g>
			<g>
				<path class="st2" d="M186,436.7c-0.2-0.3-0.5-0.5-0.8-0.7l0.2-2.8c0.2-2.5-1.3-4.7-3.7-5.4c-6.4-2-18.3-5.3-25.3-5.3
					c-7.3,0-20.1,3.7-25.3,5.3c-2.4,0.7-3.9,3-3.7,5.4l0.2,2.8c-1.5,1.1-2.3,2.9-2.1,4.8l2.7,26.8c0.1,0.5,0.5,0.9,1,0.9h1v7.3
					c0,0.6,0.5,1,1,1h2.1c0.5,0,0.9-0.3,1-0.8l1.9-7.6h40.2l1.9,7.6c0.1,0.5,0.5,0.8,1,0.8h2.1c0.6,0,1-0.5,1-1v-7.3h1
					c0.5,0,1-0.4,1-0.9l2.7-26.8C187.5,439.3,187,437.8,186,436.7z M129.6,433c-0.1-1.5,0.8-2.8,2.2-3.3c5.1-1.6,17.7-5.2,24.7-5.2
					s19.6,3.6,24.7,5.2c1.4,0.4,2.3,1.8,2.2,3.3l-0.2,2.1c-0.3-0.1-0.7-0.1-1-0.1H182c-3.8,0-6.9,2.8-7.3,6.6l-0.6,5.9
					c-1-1.3-2.5-2-4.1-2h-27.2c-1.6,0-3.1,0.7-4.1,2l-0.6-5.9c-0.4-3.7-3.5-6.6-7.3-6.6h-0.2c-0.4,0-0.7,0-1,0.1L129.6,433z
					 M173.2,453.8h-33.4v-3.1c0-1.7,1.4-3.1,3.1-3.1H170c1.7,0,3.1,1.4,3.1,3.1L173.2,453.8L173.2,453.8z M173.3,455.9l-1,10.5
					h-31.6l-1-10.5H173.3z M132.7,474.7h-0.2v-6.3h1.8L132.7,474.7z M130.2,466.3l-2.6-25.8c-0.2-1.7,1.1-3.3,2.8-3.4
					c0.1,0,0.2,0,0.3,0h0.2c2.7,0,4.9,2,5.2,4.7l2.5,24.6L130.2,466.3L130.2,466.3z M180.5,474.7h-0.2l-1.6-6.3h1.8V474.7z
					 M182.7,466.3h-8.4l2.5-24.6c0.3-2.7,2.5-4.7,5.2-4.7h0.2c1.7,0,3.1,1.4,3.1,3.1c0,0.1,0,0.2,0,0.3L182.7,466.3z"/>
				<rect x="148.1" y="431.9" class="st2" width="2.1" height="2.1"/>
				<rect x="148.1" y="438.1" class="st2" width="2.1" height="2.1"/>
				<rect x="162.7" y="431.9" class="st2" width="2.1" height="2.1"/>
				<rect x="162.7" y="438.1" class="st2" width="2.1" height="2.1"/>
			</g>
		</g>
		<g>
			<path class="st2" d="M296,452v-14.4c0-0.6-0.5-1-1-1c-3.3,0-6-2.7-6-6c0-0.6-0.5-1-1-1h-1c-3.1,0-6-1.6-7.6-4.2
				c-1.7-2.4-4.5-3.9-7.5-3.9h-6c-3,0-5.7,1.5-7.5,3.9c-1.7,2.6-4.6,4.1-7.6,4.2h-1.1c-0.6,0-1,0.5-1,1c0,3.3-2.7,6-6.1,6
				c-0.6,0-1,0.5-1,1V452c-1.9,1.7-3,4.2-3,6.8v12.1c0,0.6,0.4,1,1,1h2v5c0,0.6,0.4,1,1,1h3c0.5,0,0.9-0.4,1-0.8l0.9-5.2h42.7
				l0.9,5.2c0.1,0.5,0.5,0.8,1,0.8h3c0.6,0,1-0.5,1-1v-5h2c0.6,0,1-0.5,1-1v-12.1C299.1,456.1,298,453.7,296,452z M243.6,438.5
				c3.7-0.5,6.5-3.4,7-7h0.1c3.7,0,7.2-1.9,9.3-5c1.3-1.9,3.5-3,5.8-3h6c2.3,0,4.5,1.1,5.8,3c2.1,3.1,5.6,5,9.3,5h0.1
				c0.5,3.7,3.4,6.5,7,7v12.1c-0.6-0.3-1.3-0.6-2-0.7v-9.1c0-0.4-0.2-0.8-0.6-0.9c-2.7-1.1-4.8-3.2-5.8-5.9
				c-0.1-0.3-0.4-0.6-0.8-0.6c-3.6-0.7-6.8-2.7-8.8-5.7c-1-1.4-2.5-2.1-4.1-2.2h-6c-1.6,0-3.2,0.8-4.1,2.2c-2.1,3-5.2,5.1-8.8,5.7
				c-0.4,0.1-0.6,0.3-0.8,0.6c-1,2.7-3.1,4.9-5.8,5.9c-0.4,0.1-0.6,0.5-0.6,0.9v9.1c-0.7,0.2-1.4,0.4-2,0.7L243.6,438.5L243.6,438.5
				z M273.8,448.6v-4c0-0.6,0.5-1,1-1h8.1c0.6,0,1,0.5,1,1v4c0,0.6-0.5,1-1,1h-8.1C274.3,449.6,273.8,449.2,273.8,448.6z
				 M282.9,441.5h-8.1c-1.7,0-3,1.4-3,3v4c0,0.3,0.1,0.7,0.2,1h-6.4c0.1-0.3,0.2-0.7,0.2-1v-4c0-1.7-1.4-3-3-3h-8.1
				c-1.7,0-3,1.4-3,3v4c0,0.3,0.1,0.7,0.2,1h-4.2v-8.2c2.7-1.3,4.9-3.5,6.1-6.3c3.9-0.9,7.3-3.2,9.6-6.5c0.6-0.8,1.5-1.3,2.5-1.3h6
				c1,0,1.9,0.5,2.5,1.3c2.3,3.3,5.7,5.6,9.6,6.5c1.2,2.8,3.4,5,6.1,6.3v8.2h-4.2c0.1-0.3,0.2-0.7,0.2-1v-4
				C286,442.9,284.6,441.5,282.9,441.5z M253.7,448.6v-4c0-0.6,0.4-1,1-1h8.1c0.6,0,1,0.5,1,1v4c0,0.6-0.5,1-1,1h-8.1
				C254.1,449.6,253.7,449.2,253.7,448.6z M247.6,451.6H290c3.5,0,6.5,2.6,7,6h-56.4C241.1,454.2,244.1,451.6,247.6,451.6z
				 M244.7,475.9h-1.2v-4h1.8L244.7,475.9z M294,475.9h-1.2l-0.7-4h1.8L294,475.9L294,475.9z M297,469.8h-56.5v-10.1H297V469.8z"/>
			<polygon class="st2" points="269.8,430.5 267.8,430.5 267.8,431.5 266.8,431.5 266.8,433.5 267.8,433.5 267.8,434.5 269.8,434.5 
				269.8,433.5 270.8,433.5 270.8,431.5 269.8,431.5 			"/>
			<polygon class="st2" points="269.8,438.5 267.8,438.5 267.8,439.5 266.8,439.5 266.8,441.5 267.8,441.5 267.8,442.5 269.8,442.5 
				269.8,441.5 270.8,441.5 270.8,439.5 269.8,439.5 			"/>
			<polygon class="st2" points="279.9,435.5 277.9,435.5 277.9,436.5 276.9,436.5 276.9,438.5 277.9,438.5 277.9,439.5 279.9,439.5 
				279.9,438.5 280.9,438.5 280.9,436.5 279.9,436.5 			"/>
			<polygon class="st2" points="259.7,435.5 257.7,435.5 257.7,436.5 256.7,436.5 256.7,438.5 257.7,438.5 257.7,439.5 259.7,439.5 
				259.7,438.5 260.7,438.5 260.7,436.5 259.7,436.5 			"/>
		</g>
		<path class="st2" d="M403,430.5c-0.5-5.3-5-9.5-10.5-9.5c-4.2,0-7.8,2.4-9.5,6c-1.7-3.5-5.3-6-9.5-6c-5.5,0-10,4.2-10.5,9.5
			c-4.7,0.5-8.4,4.2-8.9,8.9h0v1.1v1.1v3h4c0.5,2.8,3,5,6,5s5.5-2.2,6-5h4v-3v-1.1v-1.1h0c-0.5-4.6-4.2-8.3-8.8-8.9
			c0.5-4.2,4-7.4,8.3-7.4c4.6,0,8.4,3.8,8.4,8.4v44.7h-3.4v2.1h8.9v-2.1h-3.4v-44.7c0-4.6,3.8-8.4,8.4-8.4c4.3,0,7.8,3.2,8.3,7.4
			c-4.6,0.5-8.3,4.2-8.8,8.9h0v1.1v1.1v3h4.2c0.5,2.8,3,5,6,5s5.5-2.2,6-5h4.2v-5.1H412C411.4,434.6,407.7,430.9,403,430.5z
			 M364.2,447.3c-1.8,0-3.3-1.2-3.8-2.9h7.6C367.5,446.1,366,447.3,364.2,447.3z M372,442.3h-15.7v-0.9H372L372,442.3L372,442.3z
			 M372,439.3h-15.6c0.5-3.8,3.8-6.8,7.8-6.8C368.2,432.5,371.5,435.5,372,439.3z M402.2,447.3c-1.8,0-3.3-1.2-3.8-2.9h7.6
			C405.5,446.1,404,447.3,402.2,447.3z M410.2,442.3h-16v-0.9h16V442.3z M394.2,439.3c0.5-3.8,3.8-6.8,7.8-6.8s7.3,3,7.8,6.8H394.2z
			"/>
	</g>
	<g>
		<g>
			<path class="st2" d="M112.4,306.5c-1.4,0-2.6-1.1-2.6-2.6v-10.8c0-1.4,1.2-2.6,2.6-2.6c1.4,0,2.6,1.1,2.6,2.6v10.8
				C115,305.3,113.8,306.5,112.4,306.5z"/>
			<path class="st2" d="M112.4,325.7c-1.4,0-2.6-1.1-2.6-2.6v-10.8c0-1.4,1.2-2.6,2.6-2.6c1.4,0,2.6,1.1,2.6,2.6v10.8
				C115,324.5,113.8,325.7,112.4,325.7z"/>
			<path class="st2" d="M127.3,310.7h-10.8c-1.4,0-2.6-1.1-2.6-2.6c0-1.4,1.2-2.6,2.6-2.6h10.8c1.4,0,2.6,1.1,2.6,2.6
				C129.9,309.5,128.8,310.7,127.3,310.7z"/>
			<path class="st2" d="M108.2,310.7H97.4c-1.4,0-2.6-1.1-2.6-2.6c0-1.4,1.2-2.6,2.6-2.6h10.8c1.4,0,2.6,1.1,2.6,2.6
				C110.8,309.5,109.6,310.7,108.2,310.7z"/>
		</g>
	</g>
	<g>
		<g>
			<path class="st2" d="M68,511.2c-1.4,0-2.6-1.1-2.6-2.6v-10.8c0-1.4,1.2-2.6,2.6-2.6c1.4,0,2.6,1.1,2.6,2.6v10.8
				C70.6,510.1,69.4,511.2,68,511.2z"/>
			<path class="st2" d="M68,530.4c-1.4,0-2.6-1.2-2.6-2.6v-10.8c0-1.4,1.2-2.6,2.6-2.6c1.4,0,2.6,1.2,2.6,2.6v10.8
				C70.6,529.3,69.4,530.4,68,530.4z"/>
			<path class="st2" d="M82.9,515.5H72.2c-1.4,0-2.6-1.2-2.6-2.6c0-1.4,1.2-2.6,2.6-2.6H83c1.4,0,2.6,1.1,2.6,2.6
				C85.5,514.3,84.4,515.5,82.9,515.5z"/>
			<path class="st2" d="M63.8,515.5H53c-1.4,0-2.6-1.2-2.6-2.6c0-1.4,1.2-2.6,2.6-2.6h10.8c1.4,0,2.6,1.1,2.6,2.6
				C66.3,514.3,65.2,515.5,63.8,515.5z"/>
		</g>
	</g>
	<path class="st3" d="M455.3,92.9h-19.4c-1.8,0-3.4-0.9-4.3-2.5s-0.9-3.4,0-4.9l9.7-16.8c0.9-1.5,2.5-2.5,4.3-2.5s3.4,0.9,4.3,2.5
		l9.7,16.8c0.9,1.5,0.9,3.4,0,4.9C458.7,92,457.1,92.9,455.3,92.9z M436.9,87.4h17.4l-8.7-15L436.9,87.4z M443.7,70.1L443.7,70.1
		L443.7,70.1z"/>
	<path class="st3" d="M455.3,518.4h-19.4c-1.8,0-3.4-0.9-4.3-2.5c-0.9-1.5-0.9-3.4,0-4.9l9.7-16.8c0.9-1.5,2.5-2.5,4.3-2.5
		s3.4,0.9,4.3,2.5l9.7,16.8c0.9,1.5,0.9,3.4,0,4.9C458.7,517.5,457.1,518.4,455.3,518.4z M436.9,512.9h17.4l-8.7-15L436.9,512.9z
		 M443.7,495.6L443.7,495.6L443.7,495.6z"/>
	<path class="st3" d="M91.4,75.8H72.1c-1.8,0-3.4-0.9-4.3-2.5s-0.9-3.4,0-4.9l9.7-16.8c0.9-1.5,2.5-2.5,4.3-2.5s3.4,0.9,4.3,2.5
		l9.7,16.8c0.9,1.5,0.9,3.4,0,4.9C94.8,74.8,93.2,75.8,91.4,75.8z M73,70.3h17.4l-8.7-15L73,70.3z M79.8,53L79.8,53L79.8,53z"/>
	<path class="st2" d="M290,44.9c-5.5,0-9.9-4.5-9.9-9.9s4.5-9.9,9.9-9.9s9.9,4.5,9.9,9.9S295.5,44.9,290,44.9z M290,30.1
		c-2.6,0-4.8,2.1-4.8,4.8s2.1,4.8,4.8,4.8s4.8-2.2,4.8-4.8S292.6,30.1,290,30.1z"/>
	<path class="st2" d="M330.7,366.3c-5.5,0-9.9-4.5-9.9-9.9s4.5-9.9,9.9-9.9s9.9,4.5,9.9,9.9S336.2,366.3,330.7,366.3z M330.7,351.6
		c-2.6,0-4.8,2.1-4.8,4.8s2.1,4.8,4.8,4.8s4.8-2.1,4.8-4.8S333.4,351.6,330.7,351.6z"/>
</g>
<g>
	<path class="st4" d="M358.8,296.1H182.8c-3.3,0-6-2.7-6-6v-25.2c0-3.3,2.7-6,6-6h176.1c3.3,0,6,2.7,6,6v25.2
		C364.8,293.4,362.1,296.1,358.8,296.1z"/>
	<g>
		<g>
			<path class="st3" d="M226.6,277.2c0-3.7,0-7.2,4.8-7.2c3,0,4.1,1.6,4,4.6h-2.8c0-1.8-0.3-2.5-1.2-2.5c-1.6,0-1.8,1.5-1.8,5.1
				c0,3.5,0.2,5.1,1.8,5.1c1.3,0,1.3-1.7,1.3-2.8h2.9c0,3.7-1.5,4.9-4.2,4.9C226.6,284.3,226.6,280.8,226.6,277.2z"/>
			<path class="st3" d="M237.4,284.1v-13.8h2.9v11.5h4.3v2.3H237.4z"/>
			<path class="st3" d="M245.9,284.1v-13.8h2.9v13.8H245.9z"/>
			<path class="st3" d="M251.1,277.2c0-3.7,0-7.2,4.8-7.2c3,0,4.1,1.6,4,4.6h-2.8c0-1.8-0.3-2.5-1.2-2.5c-1.6,0-1.8,1.5-1.8,5.1
				c0,3.5,0.2,5.1,1.8,5.1c1.3,0,1.3-1.7,1.3-2.8h2.9c0,3.7-1.5,4.9-4.2,4.9C251.1,284.3,251.1,280.8,251.1,277.2z"/>
			<path class="st3" d="M268.1,270.2h3.2l-3.9,6.2l3.9,7.6H268l-3.3-7.1h0v7.1h-2.9v-13.8h2.9v5.9h0L268.1,270.2z"/>
			<path class="st3" d="M275.8,284.1l3.8-13.8h3.8l3.8,13.8h-3l-0.8-3.1h-4l-0.8,3.1H275.8z M281.3,272.9L281.3,272.9l-1.4,6h2.8
				L281.3,272.9z"/>
			<path class="st3" d="M299,284.1h-4.1c-0.2,0-0.5,0-0.8,0.1c-0.3,0-0.6,0.1-0.8,0.1c-4.3,0-4.8-2.2-4.8-7.1c0-3.7,0-7.2,4.8-7.2
				c4.8,0,4.8,3.5,4.8,7.2c0,3-0.5,4.3-1.7,5.2l0,0c0.4-0.1,1.2-0.5,1.5-0.5h1.2V284.1z M295,277.2c0-3.5-0.2-5.1-1.8-5.1
				c-1.6,0-1.8,1.5-1.8,5.1c0,3.5,0.2,5,1.8,5C294.8,282.2,295,280.6,295,277.2z"/>
			<path class="st3" d="M309.6,270.2v9.8c0,2.1-1.2,4.3-4.7,4.3c-3.2,0-4.7-1.6-4.7-4.3v-9.8h2.9v9.6c0,1.7,0.7,2.4,1.8,2.4
				c1.3,0,1.8-0.8,1.8-2.4v-9.6H309.6z"/>
			<path class="st3" d="M316.1,266.1l-3.1,2.7h-1.2l1.7-2.7H316.1z M312,284.1v-13.8h2.9v13.8H312z"/>
		</g>
	</g>
</g>
</svg>
