<?xml version="1.0" encoding="utf-8"?>
<!-- Generator: Adobe Illustrator 21.0.0, SVG Export Plug-In . SVG Version: 6.00 Build 0)  -->
<svg version="1.1" id="Capa_1" xmlns="http://www.w3.org/2000/svg" xmlns:xlink="http://www.w3.org/1999/xlink" x="0px" y="0px"
	 viewBox="0 0 289.8 46.2" style="enable-background:new 0 0 289.8 46.2;" xml:space="preserve">
<style type="text/css">
	.st0{fill:#FFBF09;}
	.st1{fill:#606060;}
</style>
<g>
	<g>
		<rect class="st0" width="157.3" height="46.2"/>
	</g>
	<g>
		<g>
			<path class="st1" d="M36.7,35h-7c-0.4,0-0.9,0.1-1.4,0.1c-0.5,0.1-1,0.1-1.5,0.1c-7.4,0-8.3-3.9-8.3-12.1c0-6.3,0-12.3,8.2-12.3
				s8.2,6,8.2,12.3c0,5.1-0.9,7.4-2.9,9l0.1,0.1c0.7-0.2,2-0.8,2.5-0.8h2.1C36.7,31.4,36.7,35,36.7,35z M29.9,23.1
				c0-6.1-0.4-8.8-3.2-8.8s-3.2,2.6-3.2,8.8c0,5.9,0.4,8.6,3.2,8.6C29.6,31.7,29.9,29.1,29.9,23.1z"/>
		</g>
		<g>
			<path class="st1" d="M55.1,11.2v16.9c0,3.6-2,7.3-8.1,7.3c-5.5,0-8.1-2.8-8.1-7.3V11.2h5v16.6c0,2.9,1.2,4.1,3.1,4.1
				c2.2,0,3.2-1.5,3.2-4.1V11.2H55.1z"/>
		</g>
		<g>
			<path class="st1" d="M59.1,35V11.2h5V35H59.1z"/>
		</g>
		<g>
			<path class="st1" d="M68.3,35V11.2h13v3.7h-8v5.9h7.4v3.7h-7.4v7h8.3V35L68.3,35L68.3,35z"/>
		</g>
		<g>
			<path class="st1" d="M84.8,35V11.2h6.7l6.3,16.5H98V11.2h4.7V35h-6.6l-6.5-17.4h-0.1V35H84.8z"/>
		</g>
		<g>
			<path class="st1" d="M106.8,35V11.2h13v3.7h-8v5.9h7.4v3.7h-7.4v7h8.3V35L106.8,35L106.8,35z"/>
		</g>
		<g>
			<path class="st1" d="M129.8,35.4c-6.2,0-7.3-3.6-7.1-7.8h5c0,2.3,0.1,4.2,2.8,4.2c1.7,0,2.5-1.1,2.5-2.7c0-4.3-10-4.6-10-11.7
				c0-3.7,1.8-6.7,7.9-6.7c4.9,0,7.3,2.2,6.9,7.2H133c0-1.8-0.3-3.6-2.3-3.6c-1.6,0-2.6,0.9-2.6,2.5c0,4.5,10,4.1,10,11.6
				C138.1,34.7,133.6,35.4,129.8,35.4z"/>
		</g>
	</g>
	<g>
		<g>
			<path class="st1" d="M178.7,35.4c-6.2,0-7.3-3.6-7.1-7.8h5c0,2.3,0.1,4.2,2.8,4.2c1.7,0,2.5-1.1,2.5-2.7c0-4.3-10-4.6-10-11.7
				c0-3.7,1.8-6.7,7.9-6.7c4.9,0,7.3,2.2,6.9,7.2h-4.9c0-1.8-0.3-3.6-2.3-3.6c-1.6,0-2.6,0.9-2.6,2.5c0,4.5,10,4.1,10,11.6
				C187,34.7,182.5,35.4,178.7,35.4z"/>
		</g>
		<g>
			<path class="st1" d="M190.3,23.1c0-6.3,0-12.3,8.2-12.3s8.2,6,8.2,12.3c0,6.2,0,12.3-8.2,12.3S190.3,29.3,190.3,23.1z
				 M201.7,23.1c0-6.1-0.4-8.8-3.2-8.8s-3.2,2.6-3.2,8.8s0.4,8.8,3.2,8.8S201.7,29.2,201.7,23.1z"/>
		</g>
		<g>
			<path class="st1" d="M210.6,35V11.2h8l3.7,16.2h0.1l4-16.2h7.8V35h-4.9V16.6h-0.1L224.7,35h-4.8l-4.4-18.4h-0.1V35H210.6z"/>
		</g>
		<g>
			<path class="st1" d="M238,23.1c0-6.3,0-12.3,8.2-12.3s8.2,6,8.2,12.3c0,6.2,0,12.3-8.2,12.3S238,29.3,238,23.1z M249.4,23.1
				c0-6.1-0.4-8.8-3.2-8.8s-3.2,2.6-3.2,8.8s0.4,8.8,3.2,8.8S249.4,29.2,249.4,23.1z"/>
		</g>
		<g>
			<path class="st1" d="M264.9,35.4c-6.2,0-7.3-3.6-7.1-7.8h5c0,2.3,0.1,4.2,2.8,4.2c1.7,0,2.5-1.1,2.5-2.7c0-4.3-10-4.6-10-11.7
				c0-3.7,1.8-6.7,7.9-6.7c4.9,0,7.3,2.2,6.9,7.2h-4.9c0-1.8-0.3-3.6-2.3-3.6c-1.6,0-2.6,0.9-2.6,2.5c0,4.5,10,4.1,10,11.6
				C273.2,34.7,268.7,35.4,264.9,35.4z"/>
		</g>
	</g>
	<g>
		<path class="st1" d="M289.8,46.2h-133V0h133V46.2z M157.8,45.2h131V1h-131V45.2z"/>
	</g>
</g>
</svg>
