<?xml version="1.0" encoding="utf-8"?>
<!-- Generator: Adobe Illustrator 23.0.2, SVG Export Plug-In . SVG Version: 6.00 Build 0)  -->
<svg version="1.1" id="Capa_1" xmlns="http://www.w3.org/2000/svg" xmlns:xlink="http://www.w3.org/1999/xlink" x="0px" y="0px"
	 viewBox="0 0 61.83 54.34" style="enable-background:new 0 0 61.83 54.34;" xml:space="preserve">
<style type="text/css">
	.st0{fill:#FFFFFF;}
</style>
<g>
	<path class="st0" d="M60.47,14.26c-0.25-0.27-0.52-0.52-0.82-0.73l0.23-2.8c0.22-2.45-1.32-4.72-3.67-5.43
		C49.78,3.32,37.95,0,30.91,0C23.61,0,10.78,3.7,5.6,5.29c-2.35,0.72-3.88,2.98-3.67,5.43l0.23,2.8c-1.51,1.09-2.33,2.9-2.14,4.76
		L2.7,45.04c0.05,0.53,0.5,0.94,1.04,0.94h1.04v7.31c0,0.58,0.47,1.04,1.04,1.04h2.09c0.48,0,0.9-0.33,1.01-0.79l1.89-7.57h40.17
		l1.89,7.57c0.12,0.46,0.53,0.79,1.01,0.79h2.09c0.58,0,1.04-0.47,1.04-1.04v-7.31h1.04c0.54,0,0.99-0.4,1.04-0.94l2.68-26.75
		C61.94,16.82,61.46,15.35,60.47,14.26z M4.02,10.55c-0.13-1.47,0.79-2.83,2.2-3.26c5.08-1.57,17.67-5.2,24.69-5.2
		s19.6,3.64,24.69,5.2c1.41,0.43,2.34,1.79,2.2,3.26l-0.17,2.09c-0.34-0.07-0.69-0.1-1.03-0.1h-0.16c-3.76-0.01-6.91,2.84-7.28,6.58
		l-0.59,5.87c-0.98-1.26-2.48-1.99-4.08-2H17.33c-1.59,0.01-3.1,0.74-4.08,2l-0.59-5.87c-0.37-3.74-3.52-6.59-7.28-6.58H5.22
		c-0.35,0-0.69,0.04-1.03,0.1L4.02,10.55z M47.63,31.35H14.19v-3.13c0-1.73,1.4-3.13,3.13-3.13h27.17c1.73,0,3.13,1.4,3.13,3.13
		V31.35z M47.73,33.44l-1.04,10.45H15.14l-1.04-10.45H47.73z M7.1,52.25H6.88v-6.27h1.8L7.1,52.25z M4.69,43.89L2.11,18.08
		c-0.17-1.72,1.08-3.26,2.81-3.43c0.1-0.01,0.21-0.02,0.31-0.02h0.16c2.69-0.01,4.94,2.03,5.2,4.7l2.46,24.56H4.69z M54.94,52.25
		h-0.23l-1.57-6.27h1.8V52.25z M57.14,43.89h-8.35l2.46-24.56c0.26-2.67,2.51-4.71,5.19-4.7h0.16c1.73,0,3.13,1.4,3.13,3.13
		c0,0.1-0.01,0.21-0.02,0.31L57.14,43.89z"/>
	<rect x="22.55" y="9.4" class="st0" width="2.09" height="2.09"/>
	<rect x="22.55" y="15.67" class="st0" width="2.09" height="2.09"/>
	<rect x="37.18" y="9.4" class="st0" width="2.09" height="2.09"/>
	<rect x="37.18" y="15.67" class="st0" width="2.09" height="2.09"/>
</g>
</svg>
