<?xml version="1.0" encoding="utf-8"?>
<!-- Generator: Adobe Illustrator 21.0.0, SVG Export Plug-In . SVG Version: 6.00 Build 0)  -->
<svg version="1.1" id="Capa_1" xmlns="http://www.w3.org/2000/svg" xmlns:xlink="http://www.w3.org/1999/xlink" x="0px" y="0px"
	 viewBox="0 0 1024 548.4" style="enable-background:new 0 0 1024 548.4;" xml:space="preserve">
<style type="text/css">
	.st0{fill:#FFBF09;}
	.st1{fill:#FFFFFF;}
	.st2{enable-background:new    ;}
	.st3{fill:#606060;}
	.st4{fill:#231F20;}
</style>
<g>
	<rect class="st0" width="1024" height="548.4"/>
	<rect x="43.8" y="338.2" class="st1" width="457" height="77.2"/>
	<g>
		<g class="st2">
			<path class="st3" d="M43.8,265.3h19.4c9.9,0,13.7,6,13.7,15.4c0,5.9-1.7,15.1-14.4,15.1h-8v21H43.8V265.3z M54.6,287.9h6
				c3.2,0,5.4-3.5,5.4-6.9c0-4.2-1.1-7.8-6-7.8h-5.4V287.9z"/>
			<path class="st3" d="M94,316.9H83.2v-51.5h19.9c7.4,0,12.1,4.7,12.1,13.5c0,6.6-2.6,11.5-9.6,12.6v0.1c2.4,0.3,9.4,0.9,9.4,10.1
				c0,3.3,0.2,13,1.2,15.1h-10.6c-1.4-3.1-1.1-6.6-1.1-10c0-6.1,0.6-11.4-7.7-11.4H94V316.9z M94,287.6h4.8c4.3,0,5.5-4.3,5.5-7.6
				c0-4.9-2.1-6.8-5.5-6.8H94V287.6z"/>
			<path class="st3" d="M122.6,291.1c0-13.6,0-26.6,17.8-26.6c17.8,0,17.8,13,17.8,26.6c0,13.5,0,26.6-17.8,26.6
				C122.6,317.7,122.6,304.6,122.6,291.1z M147.2,291.1c0-13.2-0.8-18.9-6.9-18.9c-6.1,0-6.9,5.7-6.9,18.9c0,13.2,0.8,18.9,6.9,18.9
				C146.5,310,147.2,304.3,147.2,291.1z"/>
			<path class="st3" d="M166.9,265.3h18c14.1,0,16.8,9.4,16.8,25.5c0,7.9,1.2,26.1-17.2,26.1h-17.6V265.3z M177.7,308.9h5.2
				c6.6,0,7.9-4.9,7.9-17.8c0-9.5,0-17.9-7.5-17.9h-5.6V308.9z"/>
			<path class="st3" d="M245.2,265.3v36.6c0,7.7-4.4,15.8-17.5,15.8c-11.9,0-17.6-6.1-17.6-15.8v-36.6h10.8v35.8
				c0,6.4,2.7,8.9,6.6,8.9c4.7,0,6.9-3.1,6.9-8.9v-35.8H245.2z"/>
			<path class="st3" d="M253.5,291.1c0-13.6,0-26.6,17.8-26.6c11,0,15.4,6.1,15,17.1h-10.6c0-6.9-1.2-9.4-4.4-9.4
				c-6.1,0-6.9,5.7-6.9,18.9c0,13.2,0.8,18.9,6.9,18.9c5,0,4.8-6.4,4.9-10.5h10.6c0,13.8-5.5,18.2-15.6,18.2
				C253.5,317.7,253.5,304.6,253.5,291.1z"/>
			<path class="st3" d="M324.4,265.3v8.6h-12v43h-10.8v-43h-12v-8.6H324.4z"/>
			<path class="st3" d="M328.9,291.1c0-13.6,0-26.6,17.8-26.6c17.8,0,17.8,13,17.8,26.6c0,13.5,0,26.6-17.8,26.6
				C328.9,317.7,328.9,304.6,328.9,291.1z M353.5,291.1c0-13.2-0.8-18.9-6.9-18.9c-6.1,0-6.9,5.7-6.9,18.9c0,13.2,0.8,18.9,6.9,18.9
				C352.7,310,353.5,304.3,353.5,291.1z"/>
			<path class="st3" d="M387,317.7c-13.4,0-15.8-7.9-15.3-16.8h10.8c0,4.9,0.2,9.1,6.1,9.1c3.6,0,5.4-2.4,5.4-5.9
				c0-9.3-21.7-9.9-21.7-25.2c0-8.1,3.9-14.5,17-14.5c10.5,0,15.7,4.7,15,15.5h-10.5c0-3.9-0.6-7.8-5-7.8c-3.5,0-5.6,1.9-5.6,5.5
				c0,9.8,21.7,8.9,21.7,25.1C405,316.1,395.2,317.7,387,317.7z"/>
			<path class="st3" d="M428.8,265.3h18c14.1,0,16.8,9.4,16.8,25.5c0,7.9,1.2,26.1-17.2,26.1h-17.6V265.3z M439.5,308.9h5.2
				c6.6,0,7.9-4.9,7.9-17.8c0-9.5,0-17.9-7.5-17.9h-5.6V308.9z"/>
			<path class="st3" d="M472.2,316.9v-51.5h28.1v7.9H483v12.7h16v7.9h-16v15.1h17.9v7.9H472.2z"/>
		</g>
	</g>
	<g>
		<path class="st1" d="M327.9,181.2l-31.8-50.6c-1.2-1.8-3.7-2.2-5.3-0.7l-57.9,52.3c-1.6,1.4-1.9,3.7-0.7,5.5
			c0.4,0.6,0.8,1.3,1.3,2c-1.9,1.6-4.8,4.6-3.6,6.5c1.7,2.7,7.8,15.9,12.3,13c0.6-0.4,1.7-0.9,2.8-1.5c2.3,2.9,4.1,3.6,5.8,3.1
			c1.1,7.3,22.8,20.6,26.6,21.8s7.9-1.4,4-4.8c-4.3-2.8-9.7-12.1-12.1-16.4c-0.7-1.2-0.1-2.8,1.2-3.3l55.8-21.6
			C328.2,185.5,329.1,183,327.9,181.2z"/>
		<path class="st3" d="M287.4,152.1c-2.3,0-4.3-1.9-4.3-4.3c0-2.3,1.9-4.3,4.3-4.3c2.3,0,4.3,1.9,4.3,4.3
			C291.7,150.2,289.8,152.1,287.4,152.1z M287.4,145.1c-1.5,0-2.7,1.2-2.7,2.7s1.2,2.7,2.7,2.7s2.7-1.2,2.7-2.7
			C290.2,146.3,288.9,145.1,287.4,145.1z"/>
		<path class="st3" d="M248.3,213c-1.6,0-3.1-0.8-4-2.2l-16.6-26.4c-1.2-1.9-0.9-4.4,0.7-5.9l0,0l53.7-48.5c1-1,2.4-1.4,3.8-1.3
			c1.4,0.2,2.7,1,3.4,2.2l30,47.8c0.8,1.2,0.9,2.7,0.5,4c-0.5,1.3-1.5,2.4-2.8,2.9l-67,27.1C249.4,212.9,248.9,213,248.3,213z
			 M230.6,180.7c-0.6,0.6-0.7,1.4-0.2,2.1l16.6,26.4c0.4,0.7,1.3,1,2,0.7l67.1-27.2c0.5-0.2,0.8-0.6,1-1c0.2-0.5,0.1-1-0.2-1.4
			l-30-47.8c-0.3-0.4-0.7-0.7-1.2-0.8s-1,0.1-1.4,0.5l0,0L230.6,180.7z"/>
		<path class="st3" d="M240.1,210.9c-1.6,0-3.1-0.8-4.1-2.2l-9.9-15.7c-1.4-2.2-0.7-5.2,1.5-6.6l3.6-2.2l14.9,23.8l-3.6,2.2
			C241.8,210.7,240.9,210.9,240.1,210.9z M230.3,188.3l-1,0.6c-0.8,0.5-1.1,1.6-0.6,2.4l9.9,15.7c0.2,0.4,0.6,0.7,1.1,0.8
			s0.9,0,1.3-0.2l1-0.6L230.3,188.3z"/>
		<path class="st3" d="M279.1,234.6c-0.9,0-1.8-0.3-2.6-0.8l-19.7-13.2c-1.9-1.3-3.4-2.9-4.6-4.8l-2.4-3.9l2.6-1.6l2.4,3.9
			c1,1.5,2.2,2.8,3.7,3.9l19.7,13.2c0.5,0.4,1.2,0.4,1.8,0c0.4-0.3,0.7-0.7,0.8-1.2c0.1-0.5-0.1-1-0.5-1.3
			c-6.2-6.2-16.2-17.7-13.9-24.9l2.9,0.9c-1.5,4.8,6.2,14.7,13.2,21.8c1,1,1.5,2.4,1.3,3.8c-0.2,1.4-1,2.7-2.2,3.4
			C280.8,234.3,280,234.6,279.1,234.6z"/>
		<path class="st3" d="M334.8,171.7C334.8,171.7,334.7,171.7,334.8,171.7l-10-0.3c-0.8,0-1.5-0.7-1.5-1.6c0-0.8,0.7-1.5,1.6-1.5
			l9.9,0.3c0.8,0,1.5,0.7,1.5,1.6C336.3,171,335.6,171.7,334.8,171.7z"/>
		<path class="st3" d="M323.3,161.1c-0.7,0-1.3-0.4-1.5-1.1c-0.2-0.8,0.2-1.6,1-1.9l9.5-2.8c0.8-0.2,1.6,0.2,1.9,1
			c0.2,0.8-0.2,1.6-1,1.9l-9.5,2.8C323.6,161.1,323.5,161.1,323.3,161.1z"/>
		<path class="st3" d="M319.2,151.9c-0.5,0-1-0.3-1.3-0.7c-0.4-0.7-0.2-1.6,0.5-2.1l8.5-5.1c0.7-0.4,1.6-0.2,2.1,0.5
			c0.4,0.7,0.2,1.6-0.5,2.1l-8.5,5.1C319.7,151.8,319.5,151.9,319.2,151.9z"/>
		<path class="st3" d="M312.6,144.8c-0.4,0-0.8-0.1-1-0.4c-0.6-0.6-0.6-1.5,0-2.1l6.9-7.2c0.6-0.6,1.5-0.6,2.1,0s0.6,1.5,0,2.1
			l-6.9,7.2C313.4,144.6,313,144.8,312.6,144.8z"/>
		<path class="st3" d="M305.4,139.7c-0.2,0-0.5-0.1-0.7-0.2c-0.7-0.4-1-1.3-0.6-2l4.7-8.8c0.4-0.7,1.3-1,2-0.6s1,1.3,0.6,2l-4.7,8.8
			C306.5,139.4,306,139.7,305.4,139.7z"/>
		<path class="st3" d="M307.3,181.7c-0.3,0-0.6-0.2-0.7-0.5c-0.2-0.4,0-0.8,0.4-1l4.1-1.7c0.4-0.2,0.8,0,1,0.4s0,0.8-0.4,1l-4.1,1.7
			C307.5,181.7,307.4,181.7,307.3,181.7z"/>
		<path class="st3" d="M275.6,194.7c-0.3,0-0.6-0.2-0.7-0.5c-0.2-0.4,0-0.8,0.4-1l27.6-11.3c0.4-0.2,0.8,0,1,0.4s0,0.8-0.4,1
			l-27.6,11.3C275.8,194.7,275.7,194.7,275.6,194.7z"/>
		<path class="st3" d="M272.1,196.1c-0.3,0-0.6-0.2-0.7-0.5c-0.2-0.4,0-0.8,0.4-1l2.1-0.9c0.4-0.2,0.8,0,1,0.4s0,0.8-0.4,1l-2.1,0.9
			C272.2,196.1,272.1,196.1,272.1,196.1z"/>
	</g>
	<path class="st4" d="M950.1,430.5c-5.5,0-9.9-4.5-9.9-9.9c0-5.5,4.5-9.9,9.9-9.9c5.5,0,9.9,4.5,9.9,9.9S955.6,430.5,950.1,430.5z
		 M950.1,415.8c-2.6,0-4.8,2.1-4.8,4.8s2.1,4.8,4.8,4.8s4.8-2.1,4.8-4.8S952.7,415.8,950.1,415.8z"/>
	<path class="st4" d="M871,119.3c-0.7,0-1.3-0.3-1.8-0.8c-1-1-1-2.6,0-3.6l8.8-8.8c1.3-1.3,3.6-1.3,5,0l6.7,6.7l7.8-7.8
		c1.3-1.3,3.6-1.3,5,0l7.8,7.8l8.2-8.2c1.3-1.3,3.6-1.3,5,0l7.8,7.8l7.6-7.6c1-1,2.6-1,3.6,0s1,2.6,0,3.6l-8.7,8.7
		c-1.3,1.3-3.6,1.3-5,0l-7.8-7.8l-8.2,8.2c-1.3,1.3-3.6,1.3-5,0l-7.8-7.8l-7.8,7.8c-1.3,1.3-3.6,1.3-5,0l-6.7-6.7l-7.7,7.7
		C872.3,119,871.7,119.3,871,119.3z M881.7,109.7L881.7,109.7L881.7,109.7z"/>
	<path class="st4" d="M78.8,89.1c-0.7,0-1.3-0.3-1.8-0.8c-1-1-1-2.6,0-3.6l8.8-8.8c1.3-1.3,3.6-1.3,5,0l6.7,6.7l7.8-7.8
		c1.3-1.3,3.6-1.3,5,0l7.8,7.8l8.2-8.2c1.3-1.3,3.6-1.3,5,0l7.8,7.8l7.6-7.6c1-1,2.6-1,3.6,0s1,2.6,0,3.6l-8.7,8.7
		c-1.3,1.3-3.6,1.3-5,0l-7.8-7.8l-8.2,8.2c-1.3,1.3-3.6,1.3-5,0l-7.8-7.8l-7.8,7.8c-1.3,1.3-3.6,1.3-5,0l-6.7-6.7l-7.7,7.7
		C80.1,88.8,79.5,89.1,78.8,89.1z M89.4,79.5L89.4,79.5L89.4,79.5z"/>
	<path class="st1" d="M42.2,482.6c-6,0-10.9-4.9-10.9-10.9s4.9-10.9,10.9-10.9s10.9,4.9,10.9,10.9C53.2,477.7,48.3,482.6,42.2,482.6
		z M42.2,466.2c-3,0-5.4,2.4-5.4,5.4s2.4,5.4,5.4,5.4s5.4-2.4,5.4-5.4C47.7,468.7,45.2,466.2,42.2,466.2z"/>
	<g>
		<path class="st4" d="M500.2,77.1c-1.4,0-2.6-1.2-2.6-2.6V63.7c0-1.4,1.2-2.6,2.6-2.6s2.6,1.2,2.6,2.6v10.7
			C502.8,75.9,501.7,77.1,500.2,77.1z"/>
		<path class="st4" d="M500.2,96.2c-1.4,0-2.6-1.2-2.6-2.6V82.9c0-1.4,1.2-2.6,2.6-2.6s2.6,1.2,2.6,2.6v10.7
			C502.8,95.1,501.7,96.2,500.2,96.2z"/>
		<path class="st4" d="M515.2,81.3h-10.7c-1.4,0-2.6-1.2-2.6-2.6s1.2-2.6,2.6-2.6h10.7c1.4,0,2.6,1.2,2.6,2.6
			C517.8,80.1,516.6,81.3,515.2,81.3z"/>
		<path class="st4" d="M496,81.3h-10.7c-1.4,0-2.6-1.2-2.6-2.6s1.2-2.6,2.6-2.6H496c1.4,0,2.6,1.2,2.6,2.6
			C498.6,80.1,497.5,81.3,496,81.3z"/>
	</g>
	<g>
		<path class="st1" d="M806.8,505.3c-1.4,0-2.6-1.2-2.6-2.6V492c0-1.4,1.2-2.6,2.6-2.6c1.4,0,2.6,1.2,2.6,2.6v10.7
			C809.4,504.1,808.2,505.3,806.8,505.3z"/>
		<path class="st1" d="M806.8,524.5c-1.4,0-2.6-1.2-2.6-2.6v-10.7c0-1.4,1.2-2.6,2.6-2.6c1.4,0,2.6,1.2,2.6,2.6v10.7
			C809.4,523.3,808.2,524.5,806.8,524.5z"/>
		<path class="st1" d="M821.8,509.5H811c-1.4,0-2.6-1.2-2.6-2.6s1.2-2.6,2.6-2.6h10.7c1.4,0,2.6,1.2,2.6,2.6
			S823.2,509.5,821.8,509.5z"/>
		<path class="st1" d="M802.6,509.5h-10.7c-1.4,0-2.6-1.2-2.6-2.6s1.2-2.6,2.6-2.6h10.7c1.4,0,2.6,1.2,2.6,2.6
			C805.2,508.3,804,509.5,802.6,509.5z"/>
	</g>
	<g>
		<path class="st1" d="M47.7,142.1c-1.4,0-2.6-1.2-2.6-2.6v-10.7c0-1.4,1.2-2.6,2.6-2.6c1.4,0,2.6,1.2,2.6,2.6v10.7
			C50.2,141,49.1,142.1,47.7,142.1z"/>
		<path class="st1" d="M47.7,161.3c-1.4,0-2.6-1.2-2.6-2.6V148c0-1.4,1.2-2.6,2.6-2.6c1.4,0,2.6,1.2,2.6,2.6v10.7
			C50.2,160.1,49.1,161.3,47.7,161.3z"/>
		<path class="st1" d="M62.6,146.3H51.9c-1.4,0-2.6-1.2-2.6-2.6c0-1.4,1.2-2.6,2.6-2.6h10.7c1.4,0,2.6,1.2,2.6,2.6
			C65.2,145.2,64,146.3,62.6,146.3z"/>
		<path class="st1" d="M43.4,146.3H32.7c-1.4,0-2.6-1.2-2.6-2.6c0-1.4,1.2-2.6,2.6-2.6h10.7c1.4,0,2.6,1.2,2.6,2.6
			C46,145.2,44.9,146.3,43.4,146.3z"/>
	</g>
	<path class="st1" d="M544.2,490.4h-19.3c-1.8,0-3.4-0.9-4.3-2.5c-0.9-1.5-0.9-3.4,0-4.9l9.7-16.8c0.9-1.5,2.5-2.5,4.3-2.5
		s3.4,0.9,4.3,2.5l9.7,16.8c0.9,1.5,0.9,3.4,0,4.9C547.5,489.5,545.9,490.4,544.2,490.4z M525.8,484.9h17.4l-8.7-15L525.8,484.9z
		 M532.6,467.6L532.6,467.6L532.6,467.6z"/>
	<g>
		<g class="st2">
			<path class="st0" d="M103,349.4v9.2H90V405H78.4v-46.3H65.5v-9.2H103z"/>
			<path class="st0" d="M108.3,405v-55.5h30.3v8.5H120v13.7h17.2v8.5H120v16.2h19.3v8.5H108.3z"/>
			<path class="st0" d="M146.6,405v-55.5h18.7l8.7,37.8h0.2l9.2-37.8h18.1V405h-11.3v-42.9H190L179.3,405h-11.1L158,362.1h-0.2V405
				H146.6z"/>
			<path class="st0" d="M211,349.4h20.9c10.6,0,14.8,6.5,14.8,16.6c0,6.3-1.8,16.3-15.5,16.3h-8.6V405H211V349.4z M222.6,373.8h6.5
				c3.5,0,5.8-3.8,5.8-7.5c0-4.5-1.2-8.4-6.5-8.4h-5.8V373.8z"/>
			<path class="st0" d="M253.1,377.2c0-14.7,0-28.7,19.2-28.7s19.2,14,19.2,28.7c0,14.5,0,28.7-19.2,28.7S253.1,391.7,253.1,377.2z
				 M279.7,377.2c0-14.2-0.8-20.4-7.4-20.4c-6.5,0-7.4,6.2-7.4,20.4c0,14.2,0.8,20.4,7.4,20.4C278.8,397.6,279.7,391.4,279.7,377.2z
				"/>
			<path class="st0" d="M312.1,405h-11.6v-55.5h21.5c7.9,0,13,5.1,13,14.5c0,7.1-2.8,12.4-10.3,13.6v0.2c2.5,0.3,10.1,0.9,10.1,10.9
				c0,3.5,0.2,14,1.3,16.3h-11.4c-1.5-3.4-1.2-7.2-1.2-10.8c0-6.6,0.6-12.2-8.3-12.2h-3V405z M312.1,373.4h5.2
				c4.6,0,5.9-4.6,5.9-8.2c0-5.3-2.2-7.3-5.9-7.3h-5.2V373.4z"/>
			<path class="st0" d="M339.2,405l15.4-55.5h15.3L385,405h-12.2l-3.1-12.3h-15.8l-3.2,12.3H339.2z M361.6,360.1h-0.2l-5.3,24h11.1
				L361.6,360.1z"/>
			<path class="st0" d="M390.7,349.4h19.4c15.2,0,18.1,10.2,18.1,27.5c0,8.5,1.3,28.1-18.5,28.1h-18.9V349.4z M402.3,396.4h5.6
				c7.1,0,8.5-5.3,8.5-19.2c0-10.2,0-19.2-8.1-19.2h-6V396.4z"/>
			<path class="st0" d="M433.2,405l15.4-55.5h15.3L479,405h-12.2l-3.1-12.3h-15.8l-3.2,12.3H433.2z M455.6,360.1h-0.2l-5.3,24h11.1
				L455.6,360.1z"/>
		</g>
	</g>
</g>
</svg>
