<?xml version="1.0" encoding="utf-8"?>
<!-- Generator: Adobe Illustrator 23.0.2, SVG Export Plug-In . SVG Version: 6.00 Build 0)  -->
<svg version="1.1" id="Capa_1" xmlns="http://www.w3.org/2000/svg" xmlns:xlink="http://www.w3.org/1999/xlink" x="0px" y="0px"
	 viewBox="0 0 54 49.9" style="enable-background:new 0 0 54 49.9;" xml:space="preserve">
<style type="text/css">
	.st0{fill:#606060;}
	.st1{fill:#EEBE2F;}
</style>
<g>
	<g>
		<path class="st0" d="M54,12.28c-0.01-0.23-0.07-0.46-0.2-0.66l-5.68-9.37C47.29,0.85,45.78,0,44.16,0H9.84
			C8.21,0,6.71,0.85,5.87,2.24L0.2,11.62c-0.12,0.2-0.19,0.43-0.2,0.66v33.01c0,2.55,2.07,4.62,4.62,4.62h44.75
			c2.55,0,4.62-2.07,4.62-4.62V12.28z M45.88,3.63l4.42,7.33H34.19l-1.52-8.32h11.49C44.87,2.64,45.52,3.02,45.88,3.63z M22.18,13.6
			h9.57v12.54h-9.57V13.6z M22.44,10.96l1.52-8.32h6.07l1.52,8.32H22.44z M8.12,3.63c0.35-0.61,1.01-0.99,1.72-0.99h11.49
			l-1.52,8.32H3.7L8.12,3.63z M49.38,47.26H4.62c-1.09,0-1.98-0.89-1.98-1.98V13.6h16.9v13.86c0,0.73,0.59,1.32,1.32,1.32h12.21
			c0.73,0,1.32-0.59,1.32-1.32V13.6h16.96v31.68C51.36,46.38,50.47,47.26,49.38,47.26z"/>
		<path class="st1" d="M18.22,34.19h-6.07c-2.61,0-4.72,2.11-4.72,4.72s2.11,4.72,4.72,4.72h6.14c2.59,0,4.69-2.1,4.68-4.69
			c0-2.59-2.1-4.68-4.68-4.68L18.22,34.19z M18.22,40.99h-6.07c-1.13,0-2.05-0.92-2.04-2.05c0-1.13,0.92-2.04,2.04-2.04h6.14
			c1.15,0,2.08,0.93,2.08,2.08s-0.93,2.08-2.08,2.08L18.22,40.99z"/>
	</g>
</g>
</svg>
