<?xml version="1.0" encoding="utf-8"?>
<!-- Generator: Adobe Illustrator 23.0.2, SVG Export Plug-In . SVG Version: 6.00 Build 0)  -->
<svg version="1.1" id="Capa_1" xmlns="http://www.w3.org/2000/svg" xmlns:xlink="http://www.w3.org/1999/xlink" x="0px" y="0px"
	 viewBox="0 0 35.58 28.83" style="enable-background:new 0 0 35.58 28.83;" xml:space="preserve">
<style type="text/css">
	.st0{fill:#606060;}
</style>
<path class="st0" d="M35.58,3.45c-0.26,0.39-0.52,0.76-0.83,1.12c-0.77,0.95-1.66,1.8-2.66,2.52l-0.12,0.23
	c0.03,1.08-0.02,2.15-0.16,3.23c-0.29,2.26-0.95,4.43-1.92,6.48c-1.02,2.12-2.33,4.04-3.98,5.73c-2.8,2.87-6.15,4.73-10.05,5.58
	c-1.34,0.29-2.69,0.44-4.06,0.48c-0.22,0.01-0.44,0.01-0.66,0.01c-3.94,0-7.6-1.05-10.96-3.14L0,25.58
	c0.58,0.06,1.15,0.09,1.71,0.09c1.92,0,3.78-0.36,5.58-1.09c1.24-0.52,2.39-1.17,3.47-2.03C7,22.43,4.65,19.71,4.04,17.5
	c0.45,0.09,0.9,0.13,1.35,0.13c0.59,0,1.18-0.07,1.77-0.21l0.11-0.05c-2.05-0.48-3.62-1.57-4.7-3.34c-0.73-1.17-1.06-2.46-1.05-3.87
	c1.03,0.54,2.09,0.84,3.23,0.87C3.22,9.93,2.2,8.47,1.79,6.62C1.38,4.77,1.67,3.01,2.62,1.35C6.52,6,11.49,8.54,17.57,8.96
	c-0.04-0.3-0.08-0.54-0.12-0.8c-0.19-1.72,0.18-3.31,1.11-4.75c1.17-1.82,2.83-2.96,4.95-3.3C23.97,0.04,24.42,0,24.85,0
	c1.9,0,3.59,0.73,5.03,2.14c0.09,0.08,0.17,0.12,0.27,0.12c0.03,0,0.07-0.01,0.11-0.02c1.5-0.31,2.92-0.86,4.25-1.62l0.1-0.05
	c-0.53,1.69-1.59,3-3.09,3.96C32.93,4.39,34.26,4.01,35.58,3.45z"/>
</svg>
