<?xml version="1.0" encoding="utf-8"?>
<!-- Generator: Adobe Illustrator 22.0.0, SVG Export Plug-In . SVG Version: 6.00 Build 0)  -->
<svg version="1.1" id="Layer_1" xmlns="http://www.w3.org/2000/svg" xmlns:xlink="http://www.w3.org/1999/xlink" x="0px" y="0px"
	 viewBox="0 0 51.9 42.1" style="enable-background:new 0 0 51.9 42.1;" xml:space="preserve">
<style type="text/css">
	.st0{fill:#FFFFFF;}
</style>
<path class="st0" d="M51.9,5c-0.4,0.6-0.8,1.1-1.2,1.6c-1.1,1.4-2.4,2.6-3.9,3.7l-0.2,0.3c0,1.6,0,3.1-0.2,4.7
	c-0.4,3.3-1.4,6.5-2.8,9.5c-1.5,3.1-3.4,5.9-5.8,8.4c-4.1,4.2-9,6.9-14.7,8.2c-2,0.4-3.9,0.6-5.9,0.7c-0.3,0-0.6,0-1,0
	c-5.8,0-11.1-1.5-16-4.6L0,37.3c0.8,0.1,1.7,0.1,2.5,0.1c2.8,0,5.5-0.5,8.1-1.6c1.8-0.8,3.5-1.7,5.1-3c-5.5-0.2-8.9-4.2-9.8-7.4
	c0.7,0.1,1.3,0.2,2,0.2c0.9,0,1.7-0.1,2.6-0.3l0.2-0.1c-3-0.7-5.3-2.3-6.9-4.9c-1.1-1.7-1.5-3.6-1.5-5.6c1.5,0.8,3.1,1.2,4.7,1.3
	c-2.2-1.6-3.7-3.7-4.3-6.4C2,7,2.4,4.4,3.8,2c5.7,6.8,12.9,10.5,21.8,11.1c-0.1-0.4-0.1-0.8-0.2-1.2c-0.3-2.5,0.3-4.8,1.6-6.9
	c1.7-2.7,4.1-4.3,7.2-4.8C35,0.1,35.6,0,36.3,0c2.8,0,5.2,1.1,7.3,3.1c0.1,0.1,0.2,0.2,0.4,0.2c0.1,0,0.1,0,0.2,0
	c2.2-0.5,4.3-1.3,6.2-2.4l0.1-0.1c-0.8,2.5-2.3,4.4-4.5,5.8C48.1,6.4,50,5.9,51.9,5z"/>
</svg>
