<?xml version="1.0" encoding="utf-8"?>
<!-- Generator: Adobe Illustrator 23.0.2, SVG Export Plug-In . SVG Version: 6.00 Build 0)  -->
<svg version="1.1" id="Capa_1" xmlns="http://www.w3.org/2000/svg" xmlns:xlink="http://www.w3.org/1999/xlink" x="0px" y="0px"
	 viewBox="0 0 30.96 38.01" style="enable-background:new 0 0 30.96 38.01;" xml:space="preserve">
<style type="text/css">
	.st0{fill:#FFFFFF;}
</style>
<g>
	<path class="st0" d="M15.27,8.26l0,0.2h0l-0.04-0.2c-0.03,0-0.06,0-0.09,0c-1.75,0-3.41,0.68-4.67,1.93
		c-1.27,1.26-1.98,2.94-2.01,4.74c-0.05,3.68,2.94,6.71,6.66,6.76c0.03,0,0.06,0,0.09,0c1.75,0,3.41-0.68,4.66-1.93
		c1.27-1.26,1.99-2.94,2.01-4.78C21.93,11.31,18.96,8.3,15.27,8.26z M15.22,18.58c-0.03,0-0.05,0-0.07,0
		c-1.94,0-3.53-1.59-3.58-3.57c-0.02-0.96,0.34-1.87,1.02-2.56c0.67-0.69,1.58-1.07,2.55-1.09c0.03,0,0.05,0,0.07,0
		c1.94,0,3.53,1.59,3.58,3.61C18.78,16.95,17.22,18.53,15.22,18.58z"/>
	<path class="st0" d="M30.94,14.78L30.94,14.78C30.35,6.49,23.56,0,15.48,0S0.61,6.49,0.02,14.78C-0.16,18.62,1,22.4,3.29,25.41
		l9.25,11.23c0.68,0.8,1.62,1.28,2.66,1.36c0.1,0.01,0.2,0.01,0.31,0.01c0.9,0,1.75-0.31,2.43-0.89c0.2-0.15,0.34-0.29,0.48-0.48
		l9.17-11.14l0.07-0.08C29.96,22.4,31.12,18.62,30.94,14.78z M27.84,14.98c0.18,3.03-0.77,6.05-2.65,8.52L16,34.67
		c-0.12,0.13-0.29,0.21-0.47,0.23c-0.19,0.02-0.36-0.05-0.48-0.15L5.77,23.5c-1.88-2.47-2.83-5.5-2.65-8.52
		C3.52,9.14,8.25,3.1,15.48,3.1S27.44,9.14,27.84,14.98z"/>
</g>
</svg>
