<?xml version="1.0" encoding="utf-8"?>
<!-- Generator: Adobe Illustrator 22.0.0, SVG Export Plug-In . SVG Version: 6.00 Build 0)  -->
<svg version="1.1" id="Layer_1" xmlns="http://www.w3.org/2000/svg" xmlns:xlink="http://www.w3.org/1999/xlink" x="0px" y="0px"
	 viewBox="0 0 51.3 51.3" style="enable-background:new 0 0 51.3 51.3;" xml:space="preserve">
<style type="text/css">
	.st0{fill:#FFFFFF;}
</style>
<path d="M48.8,51.3H2.5c-1.4,0-2.5-1.1-2.5-2.5L0,2.5C0,1.1,1.1,0,2.5,0l46.3,0c1.4,0,2.5,1.1,2.5,2.5v46.3
	C51.3,50.2,50.2,51.3,48.8,51.3z"/>
<g transform="translate(0,-952.36218)">
	<path class="st0" d="M25.7,971c-5.3,0-9.9,2.6-12.8,6.7c-0.1,0.2-0.1,0.5,0,0.7c2.9,4.1,7.6,6.7,12.8,6.7s9.9-2.6,12.8-6.7
		c0.1-0.2,0.1-0.5,0-0.7C35.6,973.6,30.9,971,25.7,971z M25.7,972.1c4.7,0,8.9,2.3,11.6,5.9c-2.7,3.6-6.9,5.9-11.6,5.9
		s-8.9-2.3-11.6-5.9C16.8,974.4,20.9,972.1,25.7,972.1z M25.7,973.9c-2.3,0-4.1,1.9-4.1,4.1c0,2.3,1.9,4.1,4.1,4.1s4.1-1.9,4.1-4.1
		C29.8,975.7,27.9,973.9,25.7,973.9z M25.7,975.1c1.6,0,2.9,1.3,2.9,2.9c0,1.6-1.3,2.9-2.9,2.9c-1.6,0-2.9-1.3-2.9-2.9
		C22.7,976.4,24,975.1,25.7,975.1z"/>
</g>
</svg>
