<?xml version="1.0" encoding="utf-8"?>
<!-- Generator: Adobe Illustrator 22.0.0, SVG Export Plug-In . SVG Version: 6.00 Build 0)  -->
<svg version="1.1" id="Layer_1" xmlns="http://www.w3.org/2000/svg" xmlns:xlink="http://www.w3.org/1999/xlink" x="0px" y="0px"
	 viewBox="0 0 52.7 52.8" style="enable-background:new 0 0 52.7 52.8;" xml:space="preserve">
<style type="text/css">
	.st0{fill:#FFFFFF;}
</style>
<g>
	<path class="st0" d="M17.7,14.1c0.5,0,1,0.1,1.5,0.2c0.3,0,0.6,0.5,0.7,0.8c0.7,1.7,1.4,3.4,2.1,5.1c0.4,0.9-0.3,1.8-1.6,3.3
		c-0.4,0.5-0.5,0.9-0.2,1.5c2.1,3.6,5.1,6.3,9,7.8c0.2,0.1,0.3,0.1,0.5,0.1c0.3,0,0.6-0.2,0.9-0.5c1.7-2,2.2-2.9,2.8-2.9
		c0.2,0,0.4,0.1,0.6,0.2c5.3,2.5,5.7,2.6,5.7,3.2c0.1,4.2-3.6,5.9-6,5.9c-0.1,0-0.3,0-0.4,0c-5.1-0.2-13.2-4.2-18.7-13.9
		c-1.9-3.4-1.6-7.4,1.3-10.1C16.4,14.3,17,14.1,17.7,14.1z"/>
	<path class="st0" d="M52.3,21.3c2.5,14.5-7.1,28.2-21.4,30.7c-1.5,0.3-3.1,0.4-4.6,0.4c-4.1,0-8-0.9-11.7-2.8
		c-0.3-0.2-0.7-0.2-1.1-0.2c-0.2,0-0.4,0-0.5,0.1c-7,1.7-11.6,3-13,3.3c0.3-1.1,0.6-2.1,0.8-3.1c0.9-3.2,1.8-6.3,2.7-9.5
		c0.1-0.5,0.1-1.1-0.1-1.5c-8-15.3,0.5-33.9,17.4-37.9C22.9,0.2,25,0,27,0C39.7,0,50.3,9.4,52.3,21.3z M29.8,47.8
		C41.7,45.9,50,34.8,48.2,23C46.6,12,37.4,4.3,26.8,4.3c-1.3,0-2.6,0.1-4,0.4C8.1,7.4,0.1,23.8,7.4,36.8c0.8,1.4,1,2.6,0.4,4.2
		c-0.7,1.8-1.1,3.8-1.7,5.8c2.6-0.7,5-1.3,7.4-1.9c0.2-0.1,0.4-0.1,0.6-0.1c0.4,0,0.8,0.1,1.2,0.3c3.4,2,7.1,3,10.9,3
		C27.4,48.1,28.6,48,29.8,47.8"/>
</g>
</svg>
