<?xml version="1.0" encoding="utf-8"?>
<!-- Generator: Adobe Illustrator 23.0.2, SVG Export Plug-In . SVG Version: 6.00 Build 0)  -->
<svg version="1.1" id="Capa_1" xmlns="http://www.w3.org/2000/svg" xmlns:xlink="http://www.w3.org/1999/xlink" x="0px" y="0px"
	 viewBox="0 0 36.13 36.17" style="enable-background:new 0 0 36.13 36.17;" xml:space="preserve">
<style type="text/css">
	.st0{fill:#606060;}
</style>
<g>
	<path class="st0" d="M12.12,9.66c0.34,0,0.7,0.06,1.04,0.12c0.2,0.03,0.39,0.33,0.5,0.54c0.5,1.16,0.99,2.32,1.42,3.5
		c0.24,0.63-0.2,1.23-1.12,2.26c-0.29,0.33-0.35,0.64-0.13,1.02c1.45,2.49,3.49,4.29,6.2,5.35c0.12,0.05,0.23,0.07,0.34,0.07
		c0.23,0,0.42-0.11,0.6-0.33c1.15-1.39,1.48-2,1.95-2c0.12,0,0.24,0.04,0.39,0.11c3.61,1.73,3.89,1.8,3.91,2.21
		c0.09,2.9-2.43,4.04-4.14,4.04c-0.09,0-0.18,0-0.26-0.01c-3.5-0.12-9.06-2.89-12.84-9.53c-1.33-2.36-1.12-5.04,0.88-6.89
		C11.23,9.77,11.67,9.66,12.12,9.66z"/>
	<path class="st0" d="M35.86,14.62c1.72,9.91-4.83,19.31-14.68,21.04c-1.06,0.18-2.11,0.27-3.14,0.27c-2.78,0-5.46-0.65-8.04-1.91
		c-0.22-0.11-0.49-0.16-0.74-0.16c-0.13,0-0.25,0.01-0.36,0.04c-4.76,1.2-7.93,2.08-8.9,2.27c0.21-0.78,0.39-1.46,0.57-2.14
		c0.62-2.18,1.25-4.34,1.82-6.52c0.08-0.33,0.06-0.75-0.09-1.05C-3.14,15.95,2.66,3.22,14.26,0.49C15.69,0.16,17.1,0,18.48,0
		C27.21,0,34.43,6.41,35.86,14.62z M20.44,32.77c8.15-1.31,13.78-8.92,12.6-17.04C31.95,8.24,25.62,2.95,18.36,2.95
		c-0.9,0-1.81,0.08-2.73,0.25C5.53,5.06,0.1,16.29,5.04,25.2c0.55,0.98,0.69,1.8,0.31,2.85c-0.45,1.27-0.73,2.57-1.13,4
		c1.79-0.46,3.44-0.87,5.08-1.33c0.15-0.04,0.29-0.06,0.43-0.06c0.27,0,0.52,0.08,0.8,0.24c2.36,1.37,4.85,2.08,7.48,2.08
		C18.8,32.97,19.61,32.9,20.44,32.77"/>
</g>
</svg>
